<?xml version="1.0" encoding="UTF-8" standalone="no"?>
<svg
   style="enable-background:new 0 0 50 50;"
   version="1.1"
   viewBox="0 0 50 50"
   xml:space="preserve"
   id="svg7"
   sodipodi:docname="Application.svg"
   inkscape:version="1.1.2 (b8e25be833, 2022-02-05)"
   xmlns:inkscape="http://www.inkscape.org/namespaces/inkscape"
   xmlns:sodipodi="http://sodipodi.sourceforge.net/DTD/sodipodi-0.dtd"
   xmlns="http://www.w3.org/2000/svg"
   xmlns:svg="http://www.w3.org/2000/svg"><defs
     id="defs11" /><sodipodi:namedview
     id="namedview9"
     pagecolor="#505050"
     bordercolor="#eeeeee"
     borderopacity="1"
     inkscape:pageshadow="0"
     inkscape:pageopacity="0"
     inkscape:pagecheckerboard="0"
     showgrid="false"
     inkscape:snap-bbox="true"
     inkscape:zoom="17.46"
     inkscape:cx="25"
     inkscape:cy="25.028637"
     inkscape:window-width="2560"
     inkscape:window-height="1369"
     inkscape:window-x="-8"
     inkscape:window-y="-8"
     inkscape:window-maximized="1"
     inkscape:current-layer="layer2" /><g
     id="g5" /><g
     inkscape:groupmode="layer"
     id="layer1"
     inkscape:label="Screen"
     style="display:inline"
     sodipodi:insensitive="true"><g
       id="Layer_1"
       style="fill:#ffffff;fill-opacity:1"><path
         d="m 1,38 h 23 v 3 H 12 v 2 H 38 V 41 H 26 V 38 H 49 V 8 H 1 Z M 3,10 H 47 V 36 H 3 Z"
         id="path2"
         style="fill:#ffffff;fill-opacity:1" /></g></g><g
     inkscape:groupmode="layer"
     id="layer2"
     inkscape:label="Text"
     style="display:inline"><g
       aria-label="APP"
       id="text7966"
       style="font-size:29.3333px;line-height:1.25;font-family:'Passion One';-inkscape-font-specification:'Passion One'"><path
         d="M 18.429342,32.10799 H 13.530681 L 12.973349,29.233327 H 9.5120192 L 8.9546865,32.10799 H 4.2906919 L 7.6346881,13.892011 H 15.085346 Z M 12.416016,25.801331 11.38935,19.289338 h -0.205333 l -1.026665,6.511993 z"
         style="fill:#ffffff"
         id="path4105" /><path
         d="m 26.231977,26.15333 h -1.349332 v 5.95466 H 19.95465 V 13.892011 h 5.95466 q 3.138663,0 4.663995,1.437332 1.525331,1.437332 1.525331,4.722661 0,3.28533 -1.437331,4.693328 -1.437332,1.407998 -4.429328,1.407998 z m 0.557332,-3.959995 q 0.264,-0.498666 0.264,-1.789331 0,-1.290665 -0.293333,-1.818665 -0.293333,-0.527999 -1.173332,-0.527999 h -0.703999 v 4.634661 h 0.821332 q 0.821333,0 1.085332,-0.498666 z"
         style="fill:#ffffff"
         id="path4107" /><path
         d="m 39.842649,26.15333 h -1.349332 v 5.95466 H 33.565322 V 13.892011 h 5.95466 q 3.138663,0 4.663995,1.437332 1.525331,1.437332 1.525331,4.722661 0,3.28533 -1.437331,4.693328 -1.437332,1.407998 -4.429328,1.407998 z m 0.557332,-3.959995 q 0.264,-0.498666 0.264,-1.789331 0,-1.290665 -0.293333,-1.818665 -0.293333,-0.527999 -1.173332,-0.527999 h -0.703999 v 4.634661 h 0.821332 q 0.821333,0 1.085332,-0.498666 z"
         style="fill:#ffffff"
         id="path4109" /></g></g></svg>
