<?xml version="1.0" encoding="UTF-8" standalone="no"?>
<svg
   enable-background="new 0 0 200 200"
   height="250"
   id="Layer_1"
   version="1.1"
   viewBox="0 0 250 250"
   width="250"
   xml:space="preserve"
   sodipodi:docname="Links-Company.svg"
   inkscape:version="1.1.2 (b8e25be833, 2022-02-05)"
   xmlns:inkscape="http://www.inkscape.org/namespaces/inkscape"
   xmlns:sodipodi="http://sodipodi.sourceforge.net/DTD/sodipodi-0.dtd"
   xmlns="http://www.w3.org/2000/svg"
   xmlns:svg="http://www.w3.org/2000/svg"><defs
     id="defs19" /><sodipodi:namedview
     id="namedview17"
     pagecolor="#505050"
     bordercolor="#eeeeee"
     borderopacity="1"
     inkscape:pageshadow="0"
     inkscape:pageopacity="0"
     inkscape:pagecheckerboard="0"
     showgrid="false"
     inkscape:zoom="2.1825"
     inkscape:cx="22.222222"
     inkscape:cy="170.90493"
     inkscape:window-width="2560"
     inkscape:window-height="1369"
     inkscape:window-x="2552"
     inkscape:window-y="-8"
     inkscape:window-maximized="1"
     inkscape:current-layer="layer2" /><g
     inkscape:groupmode="layer"
     id="layer1"
     inkscape:label="Building"
     style="display:inline"
     transform="translate(0,-3.096)"><g
       id="g14"
       style="fill:#ffffff;fill-opacity:1;stroke:none;stroke-opacity:1"
       transform="translate(25,1.8366505)"><path
         d="M 197.422,77.135 103.119,4.165 c -0.861,-0.668 -1.942,-1.069 -3.118,-1.069 -1.175,0 -2.256,0.401 -3.12,1.069 l -94.3,72.97 c -1.68,1.298 -2.431,3.561 -1.709,5.679 0.728,2.117 2.706,3.449 4.825,3.449 h 188.605 c 2.121,0 4.1,-1.332 4.825,-3.449 0.721,-2.118 -0.03,-4.381 -1.705,-5.679 z M 59.066,62.932 100.001,31.254 140.936,62.932 Z"
         fill="#5E889E"
         id="path2"
         style="fill:#ffffff;fill-opacity:1;stroke:none;stroke-opacity:1" /><g
         id="g10"
         style="fill:#ffffff;fill-opacity:1;stroke:none;stroke-opacity:1"><path
           d="m 63.429,160.434 h -5.128 v -53.965 c 3.709,0 6.746,-3.037 6.746,-6.745 0,-3.713 -3.037,-6.746 -6.746,-6.746 H 32.167 c -3.711,0 -6.749,3.033 -6.749,6.746 0,3.708 3.037,6.745 6.749,6.745 v 53.965 h -5.126 c -0.893,0 -1.623,0.726 -1.623,1.616 v 3.236 c 0,0.891 0.729,1.62 1.623,1.62 h 36.388 c 0.889,0 1.618,-0.729 1.618,-1.62 v -3.236 c 0,-0.891 -0.73,-1.616 -1.618,-1.616 z"
           fill="#5E889E"
           id="path4"
           style="fill:#ffffff;fill-opacity:1;stroke:none;stroke-opacity:1" /><path
           d="m 118.193,160.434 h -5.124 v -53.965 c 3.708,0 6.744,-3.037 6.744,-6.745 0,-3.713 -3.036,-6.746 -6.744,-6.746 H 86.933 c -3.711,0 -6.746,3.033 -6.746,6.746 0,3.708 3.035,6.745 6.746,6.745 v 53.965 h -5.125 c -0.893,0 -1.621,0.726 -1.621,1.616 v 3.236 c 0,0.891 0.728,1.62 1.621,1.62 h 36.386 c 0.891,0 1.62,-0.729 1.62,-1.62 v -3.236 c -10e-4,-0.891 -0.73,-1.616 -1.621,-1.616 z"
           fill="#5E889E"
           id="path6"
           style="fill:#ffffff;fill-opacity:1;stroke:none;stroke-opacity:1" /><path
           d="m 172.961,160.434 h -5.128 v -53.965 c 3.711,0 6.748,-3.037 6.748,-6.745 0,-3.713 -3.037,-6.746 -6.748,-6.746 H 141.7 c -3.709,0 -6.746,3.033 -6.746,6.746 0,3.708 3.037,6.745 6.746,6.745 v 53.965 h -5.128 c -0.887,0 -1.618,0.726 -1.618,1.616 v 3.236 c 0,0.891 0.731,1.62 1.618,1.62 h 36.389 c 0.891,0 1.62,-0.729 1.62,-1.62 v -3.236 c 0,-0.891 -0.729,-1.616 -1.62,-1.616 z"
           fill="#5E889E"
           id="path8"
           style="fill:#ffffff;fill-opacity:1;stroke:none;stroke-opacity:1" /></g><path
         d="m 183.335,185.238 v -8.33 c 0,-0.856 -0.326,-1.709 -0.979,-2.358 -0.648,-0.653 -1.501,-0.976 -2.354,-0.976 h -160 c -0.853,0 -1.707,0.322 -2.358,0.976 -0.649,0.649 -0.976,1.502 -0.976,2.358 v 8.33 H 3.334 c -0.855,0 -1.708,0.327 -2.358,0.976 C 0.325,186.867 0,187.72 0,188.572 v 8.331 h 200 v -8.331 c 0,-0.853 -0.326,-1.705 -0.978,-2.358 -0.646,-0.648 -1.501,-0.976 -2.355,-0.976 z"
         fill="#5E889E"
         id="path12"
         style="fill:#ffffff;fill-opacity:1;stroke:none;stroke-opacity:1" /></g></g><g
     inkscape:groupmode="layer"
     id="layer2"
     inkscape:label="Text"
     transform="translate(0,-3.096)"><text
       xml:space="preserve"
       style="font-size:64px;line-height:1.25;font-family:Raleway;-inkscape-font-specification:Raleway;fill:#ffffff"
       x="27.752035"
       y="251.25935"
       id="text11651"><tspan
         sodipodi:role="line"
         id="tspan11649"
         x="27.752035"
         y="251.25935"
         style="font-style:normal;font-variant:normal;font-weight:normal;font-stretch:normal;font-size:64px;font-family:'American Captain';-inkscape-font-specification:'American Captain'">COMPANY</tspan></text></g></svg>
