<?xml version="1.0" encoding="UTF-8" standalone="no"?>
<svg
   height="64"
   preserveAspectRatio="xMidYMid"
   viewBox="0 0 64 64"
   width="64"
   version="1.1"
   id="svg14"
   sodipodi:docname="PDF.svg"
   inkscape:version="1.1.2 (b8e25be833, 2022-02-05)"
   xmlns:inkscape="http://www.inkscape.org/namespaces/inkscape"
   xmlns:sodipodi="http://sodipodi.sourceforge.net/DTD/sodipodi-0.dtd"
   xmlns="http://www.w3.org/2000/svg"
   xmlns:svg="http://www.w3.org/2000/svg">
  <sodipodi:namedview
     id="namedview16"
     pagecolor="#505050"
     bordercolor="#eeeeee"
     borderopacity="1"
     inkscape:pageshadow="0"
     inkscape:pageopacity="0"
     inkscape:pagecheckerboard="0"
     showgrid="false"
     inkscape:zoom="13.640625"
     inkscape:cx="24.595647"
     inkscape:cy="31.963345"
     inkscape:window-width="2560"
     inkscape:window-height="1369"
     inkscape:window-x="-8"
     inkscape:window-y="-8"
     inkscape:window-maximized="1"
     inkscape:current-layer="g12" />
  <defs
     id="defs4">
    <style
       id="style2">
      .cls-1 {
        fill: #cb0606;
      }

      .cls-1, .cls-2, .cls-3 {
        fill-rule: evenodd;
      }

      .cls-2 {
        fill: #fb8d8d;
      }

      .cls-3 {
        fill: #fff;
      }
    </style>
  </defs>
  <g
     id="g12">
    <path
       class="cls-1"
       d="M 56.5,16.842 V 58.947 C 56.5,61.738 54.23,64 51.431,64 H 12.569 C 9.769,64 7.5,61.738 7.5,58.947 V 5.053 C 7.5,2.262 9.769,0 12.569,0 h 27.034 z"
       id="path6" />
    <path
       class="cls-2"
       d="m 56.5,15.899 v 2.096 H 42.687 c -2.86,0 -4.179,-2.32 -4.179,-5.181 V 0 H 40.6 Z"
       id="path8" />
    <g
       aria-label="PDF"
       id="text2441"
       style="font-size:26.6667px;line-height:1.25;font-family:'Passion One';-inkscape-font-specification:'Passion One'">
      <path
         d="m 19.893321,45.830648 h -1.226668 v 5.41334 H 14.186647 V 34.683967 h 5.41334 q 2.853337,0 4.240006,1.306668 1.386668,1.306669 1.386668,4.293339 0,2.986671 -1.306668,4.266672 -1.306669,1.280002 -4.026672,1.280002 z m 0.506667,-3.600005 q 0.240001,-0.453334 0.240001,-1.626668 0,-1.173335 -0.266667,-1.653336 -0.266667,-0.48 -1.066668,-0.48 h -0.640001 v 4.213338 h 0.746667 q 0.746668,0 0.986668,-0.453334 z"
         style="fill:#ffffff"
         id="path1544" />
      <path
         d="m 38.88003,42.603977 q 0,8.640011 -6.826675,8.640011 H 26.560014 V 34.683967 h 5.600008 q 3.653337,0 5.173339,2.053336 1.546669,2.026669 1.546669,5.866674 z m -6.906675,4.800006 q 1.413335,0 1.813335,-0.986668 0.426667,-1.013334 0.426667,-3.360004 0,-2.373336 -0.453333,-3.360004 -0.426668,-0.986668 -1.866669,-0.986668 h -0.800001 v 8.693344 z"
         style="fill:#ffffff"
         id="path1546" />
      <path
         d="m 49.546687,38.763972 h -4.400006 v 2.480003 h 3.546671 v 3.520005 h -3.546671 v 6.480008 H 40.586675 V 34.683967 h 9.226679 z"
         style="fill:#ffffff"
         id="path1548" />
    </g>
  </g>
</svg>
