<?xml version="1.0" encoding="UTF-8" standalone="no"?>
<svg
   id="solid"
   viewBox="0 0 550 550"
   version="1.1"
   sodipodi:docname="Science.svg"
   width="550"
   height="550"
   inkscape:version="1.1.2 (b8e25be833, 2022-02-05)"
   xmlns:inkscape="http://www.inkscape.org/namespaces/inkscape"
   xmlns:sodipodi="http://sodipodi.sourceforge.net/DTD/sodipodi-0.dtd"
   xmlns="http://www.w3.org/2000/svg"
   xmlns:svg="http://www.w3.org/2000/svg">
  <defs
     id="defs9" />
  <sodipodi:namedview
     id="namedview7"
     pagecolor="#505050"
     bordercolor="#eeeeee"
     borderopacity="1"
     inkscape:pageshadow="0"
     inkscape:pageopacity="0"
     inkscape:pagecheckerboard="0"
     showgrid="false"
     inkscape:zoom="0.85253906"
     inkscape:cx="-60.407789"
     inkscape:cy="228.72852"
     inkscape:window-width="2560"
     inkscape:window-height="1369"
     inkscape:window-x="-8"
     inkscape:window-y="-8"
     inkscape:window-maximized="1"
     inkscape:current-layer="solid" />
  <title
     id="title2" />
  <path
     d="m 208.8926,228.93317 a 8,8 0 0 1 0,-11.314 l 22.627,-22.628 a 8,8 0 0 1 11.313,0 l 33.941,33.941 a 8,8 0 0 1 0,11.315 l -22.627,22.627 a 8,8 0 0 1 -11.314,0 z m 260.215,-181.017998 -28.284,28.282 16.97,16.971 a 8,8 0 0 1 0,11.313998 l -44.58,44.58 a 49.754,49.754 0 0 1 4,51.323 168.079,168.079 0 0 1 4.835,39.93 c 0,72.728 -46.6,134.768 -111.5,157.861 v 18.139 h 80 a 40.046,40.046 0 0 1 40,40 v 16 a 8,8 0 0 1 -8,8 H 86.548604 a 8,8 0 0 1 -8,-8 v -16 a 40.045,40.045 0 0 1 39.999996,-40 h 80 v -40 a 55.722,55.722 0 0 1 3.257,-18.8 L 96.892604,252.59917 a 8,8 0 0 1 0,-11.314 l 22.626996,-22.627 a 8,8 0 0 1 11.313,0 l 104.915,104.914 a 55.893,55.893 0 0 1 58.578,13.37 104.406,104.406 0 0 0 63.628,-111.652 49.233,49.233 0 0 1 -13.972,-7 l -21.5,21.5 a 8,8 0 0 1 -11.314,0 l -79.195,-79.2 a 8,8 0 0 1 0,-11.314 L 367.2836,13.971172 a 8,8 0 0 1 11.315,0 l 16.97,16.97 28.284,-28.2830001 a 8,8 0 0 1 11.314,0 l 33.941,33.9410001 a 8,8 0 0 1 0,11.315 z m -78.978,112.912998 a 24.311,24.311 0 1 0 0,34.385 24.309,24.309 0 0 0 0,-34.385 z m -111.581,215.487 a 24,24 0 1 0 -24,24 24.027,24.027 0 0 0 24,-24 z"
     style="fill:#ffffff"
     id="path4" />
  <g
     aria-label="PUBLICATION"
     id="text1924"
     style="font-size:85.3333px;line-height:1.25;font-family:'Passion One';-inkscape-font-specification:'Passion One'">
    <path
       d="m 91.490783,525.32468 h -3.925331 v 17.32266 H 73.229458 v -52.99198 h 17.322659 q 9.130663,0 13.567993,4.18133 4.43733,4.18133 4.43733,13.73866 0,9.55733 -4.18133,13.65333 -4.18133,4.096 -12.885327,4.096 z m 1.621333,-11.52 q 0.768,-1.45066 0.768,-5.20533 0,-3.75466 -0.853333,-5.29066 -0.853333,-1.536 -3.413332,-1.536 h -2.047999 v 13.48266 h 2.389332 q 2.389332,0 3.157332,-1.45067 z"
       style="fill:#ffffff"
       id="path1087" />
    <path
       d="m 127.7575,525.23935 q 0,2.64533 1.10933,3.92533 1.10933,1.28 3.584,1.28 2.56,0 3.49866,-1.19467 1.024,-1.28 1.024,-4.096 v -35.49865 h 14.67733 v 36.35199 q 0,9.13066 -5.03467,13.31199 -4.94933,4.18133 -14.67732,4.18133 -9.64267,0 -14.42133,-4.096 -4.69333,-4.18133 -4.69333,-13.22666 v -36.52265 h 14.93333 z"
       style="fill:#ffffff"
       id="path1089" />
    <path
       d="m 196.45074,527.37268 q 0,15.27466 -16.38399,15.27466 h -20.90666 v -52.99198 h 20.47999 q 8.10667,0 12.032,3.328 3.92533,3.24266 3.92533,10.41066 0,7.168 -5.888,10.92266 v 0.512 q 6.74133,2.64534 6.74133,12.544 z m -19.79732,5.80266 q 2.56,0 3.41333,-1.10933 0.93867,-1.19467 0.93867,-4.77866 0,-3.66934 -0.93867,-5.12 -0.93867,-1.536 -3.41333,-1.536 h -2.73067 v 12.54399 z m 0.0853,-20.82132 q 1.96267,0 2.73067,-1.19467 0.768,-1.19466 0.768,-4.18133 0,-3.072 -0.85334,-4.26666 -0.768,-1.28 -2.73066,-1.28 h -2.73067 v 10.92266 z"
       style="fill:#ffffff"
       id="path1091" />
    <path
       d="m 228.36546,542.64734 h -26.96532 v -52.99198 h 14.592 v 41.13065 h 13.22666 z"
       style="fill:#ffffff"
       id="path1093" />
    <path
       d="m 247.65075,542.64734 h -14.50666 v -52.99198 h 14.50666 z"
       style="fill:#ffffff"
       id="path1095" />
    <path
       d="m 269.15472,516.70602 q 0,7.50933 1.45067,10.75199 1.536,3.15733 4.94933,3.15733 3.41333,0 9.64266,-1.62133 l 2.21867,12.032 q -6.74133,2.47466 -13.568,2.47466 -10.23999,0 -14.93332,-6.74133 -4.608,-6.82666 -4.608,-20.22399 0,-13.48266 4.864,-20.56532 4.86399,-7.168 15.87199,-7.168 6.48533,0 12.37333,2.73066 l -2.304,13.22666 q -6.656,-2.21866 -9.30133,-2.21866 -3.75467,0 -5.20533,3.328 -1.45067,3.24266 -1.45067,10.83733 z"
       style="fill:#ffffff"
       id="path1097" />
    <path
       d="m 329.05869,542.64734 h -14.25066 l -1.62133,-8.36266 h -10.06933 l -1.62133,8.36266 h -13.568 l 9.728,-52.99198 h 21.67466 z m -17.49332,-18.34666 -2.98667,-18.94399 h -0.59733 l -2.98667,18.94399 z"
       style="fill:#ffffff"
       id="path1099" />
    <path
       d="m 364.30129,502.54069 h -9.89866 v 40.10665 h -14.592 v -40.10665 h -10.49599 l 0.85333,-12.88533 h 34.98665 z"
       style="fill:#ffffff"
       id="path1101" />
    <path
       d="m 383.84259,542.64734 h -14.50666 v -52.99198 h 14.50666 z"
       style="fill:#ffffff"
       id="path1103" />
    <path
       d="m 395.36259,495.20203 q 4.94933,-6.4 16.12799,-6.4 11.17866,0 15.95733,6.31466 4.864,6.31467 4.864,20.56533 0,14.16532 -4.94933,20.99199 -4.94934,6.82666 -16.04266,6.82666 -11.09333,0 -15.95733,-6.74133 -4.864,-6.74133 -4.864,-20.90666 0,-14.25066 4.864,-20.65065 z m 22.27199,20.47999 q 0,-7.85067 -1.28,-10.58133 -1.19467,-2.816 -5.03466,-2.816 -3.75467,0 -4.864,2.816 -1.10934,2.73066 -1.10934,10.49599 v 2.048 q 0,8.27733 1.19467,10.92266 1.28,2.56 5.03467,2.56 3.83999,0 4.94933,-2.47466 1.10933,-2.47467 1.10933,-10.24 z"
       style="fill:#ffffff"
       id="path1105" />
    <path
       d="m 476.77054,542.64734 h -13.99466 l -11.00799,-24.66132 h -0.68267 v 24.66132 h -12.97066 v -52.99198 h 14.42133 l 10.49599,25.42932 h 0.68267 v -25.42932 h 13.05599 z"
       style="fill:#ffffff"
       id="path1107" />
  </g>
</svg>
