<?xml version="1.0" encoding="UTF-8" standalone="no"?>
<svg
   data-name="Layer 1"
   id="Layer_1"
   viewBox="0 0 300.87949 300.8795"
   version="1.1"
   sodipodi:docname="Skills-GitLab.svg"
   width="300.87949"
   height="300.87949"
   inkscape:version="1.1.2 (b8e25be833, 2022-02-05)"
   xmlns:inkscape="http://www.inkscape.org/namespaces/inkscape"
   xmlns:sodipodi="http://sodipodi.sourceforge.net/DTD/sodipodi-0.dtd"
   xmlns="http://www.w3.org/2000/svg"
   xmlns:svg="http://www.w3.org/2000/svg">
  <sodipodi:namedview
     id="namedview40"
     pagecolor="#505050"
     bordercolor="#eeeeee"
     borderopacity="1"
     inkscape:pageshadow="0"
     inkscape:pageopacity="0"
     inkscape:pagecheckerboard="0"
     showgrid="false"
     inkscape:zoom="1.717287"
     inkscape:cx="155.76895"
     inkscape:cy="156.64242"
     inkscape:window-width="2560"
     inkscape:window-height="1369"
     inkscape:window-x="-8"
     inkscape:window-y="-8"
     inkscape:window-maximized="1"
     inkscape:current-layer="Layer_1" />
  <defs
     id="defs9">
    <style
       id="style2">.cls-1{fill:#fff;}.cls-2{fill:#fafafa;fill-rule:evenodd;}.cls-3{mask:url(#mask);}.cls-4{fill:#fc6d26;}.cls-5{fill:#e24329;}.cls-6{fill:#fca326;}</style>
    <mask
       height="716.8"
       id="mask"
       maskUnits="userSpaceOnUse"
       width="1221.81"
       x="-121.52"
       y="-122.64">
      <g
         transform="translate(-1.83,-1.82)"
         id="g6">
        <g
           id="mask-2">
          <path
             class="cls-1"
             d="M -119.69,-120.82 H 1102.13 V 596 H -119.69 v -716.8 z"
             id="path-1" />
        </g>
      </g>
    </mask>
  </defs>
  <title
     id="title11" />
  <g
     id="Page-1"
     transform="translate(-98.170257,-85.332166)">
    <g
       data-name="gitlab logo"
       id="gitlab_logo">
      <g
         id="g10">
        <g
           id="g16">
          <g
             id="g18-Clipped">
            <g
               class="cls-3"
               mask="url(#mask)"
               id="g32">
              <g
                 id="g18">
                <g
                   id="g44">
                  <path
                     class="cls-4"
                     d="M 400.32,257.47 383.48,205.66 350.11,103 a 5.74,5.74 0 0 0 -10.91,0 L 305.84,205.65 H 195 L 161.67,103 a 5.74,5.74 0 0 0 -10.91,0 l -33.36,102.65 -16.83,51.81 a 11.47,11.47 0 0 0 4.17,12.82 l 145.7,105.88 145.71,-105.87 a 11.47,11.47 0 0 0 4.17,-12.82"
                     id="path46"
                     transform="translate(-1.83,-1.82)" />
                </g>
                <g
                   id="g48">
                  <path
                     class="cls-5"
                     d="m 250.44,376.16 v 0 l 55.4,-170.5 H 195 l 55.4,170.5 z"
                     id="path50"
                     transform="translate(-1.83,-1.82)" />
                </g>
                <g
                   id="g56">
                  <path
                     class="cls-4"
                     d="M 250.44,376.16 195,205.65 h -77.6 l 133,170.5 z"
                     id="path58"
                     transform="translate(-1.83,-1.82)" />
                </g>
                <g
                   id="g64">
                  <path
                     class="cls-6"
                     d="m 117.4,205.65 v 0 l -16.84,51.81 a 11.47,11.47 0 0 0 4.17,12.82 l 145.71,105.88 -133,-170.5 z"
                     id="path66"
                     transform="translate(-1.83,-1.82)" />
                </g>
                <g
                   id="g72">
                  <path
                     class="cls-5"
                     d="M 117.4,205.65 H 195 L 161.67,103 a 5.73,5.73 0 0 0 -10.91,0 z"
                     id="path74"
                     transform="translate(-1.83,-1.82)" />
                </g>
                <g
                   id="g76">
                  <path
                     class="cls-4"
                     d="m 250.44,376.16 55.4,-170.5 h 77.64 l -133,170.5 z"
                     id="path78"
                     transform="translate(-1.83,-1.82)" />
                </g>
                <g
                   id="g80">
                  <path
                     class="cls-6"
                     d="m 383.48,205.65 v 0 l 16.84,51.81 a 11.47,11.47 0 0 1 -4.17,12.82 l -145.71,105.88 133,-170.5 z"
                     id="path82"
                     transform="translate(-1.83,-1.82)" />
                </g>
                <g
                   id="g84">
                  <path
                     class="cls-5"
                     d="M 383.48,205.65 H 305.84 L 339.21,103 a 5.73,5.73 0 0 1 10.91,0 l 33.37,102.69 z"
                     id="path86"
                     transform="translate(-1.83,-1.82)" />
                </g>
              </g>
            </g>
          </g>
        </g>
      </g>
    </g>
  </g>
</svg>
