<?xml version="1.0" encoding="UTF-8" standalone="no"?>
<svg
   height="448"
   viewBox="0 0 448 448"
   width="448"
   version="1.1"
   id="svg6"
   sodipodi:docname="Skills-JavaScript.svg"
   inkscape:version="1.1.2 (b8e25be833, 2022-02-05)"
   xmlns:inkscape="http://www.inkscape.org/namespaces/inkscape"
   xmlns:sodipodi="http://sodipodi.sourceforge.net/DTD/sodipodi-0.dtd"
   xmlns="http://www.w3.org/2000/svg"
   xmlns:svg="http://www.w3.org/2000/svg">
  <defs
     id="defs10" />
  <sodipodi:namedview
     id="namedview8"
     pagecolor="#505050"
     bordercolor="#eeeeee"
     borderopacity="1"
     inkscape:pageshadow="0"
     inkscape:pageopacity="0"
     inkscape:pagecheckerboard="0"
     showgrid="false"
     inkscape:zoom="0.85253906"
     inkscape:cx="153.07216"
     inkscape:cy="107.91294"
     inkscape:window-width="2560"
     inkscape:window-height="1369"
     inkscape:window-x="-8"
     inkscape:window-y="-8"
     inkscape:window-maximized="1"
     inkscape:current-layer="layer1" />
  <title
     id="title2" />
  <g
     inkscape:groupmode="layer"
     id="layer1"
     inkscape:label="Layer 1"
     transform="translate(-32,-32)">
    <path
       d="M 32,32 V 480 H 480 V 32 Z m 240,348 c 0,43.61 -25.76,64.87 -63.05,64.87 -33.68,0 -53.23,-17.44 -63.15,-38.49 v 0 l 34.28,-20.75 c 6.61,11.73 11.63,21.65 26.06,21.65 12,0 21.86,-5.41 21.86,-26.46 V 240 h 44 z m 99.35,63.87 c -39.09,0 -64.35,-17.64 -76.68,-42 v 0 L 329,382 c 9,14.74 20.75,24.56 41.5,24.56 17.44,0 27.57,-7.72 27.57,-19.75 0,-14.43 -10.43,-19.54 -29.68,-28 l -10.52,-4.52 c -30.38,-12.92 -50.52,-29.16 -50.52,-63.45 0,-31.57 24.05,-54.63 61.64,-54.63 26.77,0 46,8.32 59.85,32.68 L 396,290 c -7.22,-12.93 -15,-18 -27.06,-18 -12.33,0 -20.15,7.82 -20.15,18 0,12.63 7.82,17.74 25.86,25.56 l 10.52,4.51 c 35.79,15.34 55.94,31 55.94,66.16 0.01,37.9 -29.76,57.64 -69.76,57.64 z"
       id="path4"
       style="fill:#f7e018;fill-opacity:1" />
  </g>
</svg>
