<?xml version="1.0" encoding="UTF-8" standalone="no"?>
<svg
   width="2000"
   height="2000"
   viewBox="0 0 529.16665 529.16668"
   version="1.1"
   id="svg8"
   inkscape:version="1.1.2 (b8e25be833, 2022-02-05)"
   sodipodi:docname="Sigil.svg"
   inkscape:export-filename="C:\Users\tompe\Dropbox\4. Workshop\1. Personal\The Nihilum Order\Exports\Sigil (Transparent).png"
   inkscape:export-xdpi="96"
   inkscape:export-ydpi="96"
   xmlns:inkscape="http://www.inkscape.org/namespaces/inkscape"
   xmlns:sodipodi="http://sodipodi.sourceforge.net/DTD/sodipodi-0.dtd"
   xmlns="http://www.w3.org/2000/svg"
   xmlns:svg="http://www.w3.org/2000/svg"
   xmlns:rdf="http://www.w3.org/1999/02/22-rdf-syntax-ns#"
   xmlns:cc="http://creativecommons.org/ns#"
   xmlns:dc="http://purl.org/dc/elements/1.1/">
  <defs
     id="defs2">
    <rect
       x="122.76667"
       y="434.44583"
       width="30.691668"
       height="30.691668"
       id="rect904" />
    <rect
       x="15.345833"
       y="447.67499"
       width="220.47359"
       height="179.15109"
       id="rect876" />
  </defs>
  <sodipodi:namedview
     id="base"
     pagecolor="#282c34"
     bordercolor="#666666"
     borderopacity="1.0"
     inkscape:pageopacity="0"
     inkscape:pageshadow="2"
     inkscape:zoom="0.41012193"
     inkscape:cx="622.98546"
     inkscape:cy="938.74522"
     inkscape:document-units="px"
     inkscape:current-layer="text1120-8"
     inkscape:document-rotation="0"
     showgrid="false"
     units="px"
     inkscape:pagecheckerboard="false"
     fit-margin-top="0"
     fit-margin-left="0"
     fit-margin-right="0"
     fit-margin-bottom="0"
     inkscape:window-width="2560"
     inkscape:window-height="1369"
     inkscape:window-x="-8"
     inkscape:window-y="-8"
     inkscape:window-maximized="1"
     inkscape:snap-bbox="true"
     inkscape:snap-bbox-midpoints="true" />
  <metadata
     id="metadata5">
    <rdf:RDF>
      <cc:Work
         rdf:about="">
        <dc:format>image/svg+xml</dc:format>
        <dc:type
           rdf:resource="http://purl.org/dc/dcmitype/StillImage" />
      </cc:Work>
    </rdf:RDF>
  </metadata>
  <g
     inkscape:groupmode="layer"
     id="layer11"
     inkscape:label="Background"
     style="display:none"
     sodipodi:insensitive="true">
    <rect
       style="opacity:0.916667;fill:#282c34;fill-opacity:1;stroke-width:0.561181"
       id="rect909"
       width="529.16669"
       height="529.16669"
       x="-1.100586e-05"
       y="-1.100586e-05" />
  </g>
  <g
     inkscape:groupmode="layer"
     id="layer19"
     inkscape:label="Circular Background"
     style="display:none"
     sodipodi:insensitive="true">
    <circle
       style="display:inline;fill:#282c34;fill-opacity:1;stroke:none;stroke-width:4.62439;stroke-miterlimit:4;stroke-dasharray:none;stroke-opacity:1"
       id="circle1143-9"
       cx="264.58334"
       cy="264.58334"
       r="262.27112" />
  </g>
  <g
     inkscape:label="Coat of Arms"
     inkscape:groupmode="layer"
     id="layer1"
     style="display:inline"
     transform="translate(-168.05766,-57.082103)"
     sodipodi:insensitive="true">
    <text
       xml:space="preserve"
       style="font-style:normal;font-variant:normal;font-weight:normal;font-stretch:normal;font-size:19.4032px;line-height:1.25;font-family:Cambria;-inkscape-font-specification:Cambria;letter-spacing:0px;word-spacing:0px;fill:#000000;fill-opacity:1;stroke:none;stroke-width:0.227381"
       x="74.614037"
       y="45.524178"
       id="text835"><tspan
         sodipodi:role="line"
         id="tspan833"
         x="74.614037"
         y="45.524178"
         style="font-style:normal;font-variant:normal;font-weight:normal;font-stretch:normal;font-size:19.4032px;font-family:'American Captain';-inkscape-font-specification:'American Captain';fill:#ffffff;fill-opacity:1;stroke-width:0.227381" /></text>
    <g
       inkscape:label="Background"
       id="layer1-1"
       transform="matrix(2.6453536,0,0,2.6500016,-760.15144,-714.82441)"
       style="display:inline" />
    <g
       id="layer3"
       inkscape:label="Transition (Sunset)"
       transform="matrix(2.6453536,0,0,2.6500016,-760.15144,-714.82441)"
       style="display:inline" />
    <g
       id="g73211"
       transform="matrix(1.0330565,0,0,1.0330565,-14.301616,-10.334585)"
       style="stroke-width:0.968001">
      <g
         id="g863"
         inkscape:label="Start (Dawn)"
         transform="matrix(0.74585447,0,0,0.74716497,166.18381,162.93403)"
         style="display:inline;stroke-width:0.78206">
        <rect
           style="opacity:1;fill:#ffffff;fill-opacity:1;stroke:#ffffff;stroke-width:0.246153;stroke-miterlimit:4;stroke-dasharray:none;stroke-opacity:1"
           id="rect861"
           width="79.060249"
           height="12.939805"
           x="238.3775"
           y="309.59705" />
      </g>
      <g
         id="g867"
         inkscape:label="First Straight (Light)"
         transform="matrix(0.74043024,0,0,0.87456792,167.83509,127.74186)"
         style="display:inline;stroke-width:0.725499">
        <rect
           style="opacity:1;fill:#ffffff;fill-opacity:1;stroke:#ffffff;stroke-width:0.0900456;stroke-miterlimit:4;stroke-dasharray:none;stroke-opacity:1"
           id="rect865"
           width="13.10505"
           height="39.563385"
           x="304.42801"
           y="276.22733" />
      </g>
      <g
         id="layer2"
         inkscape:label="Top Curve (Shadow)"
         transform="matrix(0.74585447,0,0,0.74716497,166.18381,162.93403)"
         style="display:inline;stroke-width:0.78206">
        <path
           id="path1043"
           style="color:#000000;font-style:normal;font-variant:normal;font-weight:normal;font-stretch:normal;font-size:medium;line-height:normal;font-family:sans-serif;font-variant-ligatures:normal;font-variant-position:normal;font-variant-caps:normal;font-variant-numeric:normal;font-variant-alternates:normal;font-variant-east-asian:normal;font-feature-settings:normal;font-variation-settings:normal;text-indent:0;text-align:start;text-decoration:none;text-decoration-line:none;text-decoration-style:solid;text-decoration-color:#000000;letter-spacing:normal;word-spacing:normal;text-transform:none;writing-mode:lr-tb;direction:ltr;text-orientation:mixed;dominant-baseline:auto;baseline-shift:baseline;text-anchor:start;white-space:normal;shape-padding:0;shape-margin:0;inline-size:0;clip-rule:nonzero;display:inline;overflow:visible;visibility:visible;opacity:1;isolation:auto;mix-blend-mode:normal;color-interpolation:sRGB;color-interpolation-filters:linearRGB;solid-color:#000000;solid-opacity:1;vector-effect:none;fill:#ffffff;fill-opacity:1;fill-rule:nonzero;stroke:none;stroke-width:26.1345;stroke-linecap:butt;stroke-linejoin:miter;stroke-miterlimit:4;stroke-dasharray:none;stroke-dashoffset:0;stroke-opacity:1;color-rendering:auto;image-rendering:auto;shape-rendering:auto;text-rendering:auto;enable-background:accumulate;stop-color:#000000;stop-opacity:1"
           d="m 999.94922,525.74219 c -174.06403,10e-6 -315.5293,141.71412 -315.5293,316.08398 0,137.27873 87.69236,254.29513 209.9336,297.87503 v -35.6621 C 790.77249,1062.2281 717.80469,960.69927 717.80469,841.82617 c 0,-156.29384 126.12485,-282.63866 282.14453,-282.63867 156.01968,0 282.13868,126.34483 282.13868,282.63867 0,119.20639 -73.3722,220.97633 -177.4141,262.56833 v 35.6153 c 122.6955,-43.3335 210.8028,-160.57909 210.8028,-298.18363 0,-174.36989 -141.4633,-316.08399 -315.52738,-316.08398 z"
           transform="matrix(0.37734259,0,0,0.37668074,-20.039993,-139.95123)" />
      </g>
      <g
         id="layer6"
         inkscape:label="Second Straight (Twilight)"
         transform="matrix(0.74585447,0,0,0.55131067,166.18381,217.05259)"
         style="display:inline;stroke-width:1.82087">
        <rect
           style="opacity:1;fill:#ffffff;fill-opacity:1;stroke:#ffffff;stroke-width:0.56523;stroke-miterlimit:4;stroke-dasharray:none;stroke-opacity:1"
           id="rect859"
           width="12.918749"
           height="251.04375"
           x="396.80057"
           y="276.3205" />
      </g>
      <g
         id="layer5"
         inkscape:label="End (Dusk)"
         transform="matrix(0.74585447,0,0,0.74716497,165.93998,108.67761)"
         style="display:inline;stroke-width:0.78206">
        <rect
           style="opacity:1;fill:#ffffff;fill-opacity:1;stroke:#ffffff;stroke-width:0.246153;stroke-miterlimit:4;stroke-dasharray:none;stroke-opacity:1"
           id="rect854"
           width="79.060249"
           height="12.939805"
           x="397.12747"
           y="521.23474" />
      </g>
      <path
         sodipodi:type="star"
         style="fill:none;fill-opacity:1;stroke:#ffffff;stroke-width:0.782779;stroke-miterlimit:4;stroke-dasharray:none;stroke-opacity:0.25"
         id="path960"
         sodipodi:sides="6"
         sodipodi:cx="330.76089"
         sodipodi:cy="269.75214"
         sodipodi:r1="168.65807"
         sodipodi:r2="150.56445"
         sodipodi:arg1="0.54148861"
         sodipodi:arg2="1.0650874"
         inkscape:flatsided="true"
         inkscape:rounded="-3.3793645"
         inkscape:randomized="0"
         inkscape:transform-center-x="4.6623294e-06"
         inkscape:transform-center-y="-1.8773214e-05"
         d="m 475.29114,356.68056 c 293.76284,-488.42038 -717.41323,71.50676 -147.54735,81.70265 569.86588,10.1959 -420.633279,-585.5447 -144.53024,-86.92842 276.10303,498.61627 296.77994,-657.05146 3.0171,-168.63108 -293.76284,488.42038 717.41323,-71.50676 147.54735,-81.70265 -569.86588,-10.195895 420.63328,585.5447 144.53024,86.92843 -276.10303,-498.61628 -296.77994,657.05145 -3.0171,168.63107 z"
         transform="matrix(0.74585447,0,0,0.74716497,185.96516,93.743453)" />
      <g
         id="layer7"
         inkscape:label="Orb (Shadow)"
         transform="matrix(0.74585447,0,0,0.74716497,166.18381,162.93403)"
         style="display:inline;stroke-width:0.78206">
        <circle
           style="opacity:1;fill:#ffffff;fill-opacity:1;stroke:#ffffff;stroke-width:0.164072;stroke-miterlimit:4;stroke-dasharray:none;stroke-opacity:1"
           id="path869"
           cx="357.28262"
           cy="177.14798"
           r="52.811768" />
      </g>
      <g
         id="layer8"
         inkscape:label="Orb (Honor)"
         transform="matrix(0.74585447,0,0,0.74716497,166.18381,162.93403)"
         style="display:inline;stroke-width:0.78206">
        <circle
           style="opacity:1;fill:#ffffff;fill-opacity:1;stroke:#ffffff;stroke-width:0.20692;stroke-miterlimit:4;stroke-dasharray:none;stroke-opacity:1"
           id="path871"
           cx="152.23051"
           cy="177.14798"
           r="32.87722" />
      </g>
      <g
         id="g897"
         inkscape:label="Orb (Discipline)"
         transform="matrix(0.74585447,0,0,0.74716497,166.18381,162.93403)"
         style="display:inline;stroke-width:0.78206">
        <circle
           style="opacity:1;fill:#ffffff;fill-opacity:1;stroke:#ffffff;stroke-width:0.20692;stroke-miterlimit:4;stroke-dasharray:none;stroke-opacity:1"
           id="circle895"
           cx="212.42445"
           cy="32.301361"
           r="32.87722" />
      </g>
      <g
         id="g893"
         inkscape:label="Orb (Loyalty)"
         transform="matrix(0.74585447,0,0,0.74716497,166.18381,162.93403)"
         style="display:inline;stroke-width:0.78206">
        <circle
           style="opacity:1;fill:#ffffff;fill-opacity:1;stroke:#ffffff;stroke-width:0.20692;stroke-miterlimit:4;stroke-dasharray:none;stroke-opacity:1"
           id="circle891"
           cx="357.28262"
           cy="-27.967484"
           r="32.87722" />
      </g>
      <g
         id="g889"
         inkscape:label="Orb (Truth)"
         transform="matrix(0.74585447,0,0,0.74716497,166.18381,162.93403)"
         style="display:inline;stroke-width:0.78206">
        <circle
           style="opacity:1;fill:#ffffff;fill-opacity:1;stroke:#ffffff;stroke-width:0.20692;stroke-miterlimit:4;stroke-dasharray:none;stroke-opacity:1"
           id="circle887"
           cx="502.15863"
           cy="32.295681"
           r="32.87722" />
      </g>
      <g
         id="g885"
         inkscape:label="Orb (Sacrifice)"
         transform="matrix(0.74585447,0,0,0.74716497,166.18381,162.93403)"
         style="display:inline;stroke-width:0.78206">
        <circle
           style="opacity:1;fill:#ffffff;fill-opacity:1;stroke:#ffffff;stroke-width:0.20692;stroke-miterlimit:4;stroke-dasharray:none;stroke-opacity:1"
           id="circle883"
           cx="562.2713"
           cy="177.14798"
           r="32.87722" />
      </g>
    </g>
    <g
       id="g966"
       inkscape:label="Text (Shadow | Latin)"
       style="display:none"
       transform="matrix(3.0781678,0,0,3.0835763,-873.66944,-1138.7657)">
      <text
         xml:space="preserve"
         style="font-style:normal;font-variant:normal;font-weight:normal;font-stretch:normal;font-size:28.2222px;line-height:1.25;font-family:'American Captain';-inkscape-font-specification:'American Captain';text-align:center;letter-spacing:0px;word-spacing:0px;text-anchor:middle;fill:#000000;fill-opacity:1;stroke:none;stroke-width:0.264583"
         x="330.47864"
         y="279.9827"
         id="text964"><tspan
           sodipodi:role="line"
           id="tspan962"
           x="330.47864"
           y="279.9827"
           style="font-style:normal;font-variant:normal;font-weight:normal;font-stretch:normal;font-size:28.2222px;font-family:'American Captain';-inkscape-font-specification:'American Captain';text-align:center;text-anchor:middle;stroke-width:0.264583">Umbra</tspan></text>
    </g>
    <g
       id="g972"
       inkscape:label="Text (Honor | Latin)"
       style="display:none"
       transform="matrix(3.0781678,0,0,3.0835763,-873.66944,-1138.7657)">
      <text
         xml:space="preserve"
         style="font-style:normal;font-variant:normal;font-weight:normal;font-stretch:normal;font-size:17.6389px;line-height:1.25;font-family:'American Captain';-inkscape-font-specification:'American Captain';text-align:center;letter-spacing:0px;word-spacing:0px;text-anchor:middle;fill:#000000;fill-opacity:1;stroke:none;stroke-width:0.264583"
         x="125.62939"
         y="276.14624"
         id="text970"><tspan
           sodipodi:role="line"
           id="tspan968"
           x="125.62939"
           y="276.14624"
           style="font-style:normal;font-variant:normal;font-weight:normal;font-stretch:normal;font-size:17.6389px;font-family:'American Captain';-inkscape-font-specification:'American Captain';text-align:center;text-anchor:middle;stroke-width:0.264583">Honor</tspan></text>
    </g>
    <g
       id="g978"
       inkscape:label="Text (Discipline | Latin)"
       style="display:none"
       transform="matrix(3.0781678,0,0,3.0835763,-873.66944,-1138.7657)">
      <text
         xml:space="preserve"
         style="font-style:normal;font-variant:normal;font-weight:normal;font-stretch:normal;font-size:17.6389px;line-height:1.25;font-family:'American Captain';-inkscape-font-specification:'American Captain';text-align:center;letter-spacing:0px;word-spacing:0px;text-anchor:middle;fill:#000000;fill-opacity:1;stroke:none;stroke-width:0.264583"
         x="185.81451"
         y="131.29962"
         id="text976"><tspan
           sodipodi:role="line"
           id="tspan974"
           x="185.81451"
           y="131.29962"
           style="font-style:normal;font-variant:normal;font-weight:normal;font-stretch:normal;font-size:17.6389px;font-family:'American Captain';-inkscape-font-specification:'American Captain';text-align:center;text-anchor:middle;stroke-width:0.264583">Disciplina</tspan></text>
    </g>
    <g
       id="g984"
       inkscape:label="Text (Loyalty | Latin)"
       style="display:none"
       transform="matrix(3.0781678,0,0,3.0835763,-873.66944,-1138.7657)">
      <text
         xml:space="preserve"
         style="font-style:normal;font-variant:normal;font-weight:normal;font-stretch:normal;font-size:17.6389px;line-height:1.25;font-family:'American Captain';-inkscape-font-specification:'American Captain';text-align:center;letter-spacing:0px;word-spacing:0px;text-anchor:middle;fill:#000000;fill-opacity:1;stroke:none;stroke-width:0.264583"
         x="330.58447"
         y="71.030785"
         id="text982"><tspan
           sodipodi:role="line"
           id="tspan980"
           x="330.58447"
           y="71.030785"
           style="font-style:normal;font-variant:normal;font-weight:normal;font-stretch:normal;font-size:17.6389px;font-family:'American Captain';-inkscape-font-specification:'American Captain';text-align:center;text-anchor:middle;stroke-width:0.264583">Fidelitas</tspan></text>
    </g>
    <g
       id="g990"
       inkscape:label="Text (Truth | Latin)"
       style="display:none"
       transform="matrix(3.0781678,0,0,3.0835763,-873.66944,-1138.7657)">
      <text
         xml:space="preserve"
         style="font-style:normal;font-variant:normal;font-weight:normal;font-stretch:normal;font-size:17.6389px;line-height:1.25;font-family:'American Captain';-inkscape-font-specification:'American Captain';text-align:center;letter-spacing:0px;word-spacing:0px;text-anchor:middle;fill:#000000;fill-opacity:1;stroke:none;stroke-width:0.264583"
         x="475.81326"
         y="131.29395"
         id="text988"><tspan
           sodipodi:role="line"
           id="tspan986"
           x="475.81326"
           y="131.29395"
           style="font-style:normal;font-variant:normal;font-weight:normal;font-stretch:normal;font-size:17.6389px;font-family:'American Captain';-inkscape-font-specification:'American Captain';text-align:center;text-anchor:middle;stroke-width:0.264583">Veritas</tspan></text>
    </g>
    <g
       id="g996"
       inkscape:label="Text (Sacrifice | Latin)"
       style="display:none"
       transform="matrix(3.0781678,0,0,3.0835763,-873.66944,-1138.7657)">
      <text
         xml:space="preserve"
         style="font-style:normal;font-variant:normal;font-weight:normal;font-stretch:normal;font-size:15.875px;line-height:1.25;font-family:'American Captain';-inkscape-font-specification:'American Captain';text-align:center;letter-spacing:0px;word-spacing:0px;text-anchor:middle;fill:#000000;fill-opacity:1;stroke:none;stroke-width:0.264583"
         x="535.66138"
         y="276.14624"
         id="text994"><tspan
           sodipodi:role="line"
           id="tspan992"
           x="535.66138"
           y="276.14624"
           style="font-style:normal;font-variant:normal;font-weight:normal;font-stretch:normal;font-size:15.875px;font-family:'American Captain';-inkscape-font-specification:'American Captain';text-align:center;text-anchor:middle;stroke-width:0.264583">Sacrificium</tspan></text>
    </g>
    <g
       id="layer12"
       inkscape:label="Circular Orbit Measure"
       transform="matrix(3.0781678,0,0,3.0835763,-955.3078,-853.21369)"
       style="display:none">
      <circle
         style="opacity:1;fill:none;fill-opacity:1;stroke:#ffffff;stroke-width:0.264583;stroke-miterlimit:4;stroke-dasharray:none;stroke-opacity:1"
         id="path900"
         cx="357.28262"
         cy="177.14798"
         r="171.91116" />
    </g>
    <g
       id="layer13"
       inkscape:label="Square Orbit Measure"
       style="display:none"
       transform="matrix(3.0781678,0,0,3.0835763,-873.66944,-1138.7657)">
      <rect
         style="opacity:1;fill:none;fill-opacity:1;stroke:#ffffff;stroke-width:0.264583;stroke-miterlimit:4;stroke-dasharray:none;stroke-opacity:1"
         id="rect903"
         width="243.11902"
         height="243.11902"
         x="209.20137"
         y="148.19264" />
    </g>
    <g
       id="layer10"
       inkscape:label="Straight Measure"
       style="display:none"
       transform="matrix(3.0781678,0,0,3.0835763,-955.3078,-853.21369)">
      <rect
         style="opacity:1;fill:#ffffff;fill-opacity:1;stroke:#ffffff;stroke-width:0.0915019;stroke-miterlimit:4;stroke-dasharray:none;stroke-opacity:1"
         id="rect874"
         width="5.2001648"
         height="118.971"
         x="354.65082"
         y="5.3069549" />
    </g>
    <g
       id="g909"
       inkscape:label="Square Measure"
       style="display:none"
       transform="matrix(3.0781678,0,0,3.0835763,-873.66944,-1138.7657)">
      <rect
         style="opacity:1;fill:none;fill-opacity:1;stroke:#ffffff;stroke-width:0.264583;stroke-miterlimit:4;stroke-dasharray:none;stroke-opacity:1"
         id="rect907"
         width="243.11902"
         height="243.11902"
         x="209.20137"
         y="148.19264" />
      <rect
         style="opacity:1;fill:none;fill-opacity:1;stroke:#ffffff;stroke-width:0.264583;stroke-miterlimit:4;stroke-dasharray:none;stroke-opacity:1"
         id="rect913"
         width="9.5779171"
         height="9.5779171"
         x="442.74246"
         y="148.19264" />
    </g>
    <g
       id="layer14"
       inkscape:label="Text Blocker Top"
       style="display:none"
       transform="matrix(3.0781678,0,0,3.0835763,-873.66944,-1138.7657)">
      <rect
         style="fill:#ffffff;stroke:#ffffff;stroke-width:0.208237"
         id="rect885-0"
         width="198.22926"
         height="26.250095"
         x="171.79025"
         y="415.4025" />
    </g>
    <g
       id="layer15"
       inkscape:label="Text Blocker Side"
       style="display:none"
       transform="matrix(3.0781678,0,0,3.0835763,-873.66944,-1138.7657)">
      <rect
         style="fill:#ffffff;stroke:#ffffff;stroke-width:0.208237"
         id="rect885"
         width="26.250097"
         height="198.22926"
         x="343.76941"
         y="415.89682" />
    </g>
  </g>
  <g
     inkscape:groupmode="layer"
     id="g2405"
     inkscape:label="Inner Path"
     style="display:inline"
     transform="translate(-168.05766,-57.082103)"
     sodipodi:insensitive="true">
    <circle
       style="fill:none;fill-opacity:0.839357;stroke:#ffffff;stroke-width:5.29167;stroke-miterlimit:4;stroke-dasharray:none;stroke-opacity:1"
       id="circle2403"
       cx="432.64099"
       cy="321.66544"
       r="230.99391" />
  </g>
  <g
     inkscape:groupmode="layer"
     id="g1145"
     inkscape:label="Outer Path"
     style="display:inline"
     transform="translate(-168.05766,-57.082103)"
     sodipodi:insensitive="true">
    <circle
       style="fill:none;fill-opacity:0.839357;stroke:#ffffff;stroke-width:5.29167;stroke-miterlimit:4;stroke-dasharray:none;stroke-opacity:1"
       id="circle1143"
       cx="432.64096"
       cy="321.66547"
       r="262.27112" />
  </g>
  <g
     inkscape:groupmode="layer"
     id="layer16"
     inkscape:label="Motto Curve"
     style="display:none"
     sodipodi:insensitive="true">
    <circle
       style="display:inline;fill:none;fill-opacity:0.839357;stroke:#9240ff;stroke-width:0.264583;stroke-miterlimit:4;stroke-dasharray:none;stroke-opacity:1"
       id="circle2403-1"
       cx="264.58334"
       cy="264.58334"
       r="235.85249" />
  </g>
  <g
     inkscape:groupmode="layer"
     id="layer18"
     inkscape:label="Motto"
     style="display:inline"
     transform="translate(-168.05766,-57.082103)">
    <g
       aria-label="MEMENTO VIVERE·SCIENTIAE FIDIMUS·VERITAS TE LIBERABIT·CARO INFIRMA EST·MACHINA IMMORTALIS EST·DEUS EX MACHINA·"
       transform="rotate(-60,398.0732,147.56589)"
       id="text1120-8"
       style="font-size:31.75px;line-height:1.25;font-family:'Passion One';-inkscape-font-specification:'Passion One';letter-spacing:0px;word-spacing:0px;fill:#ffffff;fill-opacity:0.184314;stroke-width:0.815146">
      <path
         d="m 499.75516,285.04869 0.22556,-4.97965 10.27646,0.46549 0.0129,-0.28546 -10.1917,-2.33682 0.23131,-5.10651 10.35692,-1.31069 0.0144,-0.31718 -10.27647,-0.46548 0.22269,-4.91621 19.66638,1.55825 -0.32325,7.13643 -10.73753,1.29345 -0.0115,0.25374 10.57949,2.19547 -0.31895,7.04128 z"
         id="path4047" />
      <path
         d="m 498.12229,298.2299 1.25483,-10.59394 19.57988,2.31919 -1.29218,10.90924 -4.78668,-0.88669 0.61621,-5.20239 -2.93225,-0.34731 -0.53405,4.50873 -4.1619,-0.49297 0.53404,-4.50873 -3.24754,-0.38467 -0.65356,5.51768 z"
         id="path4049" />
      <path
         d="m 494.30088,319.12487 0.94734,-4.89391 10.09952,1.95504 0.0543,-0.28054 -9.7435,-3.79415 0.97148,-5.01858 10.43742,0.20943 0.0603,-0.31171 -10.09951,-1.95503 0.93528,-4.83156 19.23069,4.40174 -1.35767,7.01356 -10.81147,-0.28185 -0.0483,0.24937 10.14774,3.7107 -1.33956,6.92003 z"
         id="path4051" />
      <path
         d="m 490.75351,331.92454 2.79235,-10.29606 19.02934,5.16087 -2.87546,10.60249 -4.60528,-1.57795 1.37124,-5.0561 -2.8498,-0.77288 -1.18841,4.38195 -4.04489,-1.09699 1.18842,-4.38196 -3.15624,-0.85599 -1.45435,5.36253 z"
         id="path4053" />
      <path
         d="m 485.52168,347.61905 1.68208,-4.92783 10.00689,-0.912 0.0821,-0.24038 -8.68379,-2.96415 1.559,-4.56726 18.65963,6.36934 -1.73336,5.07806 -10.21578,0.63941 -0.082,0.24038 8.95422,3.05646 -1.56926,4.5973 z"
         id="path4055" />
      <path
         d="m 493.85887,366.51914 1.41186,-3.40163 -13.7825,-5.72047 2.08128,-5.01448 13.7825,5.72046 1.49705,-3.60691 4.30629,2.1311 -4.99019,12.02303 z"
         id="path4057" />
      <path
         d="m 494.77348,371.08238 q 1.32281,2.704 -0.51457,6.43541 -1.83737,3.73141 -4.73064,4.28861 -2.90728,0.58568 -7.66412,-1.75662 -4.72835,-2.32828 -6.19357,-5.10242 -1.46523,-2.77414 0.35812,-6.47706 1.82335,-3.70292 4.87306,-4.21848 3.04971,-0.51555 7.77806,1.81273 4.75683,2.3423 6.09366,5.01783 z m -10.49689,4.06814 q 2.62053,1.29037 3.7424,1.31194 1.13634,0.0641 1.7675,-1.21771 0.61713,-1.2533 -0.14051,-2.08644 -0.72915,-0.81912 -3.3212,-2.09546 l -0.68361,-0.33662 q -2.76295,-1.3605 -3.84232,-1.39652 -1.06491,0.006 -1.68204,1.25978 -0.63116,1.28178 0.0125,2.05882 0.6437,0.77704 3.23575,2.05339 z"
         id="path4059" />
      <path
         d="m 477.74159,405.82985 -14.98456,-13.24111 4.42545,-7.11852 18.62216,7.38991 -3.16823,5.09621 -11.87958,-5.36652 -0.28497,0.45839 10.28708,7.92811 z"
         id="path4061" />
      <path
         d="m 456.64737,401.52772 3.08692,-4.42763 16.17388,11.27635 -3.08693,4.42763 z"
         id="path4063" />
      <path
         d="m 461.68712,427.45477 -13.51212,-14.74065 5.14812,-6.61474 17.74372,9.30354 -3.68558,4.73555 -11.25075,-6.58367 -0.33151,0.42595 9.3982,8.96397 z"
         id="path4065" />
      <path
         d="m 437.87721,424.67062 7.05219,-8.00455 14.79413,13.03397 -7.26208,8.24278 -3.43504,-3.4495 3.46313,-3.93081 -2.21555,-1.95194 -3.00138,3.4067 -3.14464,-2.77051 3.00138,-3.4067 -2.45378,-2.16183 -3.67302,4.16904 z"
         id="path4067" />
      <path
         d="m 436.4535,445.32623 q -1.26112,-1.25335 -1.71387,-2.46429 -0.45276,-1.21095 -0.32263,-2.6931 l -7.80288,-4.03948 4.14052,-4.16618 6.43208,3.61716 0.51477,-0.51796 -5.04445,-5.01339 3.76004,-3.78334 13.98484,13.89873 -5.19244,5.22461 q -2.23812,2.25199 -4.32609,2.23598 -2.11035,0.007 -4.42989,-2.29874 z m 3.03067,-7.32831 q -0.58192,0.58552 -0.49031,1.16896 0.0916,0.58343 0.96988,1.4563 0.90079,0.89525 1.48478,0.98325 0.60652,0.11038 1.16605,-0.45262 l 0.60429,-0.60804 -3.15278,-3.13336 z"
         id="path4069" />
      <path
         d="m 417.30962,444.40291 7.96082,-7.10152 13.12513,14.7133 -8.19775,7.31287 -2.9968,-3.83637 3.90933,-3.48735 -1.9656,-2.20344 -3.38808,3.02237 -2.78989,-3.12746 3.38809,-3.02238 -2.17695,-2.44037 -4.14626,3.69871 z"
         id="path4071" />
      <path
         d="m 416.05008,457.87304 q -1.77285,-2.20042 0.60063,-4.11271 2.37349,-1.91229 4.14635,0.28813 1.79277,2.22515 -0.58072,4.13744 -2.37349,1.91229 -4.16626,-0.31286 z"
         id="path4073" />
      <path
         d="m 416.33671,463.94313 q 1.65649,2.2893 1.32399,4.64615 -0.33251,2.35685 -2.64753,4.03196 -2.34075,1.69372 -5.1194,2.99888 l -2.46352,-4.48784 q 2.97461,-1.251 3.92634,-1.93966 1.20896,-0.87477 0.50169,-1.85223 -0.27919,-0.38583 -1.10565,-0.33648 -0.85219,0.068 -1.97311,0.252 -1.1023,0.20976 -2.33489,0.23946 -1.21398,0.0554 -2.52436,-0.56401 -1.33611,-0.60081 -2.30395,-1.93838 -1.76817,-2.44364 -1.42416,-4.73043 0.34401,-2.2868 2.76192,-4.03635 2.39219,-1.73094 5.22124,-2.64149 l 2.49029,4.03739 q -3.32929,1.19411 -4.40963,1.97583 -1.08034,0.78172 -0.39169,1.73345 0.35363,0.48872 1.24305,0.4722 0.86369,0.002 1.9846,-0.18194 1.12092,-0.18404 2.36062,-0.25807 1.21398,-0.0554 2.55008,0.54539 1.31039,0.61943 2.33407,2.03417 z"
         id="path4075" />
      <path
         d="m 397.55948,471.96964 q -1.50811,-2.35203 -2.61371,-3.07634 -1.11518,-0.68045 -2.18429,0.005 -1.0691,0.6855 -2.69461,2.44437 l -3.11131,-3.32302 q 1.61449,-2.12897 3.7527,-3.49998 3.20731,-2.05651 6.0312,-0.88759 2.8143,1.21278 5.5049,5.40902 2.70774,4.22296 2.60668,7.4182 -0.0839,3.22196 -3.53178,5.43271 -2.0313,1.30245 -4.42391,1.62966 l -1.93468,-4.60549 q 2.53033,-0.64182 3.35889,-1.17308 1.17602,-0.75406 0.96202,-2.08777 -0.19686,-1.30699 -1.7221,-3.68575 z"
         id="path4077" />
      <path
         d="m 380.46575,471.01465 4.67369,-2.69993 9.86269,17.07271 -4.67368,2.69993 z"
         id="path4079" />
      <path
         d="m 368.25488,477.48017 9.47305,-4.90588 9.06711,17.50822 -9.75498,5.05188 -1.95199,-4.45962 4.65194,-2.40914 -1.35788,-2.622 -4.03168,2.08792 -1.92731,-3.72156 4.03169,-2.08792 -1.50389,-2.90394 -4.93388,2.55515 z"
         id="path4081" />
      <path
         d="m 353.10928,484.26553 4.76721,-2.09442 7.44058,6.75332 0.23255,-0.10217 -3.69077,-8.40075 4.41839,-1.94117 7.93068,18.05144 -4.91255,2.15827 -7.38111,-7.09155 -0.23255,0.10217 3.80571,8.66236 -4.44745,1.95394 z"
         id="path4083" />
      <path
         d="m 344.78016,503.21086 3.46032,-1.26122 -5.11011,-14.02027 5.10099,-1.85921 5.11011,14.02027 3.66913,-1.33733 1.34346,4.61311 -12.23045,4.45775 z"
         id="path4085" />
      <path
         d="m 332.67861,491.33268 5.15186,-1.60974 5.8803,18.81947 -5.15187,1.60974 z"
         id="path4087" />
      <path
         d="m 315.94976,495.79716 5.13714,-1.31289 1.3549,2.86524 3.62983,-0.92767 -0.18597,-3.16398 4.89105,-1.24999 1.37526,19.99899 -7.81337,1.99685 z m 7.99631,5.00205 2.82192,6.55386 0.21533,-0.055 -0.66863,-7.10416 z"
         id="path4089" />
      <path
         d="m 303.79026,498.09548 10.47779,-2.00558 3.70672,19.36519 -10.78962,2.06526 -0.60141,-4.83082 5.14534,-0.98488 -0.55511,-2.9001 -4.4593,0.85356 -0.7879,-4.11627 4.45929,-0.85356 -0.6148,-3.21194 -5.45718,1.04457 z"
         id="path4091" />
      <path
         d="m 285.97551,515.291 5.20843,-0.56284 -0.31724,-2.93566 -4.19831,0.45368 -0.45026,-4.16674 4.1983,-0.45368 -0.8289,-7.6706 5.39782,-0.5833 2.11832,19.60263 -10.92192,1.18025 z"
         id="path4093" />
      <path
         d="m 277.0821,500.95017 5.3867,-0.34132 1.24682,19.67728 -5.38669,0.34132 z"
         id="path4095" />
      <path
         d="m 259.36573,511.61058 q -0.10225,-10.28649 8.02535,-10.36728 l 6.54018,-0.065 0.19598,19.71578 -6.66717,0.0663 q -4.34954,0.0432 -6.1835,-2.3834 -1.86539,-2.39458 -1.91084,-6.96635 z m 8.16604,-5.79646 q -1.68267,0.0167 -2.14722,1.19616 -0.49598,1.21149 -0.46821,4.00535 0.0281,2.82561 0.57949,3.99493 0.51965,1.16965 2.23407,1.15261 l 0.95245,-0.009 -0.10288,-10.34999 z"
         id="path4097" />
      <path
         d="m 251.47772,500.91772 5.39245,0.23344 -0.85275,19.6983 -5.39245,-0.23344 z"
         id="path4099" />
      <path
         d="m 229.33076,498.84915 4.95597,0.53481 -1.10368,10.22762 0.2841,0.0307 2.96612,-10.02664 5.08225,0.54843 0.66405,10.41838 0.31567,0.0341 1.10368,-10.22763 4.89284,0.528 -2.77829,19.53141 -7.10251,-0.76645 -0.62318,-10.79718 -0.25254,-0.0273 -2.84916,10.42247 -7.00781,-0.75622 z"
         id="path4101" />
      <path
         d="m 220.01442,503.66523 q 0.18598,-0.96651 -0.12934,-1.51218 -0.31532,-0.54566 -1.21949,-0.71964 -0.93534,-0.17998 -1.36229,0.19052 -0.46412,0.39568 -0.6621,1.42455 l -2.49574,12.97007 -5.36262,-1.03189 2.55573,-13.28185 q 0.64193,-3.33605 2.7754,-4.50981 2.1023,-1.17976 5.65659,-0.49583 3.52312,0.67792 4.98112,2.51043 1.42083,1.85769 0.78489,5.16256 l -2.56772,13.34421 -5.45616,-1.04989 z"
         id="path4103" />
      <path
         d="m 207.11383,508.49193 q -0.71495,2.73381 -2.74602,3.9748 -2.03107,1.24099 -4.7956,0.51801 -2.79524,-0.73102 -5.56875,-2.04707 l 1.89964,-4.75405 q 2.85621,1.50177 3.99274,1.799 1.4437,0.37756 1.74896,-0.78969 0.1205,-0.46075 -0.44281,-1.06752 -0.59403,-0.6148 -1.44844,-1.36333 -0.86245,-0.71782 -1.66866,-1.65065 -0.81425,-0.90212 -1.16869,-2.30752 -0.38517,-1.41344 0.0326,-3.01073 0.76315,-2.91811 2.74744,-4.1057 1.98428,-1.18759 4.87168,-0.43247 2.85667,0.74708 5.35752,2.35282 l -1.53483,4.48847 q -3.03768,-1.81178 -4.32779,-2.14917 -1.29011,-0.33739 -1.58734,0.79913 -0.15263,0.58363 0.42533,1.25986 0.54724,0.6682 1.40165,1.41673 0.85441,0.74854 1.69938,1.65869 0.81424,0.90211 1.19941,2.31555 0.35444,1.40541 -0.0874,3.09484 z"
         id="path4105" />
      <path
         d="m 186.74381,498.41186 q 0.85725,-2.69258 3.76161,-1.76791 2.90435,0.92468 2.0471,3.61726 -0.86689,2.72283 -3.77124,1.79815 -2.90436,-0.92467 -2.03747,-3.6475 z"
         id="path4107" />
      <path
         d="m 165.72891,501.34316 10.16829,-17.2183 7.827,2.99935 -3.73474,19.68367 -5.60342,-2.14726 3.02302,-12.68012 -0.50401,-0.19314 -5.83955,11.60081 z"
         id="path4109" />
      <path
         d="m 161.41752,477.72632 9.70788,4.42305 -8.17475,17.94223 -9.9968,-4.55469 2.30299,-4.28891 4.76727,2.17203 1.22423,-2.687 -4.13162,-1.88243 1.73762,-3.8138 4.13163,1.88243 1.35588,-2.97593 -5.05619,-2.30367 z"
         id="path4111" />
      <path
         d="m 141.19099,482.33013 q 0.83394,-1.5703 1.86163,-2.35465 1.02769,-0.78436 2.48392,-1.08949 l 1.60402,-8.63884 5.18759,2.75498 -1.59722,7.20448 0.64495,0.34251 3.33575,-6.28119 4.71089,2.50182 -9.24779,17.41346 -6.50551,-3.45489 q -2.8041,-1.48918 -3.39407,-3.49213 -0.61802,-2.01784 0.91584,-4.90606 z m 7.89219,0.7761 q -0.72907,-0.38718 -1.2609,-0.13038 -0.53183,0.25681 -1.1126,1.35041 -0.59568,1.12164 -0.5106,1.70606 0.0702,0.61247 0.77121,0.98476 l 0.7571,0.40208 2.08485,-3.92574 z"
         id="path4113" />
      <path
         d="m 140.70924,466.31019 4.62881,2.77617 -10.14117,16.90878 -4.62881,-2.77617 z"
         id="path4115" />
      <path
         d="m 120.21045,470.75954 3.06747,2.0384 8.25905,-12.42856 4.52188,3.00489 -8.25904,12.42856 3.25258,2.16141 -2.91788,3.81728 -10.84194,-7.2047 z"
         id="path4117" />
      <path
         d="m 115.85925,448.86233 4.22918,3.19811 -1.39557,2.84565 2.98828,2.25974 2.3579,-2.11794 4.02658,3.04491 -14.77935,13.54332 -6.43241,-4.86419 z m 1.07418,9.37057 -3.36502,6.29228 0.17727,0.13406 5.13773,-4.95176 z"
         id="path4119" />
      <path
         d="m 106.27396,458.77096 q -1.84069,2.144 -4.21018,2.3694 -2.369496,0.2254 -4.537587,-1.63597 -2.192181,-1.88205 -4.108448,-4.28044 l 3.790894,-3.44075 q 1.909218,2.60157 2.800541,3.3668 1.13223,0.97205 1.91814,0.0566 0.31023,-0.36135 0.0698,-1.15361 -0.26453,-0.81294 -0.70449,-1.8602 -0.46065,-1.02316 -0.77653,-2.21496 -0.33656,-1.16771 -0.0393,-2.58631 0.27321,-1.43927 1.34866,-2.69195 1.96478,-2.28854 4.26882,-2.48644 2.30404,-0.1979 4.56849,1.74619 2.24036,1.92342 3.78459,4.46271 l -3.34658,3.36189 q -1.93649,-2.95974 -2.94826,-3.82838 -1.01178,-0.86864 -1.77701,0.0227 -0.39295,0.45771 -0.16979,1.31883 0.19906,0.84044 0.63903,1.88769 0.43997,1.04726 0.80062,2.23565 0.33655,1.16771 0.0633,2.60699 -0.2973,1.41859 -1.4348,2.74354 z"
         id="path4121" />
      <path
         d="m 80.774586,436.50367 2.583024,2.62535 10.637205,-10.4657 3.807734,3.87013 -10.637206,10.4657 2.738896,2.78378 -3.64016,3.13606 -9.129653,-9.27926 z"
         id="path4123" />
      <path
         d="m 83.288591,416.83978 7.056838,8.00045 -14.786553,13.04255 -7.266863,-8.23856 3.853089,-2.97528 3.465411,3.9288 2.214412,-1.95323 -3.003357,-3.40496 3.143036,-2.77233 3.003356,3.40496 2.45252,-2.16326 -3.675436,-4.1669 z"
         id="path4125" />
      <path
         d="m 71.695345,401.88111 6.018762,8.02718 -15.77493,11.82801 -3.256989,-4.34382 12.243988,-9.18052 -2.952241,-3.93738 z"
         id="path4127" />
      <path
         d="m 67.640693,395.91558 3.049553,4.45346 -16.268196,11.13984 -3.049553,-4.45346 z"
         id="path4129" />
      <path
         d="m 53.760104,384.44259 q 4.849709,-2.96305 8.02795,2.23888 l 4.055567,6.63787 -16.82497,10.27962 -3.9728,-6.50241 q -1.572567,-2.57386 -1.27738,-4.46574 0.268094,-1.87532 2.543935,-3.2658 2.275842,-1.39048 4.610129,-0.24938 l 0.16256,-0.0993 q -0.46782,-2.65353 2.675009,-4.57372 z m 5.682722,5.16003 q -0.4966,-0.8128 -1.014347,-0.86854 -0.561394,-0.0663 -1.699315,0.62896 -1.165014,0.71179 -1.443514,1.29123 -0.305593,0.59598 0.174453,1.38169 l 0.529707,0.86699 3.982722,-2.43334 z m -6.627331,4.01192 q -0.380727,-0.62315 -0.909014,-0.63524 -0.528286,-0.0121 -1.476554,0.56727 -0.97536,0.59592 -1.189134,1.0986 -0.25742,0.49214 0.123307,1.11529 l 0.529707,0.86699 3.467948,-2.11883 z"
         id="path4131" />
      <path
         d="m 52.733638,370.37412 5.00049,9.42344 -17.416546,9.24198 -5.149315,-9.7039 4.439858,-1.99655 2.455598,4.62758 2.608275,-1.38406 -2.128185,-4.01058 3.702068,-1.96447 2.128184,4.01057 2.888735,-1.53289 -2.604422,-4.90804 z"
         id="path4133" />
      <path
         d="m 33.891773,361.69617 q 1.618229,-0.73662 2.911035,-0.73207 1.292806,0.005 2.63326,0.65022 l 6.537012,-5.87111 2.433495,5.34593 -5.657369,4.73812 0.302543,0.66463 6.472918,-2.94651 2.209876,4.85469 -17.94501,8.16865 -3.051734,-6.70409 q -1.315403,-2.8897 -0.562331,-4.8372 0.739918,-1.97639 3.716305,-3.33126 z m 5.78379,5.42557 q -0.342004,-0.75132 -0.920153,-0.87188 -0.578149,-0.12056 -1.70513,0.39245 -1.155878,0.52616 -1.444638,1.04134 -0.317657,0.52833 0.01119,1.25075 l 0.355159,0.78022 4.045574,-1.84156 z"
         id="path4135" />
      <path
         d="m 40.309318,340.7805 1.867746,4.96239 -2.699567,1.66063 1.319725,3.50636 3.124563,-0.53146 1.778274,4.72468 -19.727972,3.55783 -2.840764,-7.5476 z m -4.095972,8.49614 -6.205274,3.5229 0.07829,0.208 6.988163,-1.44285 z"
         id="path4137" />
      <path
         d="m 30.35455,327.50105 q 5.441654,-1.63943 7.20015,4.19742 l 2.243914,7.44808 -18.878586,5.68763 -2.19812,-7.29607 q -0.87009,-2.88803 -0.105784,-4.64364 0.733905,-1.74644 3.28753,-2.51579 2.553625,-0.76934 4.523198,0.92529 l 0.182402,-0.055 q 0.218861,-2.68555 3.745296,-3.74797 z m 4.19207,6.43007 q -0.274765,-0.91201 -0.761557,-1.09695 -0.526352,-0.20618 -1.803164,0.17849 -1.307213,0.39383 -1.723271,0.88393 -0.446458,0.49927 -0.180852,1.38088 l 0.293083,0.97281 4.468844,-1.34635 z m -7.426832,2.20435 q -0.210653,-0.6992 -0.718687,-0.84458 -0.508034,-0.14538 -1.572044,0.17518 -1.094411,0.32971 -1.428427,0.76194 -0.373575,0.41099 -0.162922,1.11019 l 0.293083,0.97281 3.891238,-1.17233 z"
         id="path4139" />
      <path
         d="m 34.051104,318.45995 1.28404,5.24254 -19.150698,4.69052 -1.28404,-5.24254 z"
         id="path4141" />
      <path
         d="m 16.469281,307.01845 0.708622,3.61419 14.643687,-2.87114 1.044606,5.32781 -14.643686,2.87114 0.751384,3.83228 -4.765762,0.61087 -2.504613,-12.77428 z"
         id="path4143" />
      <path
         d="m 20.283767,296.73927 q 2.797082,-0.4015 3.230153,2.61558 0.433072,3.01708 -2.36401,3.41857 -2.82851,0.40601 -3.261581,-2.61107 -0.433072,-3.01708 2.395438,-3.42308 z"
         id="path4145" />
      <path
         d="m 19.32205,287.65257 q 2.78224,-0.25607 3.934193,-0.90413 1.117426,-0.67676 1.001027,-1.94142 -0.116398,-1.26465 -0.929537,-3.51736 l 4.382249,-1.23233 q 1.146762,2.41331 1.379559,4.94261 0.349195,3.79397 -1.98845,5.76276 -2.372171,1.94008 -7.33594,2.39694 -4.995386,0.45977 -7.785413,-1.10083 -2.8216422,-1.5577 -3.1970275,-5.63621 -0.2211572,-2.40284 0.5897791,-4.67749 l 4.9791054,0.4026 q -0.595048,2.54173 -0.504839,3.52184 0.128038,1.39112 1.410546,1.81511 1.250891,0.4269 4.064748,0.16791 z"
         id="path4147" />
      <path
         d="m 27.785634,264.46363 0.165796,5.29965 -3.091116,0.70025 0.117149,3.74467 3.128842,0.50566 0.157853,5.04578 -19.8202863,-3.00121 -0.2521681,-8.06055 z m -6.61939,6.71901 -7.010306,1.33111 0.0069,0.22214 7.079801,0.89031 z"
         id="path4149" />
      <path
         d="m 14.837411,248.80519 q 1.77695,0.0611 2.932459,0.64089 1.15551,0.5798 2.068172,1.75485 l 8.467602,-2.34567 -0.201831,5.87028 -7.175441,1.72296 -0.02509,0.72982 7.1078,0.24437 -0.183284,5.33085 -19.7051069,-0.67749 0.2531065,-7.36165 q 0.1090977,-3.17313 1.6506514,-4.58149 1.542645,-1.44009 4.810964,-1.32772 z m 2.762453,7.43356 q 0.02837,-0.82501 -0.435603,-1.19042 -0.463968,-0.36541 -1.701487,-0.40796 -1.26925,-0.0436 -1.757219,0.28904 -0.519701,0.33159 -0.546975,1.12487 l -0.02946,0.85675 4.442375,0.15273 z"
         id="path4151" />
      <path
         d="m 11.003535,244.03258 q -2.1788131,-2.07707 -1.7502156,-6.21418 0.4285976,-4.13711 2.9488076,-5.66354 2.523481,-1.558 7.797505,-1.01162 5.242442,0.54311 7.57916,2.63654 2.336717,2.09344 1.911392,6.19896 -0.425326,4.10553 -3.106713,5.64718 -2.681386,1.54165 -7.923828,0.99854 -5.274024,-0.54638 -7.456108,-2.59188 z m 8.433358,-7.45741 q -2.90545,-0.301 -3.965118,0.068 -1.087976,0.33417 -1.235204,1.75532 -0.143957,1.38956 0.855683,1.90808 0.968059,0.51525 3.841928,0.81297 l 0.757943,0.0785 q 3.063355,0.31735 4.08817,-0.0234 0.996505,-0.37556 1.140462,-1.76512 0.147228,-1.42114 -0.726088,-1.92658 -0.873316,-0.50543 -3.747185,-0.80316 z"
         id="path4153" />
      <path
         d="m 32.518066,217.7841 -1.000715,5.30392 -19.374911,-3.65555 1.000716,-5.30392 z"
         id="path4155" />
      <path
         d="m 36.513652,200.70673 -1.247538,5.05534 -9.889797,1.77806 -0.06086,0.2466 8.908502,2.1984 -1.156256,4.68544 -19.142489,-4.72391 1.285573,-5.20947 10.121583,-1.52464 0.06086,-0.2466 -9.185929,-2.26687 1.163862,-4.71626 z"
         id="path4157" />
      <path
         d="m 26.384144,183.34939 -1.57189,4.99736 2.816696,0.88598 1.26704,-4.02818 3.997892,1.25751 -1.267039,4.02818 7.359756,2.31497 -1.629051,5.17908 -18.808266,-5.91602 3.296208,-10.47933 z"
         id="path4159" />
      <path
         d="m 43.091594,180.95047 -1.849372,5.07078 -18.523268,-6.75565 1.849373,-5.07078 z"
         id="path4161" />
      <path
         d="m 37.050639,160.29306 q 1.636233,0.69572 2.506115,1.6521 0.869882,0.95639 1.299187,2.38096 l 8.744826,0.85469 -2.298359,5.40541 -7.315193,-0.97133 -0.285742,0.67202 6.544932,2.78288 -2.087158,4.9087 -18.144656,-7.71503 2.882267,-6.77868 q 1.242356,-2.92185 3.187107,-3.68199 1.957174,-0.78936 4.966674,0.49027 z m -0.09409,7.9297 q 0.323012,-0.75968 0.02139,-1.26744 -0.301618,-0.50776 -1.441137,-0.99227 -1.168738,-0.49695 -1.743674,-0.3619 -0.604154,0.12263 -0.914743,0.85309 l -0.335437,0.7889 4.090583,1.7393 z"
         id="path4163" />
      <path
         d="m 59.160708,146.56214 -2.309002,4.41771 -9.116822,-4.76507 -0.132363,0.25325 8.249108,6.42523 -2.367829,4.53027 -9.940415,-3.18932 -0.147071,0.28138 9.116823,4.76508 -2.279588,4.36144 -17.165062,-9.72396 3.309079,-6.33113 10.278075,3.36581 0.117656,-0.22511 -8.660303,-6.46102 3.264957,-6.24672 z"
         id="path4165" />
      <path
         d="m 68.138991,132.31475 -2.821919,4.48894 -2.955288,-1.14526 -1.993931,3.17183 2.313174,2.1667 -2.686737,4.2739 -14.766084,-13.55779 4.292021,-6.8275 z m -9.243213,1.87737 -6.55876,-2.8105 -0.118284,0.18816 5.375919,4.69209 z"
         id="path4167" />
      <path
         d="m 79.471734,116.98524 -6.456002,8.49272 -15.696364,-11.93207 6.648145,-8.74548 3.675077,3.19255 -3.170358,4.17053 2.350663,1.78693 2.747644,-3.61447 3.336425,2.53629 -2.747644,3.61446 2.603423,1.97907 3.362501,-4.42329 z"
         id="path4169" />
      <path
         d="m 69.796586,107.01087 q -2.150928,-1.83258 -2.38526,-4.20121 -0.234333,-2.36863 1.618845,-4.543723 1.873768,-2.199263 4.264919,-4.124562 l 3.455019,3.777892 q -2.594353,1.919015 -3.356215,2.813223 -0.96777,1.13588 -0.0494,1.91833 0.362516,0.30887 1.153863,0.0654 0.811938,-0.26759 1.857529,-0.7115 1.021424,-0.4645 2.212021,-0.78487 1.16643,-0.34096 2.586138,-0.049 1.440299,0.26778 2.697021,1.3385 2.295934,1.95614 2.502521,4.25941 0.206588,2.30328 -1.728953,4.57505 -1.91495,2.2476 -4.4484,3.80139 l -3.374492,-3.33388 q 2.952422,-1.94763 3.817238,-2.96268 0.864816,-1.01504 -0.02939,-1.7769 -0.459187,-0.39123 -1.31946,-0.16483 -0.839683,0.20224 -1.885274,0.64615 -1.045591,0.44392 -2.232612,0.80904 -1.166429,0.34096 -2.606728,0.0732 -1.419708,-0.29195 -2.748933,-1.42445 z"
         id="path4171" />
      <path
         d="m 86.861967,86.378501 -2.54173,2.665351 10.799265,10.298392 -3.746862,3.929096 -10.799265,-10.298394 -2.695111,2.826191 -3.250437,-3.538404 8.983704,-9.420635 z"
         id="path4173" />
      <path
         d="m 97.450256,83.557899 q 1.943776,2.050999 -0.268538,4.147656 -2.212313,2.096658 -4.156089,0.04566 -1.965617,-2.074044 0.246697,-4.170701 2.212314,-2.096657 4.17793,-0.02261 z"
         id="path4175" />
      <path
         d="m 121.51719,75.78168 -3.84545,3.171791 -6.54561,-7.93583 -0.22044,0.181822 5.10051,9.127777 -3.94343,3.252601 -7.91723,-6.80449 -0.24493,0.202025 6.54561,7.93583 -3.79647,3.131386 -12.031383,-15.634593 5.510993,-4.545561 8.15966,7.09841 0.19595,-0.16162 -5.4654,-9.320684 5.43751,-4.484953 z"
         id="path4177" />
      <path
         d="m 135.32477,66.141825 -4.34441,3.039724 -2.27807,-2.20358 -3.0697,2.147829 1.28951,2.895254 -4.13629,2.894108 -8.33776,-18.229998 6.60767,-4.623292 z m -9.24638,-1.86171 -4.95133,-5.138141 -0.18211,0.127413 3.13033,6.412277 z"
         id="path4179" />
      <path
         d="m 135.9222,54.487387 q 1.45916,2.382707 2.54954,3.12972 1.10088,0.703355 2.18393,0.0401 1.08305,-0.663254 2.74457,-2.38814 l 3.04195,3.386631 q -1.65816,2.095137 -3.82426,3.421645 -3.24914,1.989762 -6.04826,0.762715 -2.78863,-1.270704 -5.3919,-5.521669 -2.61985,-4.278042 -2.45276,-7.470505 0.15051,-3.219539 3.64334,-5.358533 2.0578,-1.260182 4.45666,-1.537857 l 1.83905,4.64451 q -2.54306,0.589363 -3.38242,1.103385 -1.19136,0.72958 -1.00498,2.067435 0.1698,1.310779 1.64554,3.720562 z"
         id="path4181" />
      <path
         d="m 160.84657,51.666355 -4.77441,2.517537 -3.48013,-6.599923 -3.28592,1.732658 3.48013,6.599923 -4.83058,2.547155 -9.19642,-17.440647 4.83058,-2.547155 3.61341,6.852686 3.28592,-1.732658 -3.61341,-6.852686 4.77441,-2.517537 z"
         id="path4183" />
      <path
         d="m 168.53053,48.193546 -4.90665,2.248941 -8.21525,-17.923725 4.90665,-2.248941 z"
         id="path4185" />
      <path
         d="m 184.77612,41.58379 -4.84648,1.903813 -7.16706,-7.042928 -0.23641,0.09287 3.35489,8.540439 -4.49186,1.764509 -7.20895,-18.351601 4.99424,-1.961856 7.09422,7.378545 0.23642,-0.09287 -3.45937,-8.806404 4.52141,-1.776118 z"
         id="path4187" />
      <path
         d="m 200.99029,36.419384 -5.05938,1.586372 -1.50654,-2.788489 -3.57489,1.12091 0.35531,3.14946 -4.81701,1.510378 -2.44532,-19.896518 7.6951,-2.412805 z m -8.25295,-4.566224 -3.16917,-6.393163 -0.21207,0.06649 1.04848,7.05811 z"
         id="path4189" />
      <path
         d="m 214.71277,33.155338 -5.26417,1.192314 -4.35545,-19.229671 5.26416,-1.192314 z"
         id="path4191" />
      <path
         d="m 236.62788,29.343239 -4.92284,0.783238 -1.61636,-10.159219 -0.2822,0.0449 -0.23362,10.453557 -5.04825,0.803193 -3.37228,-9.879847 -0.31356,0.04989 1.61637,10.15922 -4.86012,0.77326 -2.43957,-19.576601 7.05502,-1.122475 3.43214,10.256115 0.25085,-0.03991 0.017,-10.804881 6.96095,-1.1075086 z"
         id="path4193" />
      <path
         d="m 258.3436,27.793567 -4.97387,0.32928 -0.67953,-10.264531 -0.28512,0.01888 -1.18963,10.388273 -5.10058,0.337669 -2.45365,-10.147081 -0.31681,0.02097 0.67953,10.264532 -4.9105,0.325085 -0.63714,-19.7177289 7.12814,-0.4718979 2.47882,10.5272488 0.25345,-0.01678 1.00605,-10.757955 7.03311,-0.4656059 z"
         id="path4195" />
      <path
         d="m 262.46183,10.194161 q 1.87673,-2.3535874 6.03551,-2.2917045 4.15879,0.061883 5.90164,2.4375765 1.77459,2.376166 1.6957,7.677829 -0.0784,5.269917 -1.9575,7.782237 -1.87909,2.512321 -6.00613,2.45091 -4.12704,-0.06141 -5.89927,-2.596309 -1.77223,-2.534899 -1.69382,-7.804815 0.0789,-5.301663 1.92387,-7.655724 z m 8.17246,7.742451 q 0.0435,-2.920677 -0.41762,-3.943651 -0.42886,-1.054247 -1.85746,-1.075505 -1.39684,-0.02079 -1.82513,1.020708 -0.42783,1.009747 -0.47081,3.898677 l -0.0113,0.761916 q -0.0458,3.079409 0.38399,4.070163 0.46202,0.959481 1.85887,0.980266 1.42859,0.02126 1.85499,-0.89325 0.42641,-0.914507 0.46939,-3.803437 z"
         id="path4197" />
      <path
         d="m 292.73076,15.913499 q -0.14831,1.771803 -0.78417,2.897436 -0.63586,1.125633 -1.85433,1.97947 l 1.92689,8.572607 -5.85328,-0.489957 -1.3684,-7.251416 -0.7277,-0.06091 -0.59325,7.087215 -5.31541,-0.444934 1.64467,-19.6480359 7.34033,0.6144324 q 3.16393,0.2648416 4.49487,1.8737185 1.36257,1.611525 1.08978,4.870378 z m -7.56028,2.393954 q 0.82262,0.06886 1.21038,-0.376599 0.38776,-0.445458 0.49105,-1.679393 0.10593,-1.265573 -0.20237,-1.769296 -0.30566,-0.535362 -1.09665,-0.601573 l -0.85426,-0.07151 -0.37078,4.429509 z"
         id="path4199" />
      <path
         d="m 307.31814,16.520689 -3.64477,-0.529281 -2.1445,14.767603 -5.37289,-0.780233 2.1445,-14.767604 -3.86472,-0.561221 1.00319,-4.6988576 12.88237,1.8707356 z"
         id="path4201" />
      <path
         d="m 320.62247,34.4533 -5.19064,-1.082187 0.0445,-3.169126 -3.66764,-0.764659 -1.22561,2.92288 -4.94198,-1.030346 7.56749,-18.562976 7.89474,1.645961 z m -4.9785,-8.010991 0.35073,-7.126936 -0.21757,-0.04536 -2.52645,6.673324 z"
         id="path4203" />
      <path
         d="m 331.94137,37.558699 -9.68587,-2.616275 5.14147,-19.034585 5.24141,1.415769 -3.99065,14.774026 4.75099,1.283299 z"
         id="path4205" />
      <path
         d="m 338.8094,39.764375 -5.14476,-1.632327 5.9628,-18.793491 5.14475,1.632326 z"
         id="path4207" />
      <path
         d="m 345.7679,27.499506 q 0.98235,-2.649502 3.1264,-3.683112 2.14405,-1.033609 4.82333,-0.04023 2.70904,1.00442 5.33848,2.588844 l -2.3614,4.542399 q -2.69334,-1.777423 -3.79482,-2.185813 -1.39917,-0.518766 -1.8186,0.612482 -0.16556,0.446545 0.33484,1.106147 0.53018,0.67064 1.30621,1.500158 0.78707,0.799747 1.49687,1.807883 0.72084,0.978366 0.93427,2.41198 0.2432,1.444652 -0.33075,2.992676 -1.04857,2.82812 -3.14078,3.813228 -2.09221,0.985108 -4.89056,-0.05242 -2.76858,-1.026495 -5.09799,-2.87216 l 1.97206,-4.31427 q 2.84319,2.103881 4.09352,2.567459 1.25033,0.463578 1.65872,-0.637901 0.20971,-0.565624 -0.29839,-1.295803 -0.47833,-0.719142 -1.25436,-1.548659 -0.77603,-0.829518 -1.52664,-1.818921 -0.72084,-0.978366 -0.96404,-2.423018 -0.21343,-1.433614 0.39363,-3.070947 z"
         id="path4209" />
      <path
         d="m 370.34134,52.717069 -9.65289,-4.54179 8.3942,-17.840617 9.94018,4.676962 -2.35542,4.260342 -4.74027,-2.230344 -1.2571,2.671784 4.10823,1.932964 -1.78428,3.792208 -4.10822,-1.932964 -1.39228,2.959072 5.02755,2.365516 z"
         id="path4211" />
      <path
         d="m 378.0832,41.177086 q 1.34459,-2.485347 3.61252,-3.20771 2.26793,-0.722362 4.7812,0.637332 2.5412,1.374802 4.92216,3.31269 l -2.97574,4.165885 q -2.41712,-2.137944 -3.45036,-2.69693 -1.31248,-0.710062 -1.88658,0.351097 -0.22661,0.418879 0.17623,1.142202 0.43078,0.738431 1.08266,1.668682 0.66699,0.902325 1.22823,2.000128 0.57635,1.069877 0.58639,2.519256 0.038,1.464488 -0.74762,2.916601 -1.43524,2.652898 -3.64503,3.334518 -2.20978,0.681619 -4.83476,-0.738506 -2.59705,-1.405017 -4.64427,-3.559436 l 2.55823,-3.994677 q 2.51966,2.482208 3.69252,3.116732 1.17286,0.634524 1.73185,-0.39871 0.28704,-0.53058 -0.11351,-1.324861 -0.37264,-0.779174 -1.02452,-1.709425 -0.65189,-0.930251 -1.25616,-2.015235 -0.57634,-1.069877 -0.61431,-2.534365 -0.0101,-1.449379 0.82087,-2.985268 z"
         id="path4213" />
      <path
         d="m 401.81904,53.580356 -3.13539,-1.932304 -7.82917,12.703748 -4.622,-2.848483 7.82916,-12.703748 -3.32459,-2.048909 2.78562,-3.914839 11.08199,6.829696 z"
         id="path4215" />
      <path
         d="m 406.77937,63.354792 q -1.60283,2.327184 -4.11305,0.598284 -2.51023,-1.7289 -0.90739,-4.056084 1.62084,-2.353332 4.13106,-0.624432 2.51022,1.7289 0.88938,4.082232 z"
         id="path4217" />
      <path
         d="m 422.28252,74.362423 q -6.32032,8.116399 -12.73328,3.122567 l -5.16042,-4.018475 12.11394,-15.556432 5.26063,4.096503 q 3.43194,2.672481 3.35777,5.713286 -0.0296,3.035262 -2.83864,6.642551 z m -9.9994,-0.543243 q 1.32769,1.033879 2.42521,0.399614 1.14208,-0.639809 2.85871,-2.844263 1.73614,-2.229505 2.03204,-3.487999 0.32096,-1.238988 -1.03178,-2.292374 l -0.75151,-0.585215 -6.35934,8.1665 z"
         id="path4219" />
      <path
         d="m 425.50718,90.942164 -7.99274,-7.065571 13.05869,-14.772301 8.23062,7.275856 -3.45523,3.429267 -3.92501,-3.4697 -1.95565,2.212277 3.40167,3.007074 -2.77576,3.140006 -3.40167,-3.007074 -2.16594,2.450157 4.16289,3.679984 z"
         id="path4221" />
      <path
         d="m 435.66355,91.789601 q -0.69726,0.694673 -0.74334,1.323206 -0.0461,0.628534 0.60379,1.280813 0.67226,0.674772 1.23365,0.608465 0.60629,-0.06622 1.34854,-0.805715 l 9.35684,-9.322066 3.85431,3.868691 -9.58175,9.546155 q -2.40669,2.39774 -4.83094,2.16872 -2.40184,-0.20652 -4.95644,-2.770656 -2.5322,-2.54164 -2.70745,-4.876837 -0.13036,-2.335113 2.25383,-4.710447 l 9.62674,-9.590972 3.92155,3.936168 z"
         id="path4223" />
      <path
         d="m 449.0384,95.042744 q 2.12694,-1.860365 4.50441,-1.746414 2.37746,0.11395 4.25873,2.264796 1.90217,2.174744 3.45778,4.821334 l -4.24178,2.86651 q -1.51974,-2.8467 -2.29315,-3.730934 -0.98244,-1.12322 -1.89057,-0.328907 -0.35848,0.313545 -0.23319,1.131951 0.14619,0.8423 0.43272,1.94149 0.31042,1.07829 0.45355,2.3029 0.16703,1.20371 -0.32903,2.56559 -0.47517,1.38578 -1.71788,2.47274 -2.27034,1.98578 -4.5791,1.85392 -2.30876,-0.13186 -4.27364,-2.3783 -1.94398,-2.22254 -3.11129,-4.95567 l 3.79078,-2.85166 q 1.49577,3.20511 2.37369,4.20883 0.87793,1.00373 1.76216,0.23032 0.45407,-0.39715 0.35567,-1.28126 -0.0775,-0.86021 -0.36401,-1.95941 -0.28652,-1.09919 -0.47446,-2.32679 -0.16703,-1.203712 0.30814,-2.589491 0.49606,-1.361882 1.81047,-2.511545 z"
         id="path4225" />
      <path
         d="m 458.62341,128.91697 -6.32658,-8.58957 15.87537,-11.69286 6.51486,8.84521 -4.09961,2.62521 -3.1068,-4.2181 -2.37747,1.75111 2.69256,3.65568 -3.37447,2.48544 -2.69256,-3.65568 -2.63312,1.9394 3.29509,4.47373 z"
         id="path4227" />
      <path
         d="m 467.46055,142.39489 -3.36666,-5.19588 4.55069,-4.53757 -0.13812,-0.21316 -6.08727,2.16611 -3.17675,-4.90277 10.25457,-2.9747 6.43043,-7.53366 3.48752,5.38239 -4.31577,4.0827 0.13812,0.21316 5.54158,-2.19086 3.03863,4.68962 -9.36548,3.00392 z"
         id="path4229" />
      <path
         d="m 480.31366,166.62193 -2.24733,-4.44941 9.18222,-4.63781 -0.12883,-0.25506 -10.02676,2.96574 -2.30458,-4.56277 8.38062,-6.22486 -0.14314,-0.2834 -9.18222,4.63781 -2.21871,-4.39273 17.89985,-8.29398 3.2207,6.37654 -8.7207,6.39662 0.11451,0.22672 10.29527,-3.2792 3.17776,6.29152 z"
         id="path4231" />
      <path
         d="m 486.66611,182.21833 -2.00513,-4.90849 2.65231,-1.73511 -1.4168,-3.46828 -3.10856,0.61821 -1.90907,-4.67336 19.62132,-4.10548 3.04971,7.46562 z m 3.85794,-8.60684 6.10483,-3.69423 -0.084,-0.20574 -6.9453,1.63677 z"
         id="path4233" />
      <path
         d="m 497.89899,185.38171 q -2.64662,0.89546 -3.61649,1.79342 -0.92962,0.91786 -0.52259,2.12086 0.40703,1.20301 1.72129,3.20516 l -3.97603,2.21673 q -1.67607,-2.08084 -2.49012,-4.48685 -1.22109,-3.60902 0.59518,-6.06704 1.85652,-2.43812 6.57833,-4.03572 4.75188,-1.60776 7.82813,-0.73807 3.10634,0.85953 4.41901,4.73923 0.77336,2.28571 0.51308,4.68652 l -4.9364,0.76521 q -0.0118,-2.61043 -0.3272,-3.54276 -0.44774,-1.32331 -1.79366,-1.43773 -1.31584,-0.1246 -3.99253,0.78104 z"
         id="path4235" />
      <path
         d="m 495.12599,210.31402 -1.39597,-5.21385 7.20739,-1.92972 -0.96075,-3.58836 -7.20739,1.92972 -1.41239,-5.2752 19.04591,-5.09937 1.41239,5.27519 -7.48342,2.00362 0.96075,3.58836 7.48342,-2.00362 1.39596,5.21386 z"
         id="path4237" />
      <path
         d="m 496.80634,218.57746 -1.10386,-5.28341 19.30001,-4.03236 1.10386,5.28342 z"
         id="path4239" />
      <path
         d="m 499.6471,235.88455 -0.78144,-5.14803 8.45717,-5.42641 -0.0381,-0.25113 -9.07183,1.37705 -0.72426,-4.77134 19.49345,-2.95899 0.80526,5.30499 -8.76827,5.28095 0.0381,0.25112 9.35435,-1.41993 0.72902,4.80274 z"
         id="path4241" />
      <path
         d="m 501.09595,252.83897 -0.42828,-5.28492 3.05261,-0.85261 -0.30262,-3.73426 -3.15006,-0.34995 -0.40776,-5.03175 19.94469,2.01509 0.65139,8.03815 z m 6.27821,-7.03886 6.93571,-1.67694 -0.018,-0.22153 -7.11523,-0.53829 z"
         id="path4243" />
      <path
         d="m 510.94514,261.57177 q -2.82489,0.0697 -2.90009,-2.97736 -0.0752,-3.04707 2.74968,-3.11679 2.85663,-0.0705 2.93184,2.97657 0.0752,3.04707 -2.78143,3.11758 z"
         id="path4245" />
    </g>
  </g>
</svg>
