<svg enable-background="new 0 0 26 26" version="1.1" viewBox="0 0 26 26" xml:space="preserve" xmlns="http://www.w3.org/2000/svg"><path d="m23.229 4h-20.459c-0.97656 0-1.7705 0.84375-1.7705 1.8809v14.238c0 1.0371 0.79395 1.8809 1.7705 1.8809h20.459c0.97656 0 1.7705-0.84375 1.7705-1.8809v-14.238c0-1.0371-0.79395-1.8809-1.7705-1.8809zm-7.5628 9.0003 7.8333-5.6533v11.306l-7.8333-5.6528zm7.5628-7.5003c0.053528 0 0.10779 0.032349 0.15491 0.080688l-10.384 7.4944-10.384-7.4944c0.047119-0.04834 0.10138-0.080688 0.15491-0.080688h20.459zm-20.729 13.153v-11.306l7.8328 5.653-7.8328 5.6531zm0.27051 1.847c-0.053528 0-0.10779-0.032471-0.15491-0.08075l8.9987-6.4944 0.9472 0.68359c0.022461 0.016296 0.048462 0.022949 0.072144 0.036377 0.023132 0.013123 0.044739 0.024231 0.06897 0.03479 0.095947 0.041931 0.1955 0.070434 0.29639 0.070434 3.662e-4 0 6.104e-4 -2.441e-4 9.766e-4 -2.441e-4s6.104e-4 2.441e-4 9.766e-4 2.441e-4c0.10089 0 0.20044-0.028503 0.29639-0.070435 0.024231-0.010559 0.045837-0.021668 0.06897-0.03479 0.023682-0.013428 0.049683-0.020081 0.072144-0.036377l0.94672-0.68329 8.9992 6.4942c-0.047119 0.048279-0.10138 0.080688-0.15491 0.080688h-20.459z" fill="#1D1D1B" style="fill:#fff"/></svg>
