<svg data-name="Layer 1" version="1.1" viewBox="0 0 128 128" xmlns="http://www.w3.org/2000/svg">
 <defs>
  <style>.cls-1{fill:#062b31;}</style>
 </defs>
 <path class="cls-1" d="m21.91 14a7.91 7.91 0 0 0-7.9102 7.9102v84.189a7.91 7.91 0 0 0 7.9102 7.9004h84.189a7.91 7.91 0 0 0 7.9102-7.9102v-84.18a7.91 7.91 0 0 0-7.9102-7.9102h-84.189zm0 6.5h84.18a1.41 1.41 0 0 1 1.4102 1.4102v84.189a1.41 1.41 0 0 1-1.4102 1.4102h-84.18a1.41 1.41 0 0 1-1.4102-1.4102v-84.189a1.41 1.41 0 0 1 1.4102-1.4102zm21.221 15.369a5.86 5.86 0 0 0-5.8613 5.8613 5.86 5.86 0 0 0 5.8613 5.8594 5.86 5.86 0 0 0 5.8594-5.8594 5.86 5.86 0 0 0-5.8594-5.8613zm-5.8613 14.531v41.73h11.73v-41.73h-11.73zm17.73 0v41.73h12v-23.82c0-1.86 0.55047-5.8613 6.2305-5.8613 5.68 0 5.6289 5.7305 5.6289 5.7305v24h11.871v-26c0-12.33-6.73-15.779-13.5-15.779-10.05 0-10.23 5.809-10.23 6.209v-6.209h-12z" style="fill:#fff"/>
</svg>
