<?xml version="1.0" encoding="UTF-8" standalone="no"?>
<svg
   fill="none"
   version="1.1"
   id="svg4"
   sodipodi:docname="Logo-3Fiftynine.svg"
   width="32.400002"
   height="35.625"
   inkscape:version="1.1.2 (b8e25be833, 2022-02-05)"
   xmlns:inkscape="http://www.inkscape.org/namespaces/inkscape"
   xmlns:sodipodi="http://sodipodi.sourceforge.net/DTD/sodipodi-0.dtd"
   xmlns="http://www.w3.org/2000/svg"
   xmlns:svg="http://www.w3.org/2000/svg">
  <defs
     id="defs8" />
  <sodipodi:namedview
     id="namedview6"
     pagecolor="#505050"
     bordercolor="#eeeeee"
     borderopacity="1"
     inkscape:pageshadow="0"
     inkscape:pageopacity="0"
     inkscape:pagecheckerboard="0"
     showgrid="false"
     fit-margin-top="0"
     fit-margin-left="0"
     fit-margin-right="0"
     fit-margin-bottom="0"
     inkscape:zoom="3.5266667"
     inkscape:cx="145.32136"
     inkscape:cy="69.754253"
     inkscape:window-width="2560"
     inkscape:window-height="1369"
     inkscape:window-x="-8"
     inkscape:window-y="-8"
     inkscape:window-maximized="1"
     inkscape:current-layer="svg4" />
  <path
     d="m 2.9,28.825 10.4,6 c 0.9,0.5 1.9,0.8 2.9,0.8 1,0 2,-0.2 2.9,-0.8 l 10.4,-6 c 1.7,-1.1 2.9,-3 2.9,-5 v -12 c 0,-2 -1.1,-3.9 -2.9,-5 l -10.4,-6 c -1.7,-1.1 -3.9,-1.1 -5.8,0 l -10.4,6 c -1.8,1.1 -2.9,3 -2.9,5 v 12 c 0,2 1,3.9 2.9,5 z m 2.2,-7.3 c 0.8,-1.3 2.3,-1.7 3.6,-1 v 0 c 4.6,2.7 7.4,4.8 7.4,4.8 v 0 l 4.8,-2.5 -5.2,-2.8 c -0.8,-0.5 -1.4,-1.4 -1.4,-2.3 0,-0.9 0.5,-1.8 1.4,-2.3 l 5.2,-2.7 -4.7,-2.5 c -0.4,0.3 -3.1,2.3 -7.4,4.8 l -0.1,0.1 c -1.3,0.8 -2.9,0.3 -3.6,-1 -0.8,-1.3 -0.3,-2.9 1,-3.6 l 8.7,-5 c 0.8,-0.5 1.8,-0.5 2.7,0 l 8.7,5 c 0.8,0.5 1.4,1.4 1.4,2.3 0,0.9 -0.5,1.8 -1.4,2.3 l -5.5,2.7 5.5,2.7 c 0.8,0.5 1.4,1.4 1.4,2.3 0,0.9 -0.5,1.8 -1.4,2.3 l -8.7,5 c -0.4,0.2 -0.8,0.4 -1.3,0.4 -0.5,0 -0.9,-0.2 -1.3,-0.4 l -8.9,-5 c -1.3,-0.7 -1.7,-2.4 -0.9,-3.6 z"
     fill="#ffffff"
     id="path2"
     style="fill:#24abd8;fill-opacity:1" />
</svg>
