<?xml version="1.0" encoding="UTF-8" standalone="no"?>
<svg
   width="2000"
   height="2000"
   viewBox="0 0 529.16665 529.16668"
   version="1.1"
   id="svg8"
   inkscape:version="1.1.2 (b8e25be833, 2022-02-05)"
   sodipodi:docname="Sigil.svg"
   inkscape:export-filename="C:\Users\tompe\Dropbox\4. Workshop\1. Images\1. Personal\The Nihilum Order\Sigil\Sigil - Single Rings.png"
   inkscape:export-xdpi="96"
   inkscape:export-ydpi="96"
   xmlns:inkscape="http://www.inkscape.org/namespaces/inkscape"
   xmlns:sodipodi="http://sodipodi.sourceforge.net/DTD/sodipodi-0.dtd"
   xmlns="http://www.w3.org/2000/svg"
   xmlns:svg="http://www.w3.org/2000/svg"
   xmlns:rdf="http://www.w3.org/1999/02/22-rdf-syntax-ns#"
   xmlns:cc="http://creativecommons.org/ns#"
   xmlns:dc="http://purl.org/dc/elements/1.1/">
  <defs
     id="defs2">
    <rect
       x="122.76667"
       y="434.44583"
       width="30.691668"
       height="30.691668"
       id="rect904" />
    <rect
       x="15.345833"
       y="447.67499"
       width="220.47359"
       height="179.15109"
       id="rect876" />
  </defs>
  <sodipodi:namedview
     id="base"
     pagecolor="#282c34"
     bordercolor="#666666"
     borderopacity="1.0"
     inkscape:pageopacity="0"
     inkscape:pageshadow="2"
     inkscape:zoom="0.35"
     inkscape:cx="1052.8571"
     inkscape:cy="1025.7143"
     inkscape:document-units="px"
     inkscape:current-layer="layer18"
     inkscape:document-rotation="0"
     showgrid="false"
     units="px"
     inkscape:pagecheckerboard="false"
     fit-margin-top="0"
     fit-margin-left="0"
     fit-margin-right="0"
     fit-margin-bottom="0"
     inkscape:window-width="2560"
     inkscape:window-height="1369"
     inkscape:window-x="-8"
     inkscape:window-y="-8"
     inkscape:window-maximized="1" />
  <metadata
     id="metadata5">
    <rdf:RDF>
      <cc:Work
         rdf:about="">
        <dc:format>image/svg+xml</dc:format>
        <dc:type
           rdf:resource="http://purl.org/dc/dcmitype/StillImage" />
      </cc:Work>
    </rdf:RDF>
  </metadata>
  <g
     inkscape:groupmode="layer"
     id="layer11"
     inkscape:label="Background"
     style="display:inline"
     sodipodi:insensitive="true">
    <rect
       style="opacity:0.916667;fill:#282c34;fill-opacity:1;stroke-width:0.561181"
       id="rect909"
       width="529.16669"
       height="529.16669"
       x="-1.100586e-05"
       y="-1.100586e-05" />
  </g>
  <g
     inkscape:label="Nihilum"
     inkscape:groupmode="layer"
     id="layer1"
     style="display:inline"
     transform="translate(-168.05766,-57.082103)"
     sodipodi:insensitive="true">
    <text
       xml:space="preserve"
       style="font-style:normal;font-variant:normal;font-weight:normal;font-stretch:normal;font-size:22.5778px;line-height:1.25;font-family:Cambria;-inkscape-font-specification:Cambria;letter-spacing:0px;word-spacing:0px;fill:#000000;fill-opacity:1;stroke:none;stroke-width:0.264583"
       x="16.036171"
       y="31.537806"
       id="text835"><tspan
         sodipodi:role="line"
         id="tspan833"
         x="16.036171"
         y="31.537806"
         style="font-style:normal;font-variant:normal;font-weight:normal;font-stretch:normal;font-size:22.5778px;font-family:'American Captain';-inkscape-font-specification:'American Captain';fill:#ffffff;fill-opacity:1;stroke-width:0.264583" /></text>
    <g
       id="g1105"
       transform="matrix(3.0781678,0,0,3.0835763,-873.66944,-1138.7657)">
      <g
         inkscape:label="Background"
         id="layer1-1"
         transform="translate(-26.521738,92.604166)"
         style="display:inline" />
      <g
         id="g863"
         inkscape:label="Start (Dawn)"
         transform="matrix(0.22778985,0,0,0.22778985,342.98931,419.69144)"
         style="display:inline">
        <rect
           style="opacity:1;fill:#ffffff;fill-opacity:1;stroke:#ffffff;stroke-width:0.31475;stroke-miterlimit:4;stroke-dasharray:none;stroke-opacity:1"
           id="rect861"
           width="79.060249"
           height="12.939805"
           x="238.3775"
           y="309.59705" />
      </g>
      <g
         id="g867"
         inkscape:label="First Straight (Light)"
         transform="matrix(0.22778985,0,0,0.22778985,342.98931,419.69144)"
         style="display:inline">
        <rect
           style="opacity:1;fill:#ffffff;fill-opacity:1;stroke:#ffffff;stroke-width:0.124116;stroke-miterlimit:4;stroke-dasharray:none;stroke-opacity:1"
           id="rect865"
           width="13.10505"
           height="39.563385"
           x="304.42801"
           y="276.22733" />
      </g>
      <g
         id="layer2"
         inkscape:label="Top Curve (Shadow)"
         transform="matrix(0.22778985,0,0,0.22778985,342.98931,419.69144)"
         style="display:inline">
        <path
           id="path1043"
           style="color:#000000;font-style:normal;font-variant:normal;font-weight:normal;font-stretch:normal;font-size:medium;line-height:normal;font-family:sans-serif;font-variant-ligatures:normal;font-variant-position:normal;font-variant-caps:normal;font-variant-numeric:normal;font-variant-alternates:normal;font-variant-east-asian:normal;font-feature-settings:normal;font-variation-settings:normal;text-indent:0;text-align:start;text-decoration:none;text-decoration-line:none;text-decoration-style:solid;text-decoration-color:#000000;letter-spacing:normal;word-spacing:normal;text-transform:none;writing-mode:lr-tb;direction:ltr;text-orientation:mixed;dominant-baseline:auto;baseline-shift:baseline;text-anchor:start;white-space:normal;shape-padding:0;shape-margin:0;inline-size:0;clip-rule:nonzero;display:inline;overflow:visible;visibility:visible;opacity:1;isolation:auto;mix-blend-mode:normal;color-interpolation:sRGB;color-interpolation-filters:linearRGB;solid-color:#000000;solid-opacity:1;vector-effect:none;fill:#ffffff;fill-opacity:1;fill-rule:nonzero;stroke:none;stroke-width:33.4175;stroke-linecap:butt;stroke-linejoin:miter;stroke-miterlimit:4;stroke-dasharray:none;stroke-dashoffset:0;stroke-opacity:1;color-rendering:auto;image-rendering:auto;shape-rendering:auto;text-rendering:auto;enable-background:accumulate;stop-color:#000000;stop-opacity:1"
           d="m 999.94922,525.74219 c -174.06403,10e-6 -315.5293,141.71412 -315.5293,316.08398 0,137.27873 87.69236,254.29513 209.9336,297.87503 v -35.6621 C 790.77249,1062.2281 717.80469,960.69927 717.80469,841.82617 c 0,-156.29384 126.12485,-282.63866 282.14453,-282.63867 156.01968,0 282.13868,126.34483 282.13868,282.63867 0,119.20639 -73.3722,220.97633 -177.4141,262.56833 v 35.6153 c 122.6955,-43.3335 210.8028,-160.57909 210.8028,-298.18363 0,-174.36989 -141.4633,-316.08399 -315.52738,-316.08398 z"
           transform="matrix(0.37734259,0,0,0.37668074,-20.039993,-139.95123)" />
      </g>
      <g
         id="layer3"
         inkscape:label="Transition (Sunset)"
         transform="translate(-26.521738,92.604166)"
         style="display:inline" />
      <g
         id="layer6"
         inkscape:label="Second Straight (Twilight)"
         transform="matrix(0.22778985,0,0,0.22778985,342.98931,419.69144)"
         style="display:inline">
        <rect
           style="opacity:1;fill:#ffffff;fill-opacity:1;stroke:#ffffff;stroke-width:0.310417;stroke-miterlimit:4;stroke-dasharray:none;stroke-opacity:1"
           id="rect859"
           width="12.918749"
           height="251.04375"
           x="396.80057"
           y="276.3205" />
      </g>
      <g
         id="layer5"
         inkscape:label="End (Dusk)"
         transform="matrix(0.22778985,0,0,0.22778985,342.98931,419.69144)"
         style="display:inline">
        <rect
           style="opacity:1;fill:#ffffff;fill-opacity:1;stroke:#ffffff;stroke-width:0.31475;stroke-miterlimit:4;stroke-dasharray:none;stroke-opacity:1"
           id="rect854"
           width="79.060249"
           height="12.939805"
           x="397.12747"
           y="521.23474" />
      </g>
      <g
         id="layer17"
         inkscape:label="Orbit Lines"
         style="display:inline;stroke-width:1.00092;stroke-miterlimit:4;stroke-dasharray:none"
         transform="matrix(0.22778985,0,0,0.22778985,349.03069,398.59715)">
        <path
           sodipodi:type="star"
           style="fill:none;fill-opacity:1;stroke:#ffffff;stroke-width:1.00092;stroke-miterlimit:4;stroke-dasharray:none;stroke-opacity:0.25"
           id="path960"
           sodipodi:sides="6"
           sodipodi:cx="330.76089"
           sodipodi:cy="269.75214"
           sodipodi:r1="168.65807"
           sodipodi:r2="150.56445"
           sodipodi:arg1="0.54148861"
           sodipodi:arg2="1.0650874"
           inkscape:flatsided="true"
           inkscape:rounded="-3.3793645"
           inkscape:randomized="0"
           d="m 475.29114,356.68056 c 293.76284,-488.42038 -717.41323,71.50676 -147.54735,81.70265 569.86588,10.1959 -420.633279,-585.5447 -144.53024,-86.92842 276.10303,498.61627 296.77994,-657.05146 3.0171,-168.63108 -293.76284,488.42038 717.41323,-71.50676 147.54735,-81.70265 -569.86588,-10.195895 420.63328,585.5447 144.53024,86.92843 -276.10303,-498.61628 -296.77994,657.05145 -3.0171,168.63107 z"
           inkscape:transform-center-x="1.1423158e-05"
           inkscape:transform-center-y="-2.1247709e-05" />
      </g>
      <g
         id="layer7"
         inkscape:label="Orb (Shadow)"
         transform="matrix(0.22778985,0,0,0.22778985,342.98931,419.69144)"
         style="display:inline">
        <circle
           style="opacity:1;fill:#ffffff;fill-opacity:1;stroke:#ffffff;stroke-width:0.209794;stroke-miterlimit:4;stroke-dasharray:none;stroke-opacity:1"
           id="path869"
           cx="357.28262"
           cy="177.14798"
           r="52.811768" />
      </g>
      <g
         id="layer8"
         inkscape:label="Orb (Honor)"
         transform="matrix(0.22778985,0,0,0.22778985,342.98931,419.69144)"
         style="display:inline">
        <circle
           style="opacity:1;fill:#ffffff;fill-opacity:1;stroke:#ffffff;stroke-width:0.264583;stroke-miterlimit:4;stroke-dasharray:none;stroke-opacity:1"
           id="path871"
           cx="152.23051"
           cy="177.14798"
           r="32.87722" />
      </g>
      <g
         id="g897"
         inkscape:label="Orb (Discipline)"
         transform="matrix(0.22778985,0,0,0.22778985,342.98931,419.69144)"
         style="display:inline">
        <circle
           style="opacity:1;fill:#ffffff;fill-opacity:1;stroke:#ffffff;stroke-width:0.264583;stroke-miterlimit:4;stroke-dasharray:none;stroke-opacity:1"
           id="circle895"
           cx="212.42445"
           cy="32.301361"
           r="32.87722" />
      </g>
      <g
         id="g893"
         inkscape:label="Orb (Loyalty)"
         transform="matrix(0.22778985,0,0,0.22778985,342.98931,419.69144)"
         style="display:inline">
        <circle
           style="opacity:1;fill:#ffffff;fill-opacity:1;stroke:#ffffff;stroke-width:0.264583;stroke-miterlimit:4;stroke-dasharray:none;stroke-opacity:1"
           id="circle891"
           cx="357.28262"
           cy="-27.967484"
           r="32.87722" />
      </g>
      <g
         id="g889"
         inkscape:label="Orb (Truth)"
         transform="matrix(0.22778985,0,0,0.22778985,342.98931,419.69144)"
         style="display:inline">
        <circle
           style="opacity:1;fill:#ffffff;fill-opacity:1;stroke:#ffffff;stroke-width:0.264583;stroke-miterlimit:4;stroke-dasharray:none;stroke-opacity:1"
           id="circle887"
           cx="502.15863"
           cy="32.295681"
           r="32.87722" />
      </g>
      <g
         id="g885"
         inkscape:label="Orb (Sacrifice)"
         transform="matrix(0.22778985,0,0,0.22778985,342.98931,419.69144)"
         style="display:inline">
        <circle
           style="opacity:1;fill:#ffffff;fill-opacity:1;stroke:#ffffff;stroke-width:0.264583;stroke-miterlimit:4;stroke-dasharray:none;stroke-opacity:1"
           id="circle883"
           cx="562.2713"
           cy="177.14798"
           r="32.87722" />
      </g>
      <g
         id="g966"
         inkscape:label="Text (Shadow | Latin)"
         style="display:none">
        <text
           xml:space="preserve"
           style="font-style:normal;font-variant:normal;font-weight:normal;font-stretch:normal;font-size:28.2222px;line-height:1.25;font-family:'American Captain';-inkscape-font-specification:'American Captain';text-align:center;letter-spacing:0px;word-spacing:0px;text-anchor:middle;fill:#000000;fill-opacity:1;stroke:none;stroke-width:0.264583"
           x="330.47864"
           y="279.9827"
           id="text964"><tspan
             sodipodi:role="line"
             id="tspan962"
             x="330.47864"
             y="279.9827"
             style="font-style:normal;font-variant:normal;font-weight:normal;font-stretch:normal;font-size:28.2222px;font-family:'American Captain';-inkscape-font-specification:'American Captain';text-align:center;text-anchor:middle;stroke-width:0.264583">Umbra</tspan></text>
      </g>
      <g
         id="g972"
         inkscape:label="Text (Honor | Latin)"
         style="display:none">
        <text
           xml:space="preserve"
           style="font-style:normal;font-variant:normal;font-weight:normal;font-stretch:normal;font-size:17.6389px;line-height:1.25;font-family:'American Captain';-inkscape-font-specification:'American Captain';text-align:center;letter-spacing:0px;word-spacing:0px;text-anchor:middle;fill:#000000;fill-opacity:1;stroke:none;stroke-width:0.264583"
           x="125.62939"
           y="276.14624"
           id="text970"><tspan
             sodipodi:role="line"
             id="tspan968"
             x="125.62939"
             y="276.14624"
             style="font-style:normal;font-variant:normal;font-weight:normal;font-stretch:normal;font-size:17.6389px;font-family:'American Captain';-inkscape-font-specification:'American Captain';text-align:center;text-anchor:middle;stroke-width:0.264583">Honor</tspan></text>
      </g>
      <g
         id="g978"
         inkscape:label="Text (Discipline | Latin)"
         style="display:none">
        <text
           xml:space="preserve"
           style="font-style:normal;font-variant:normal;font-weight:normal;font-stretch:normal;font-size:17.6389px;line-height:1.25;font-family:'American Captain';-inkscape-font-specification:'American Captain';text-align:center;letter-spacing:0px;word-spacing:0px;text-anchor:middle;fill:#000000;fill-opacity:1;stroke:none;stroke-width:0.264583"
           x="185.81451"
           y="131.29962"
           id="text976"><tspan
             sodipodi:role="line"
             id="tspan974"
             x="185.81451"
             y="131.29962"
             style="font-style:normal;font-variant:normal;font-weight:normal;font-stretch:normal;font-size:17.6389px;font-family:'American Captain';-inkscape-font-specification:'American Captain';text-align:center;text-anchor:middle;stroke-width:0.264583">Disciplina</tspan></text>
      </g>
      <g
         id="g984"
         inkscape:label="Text (Loyalty | Latin)"
         style="display:none">
        <text
           xml:space="preserve"
           style="font-style:normal;font-variant:normal;font-weight:normal;font-stretch:normal;font-size:17.6389px;line-height:1.25;font-family:'American Captain';-inkscape-font-specification:'American Captain';text-align:center;letter-spacing:0px;word-spacing:0px;text-anchor:middle;fill:#000000;fill-opacity:1;stroke:none;stroke-width:0.264583"
           x="330.58447"
           y="71.030785"
           id="text982"><tspan
             sodipodi:role="line"
             id="tspan980"
             x="330.58447"
             y="71.030785"
             style="font-style:normal;font-variant:normal;font-weight:normal;font-stretch:normal;font-size:17.6389px;font-family:'American Captain';-inkscape-font-specification:'American Captain';text-align:center;text-anchor:middle;stroke-width:0.264583">Fidelitas</tspan></text>
      </g>
      <g
         id="g990"
         inkscape:label="Text (Truth | Latin)"
         style="display:none">
        <text
           xml:space="preserve"
           style="font-style:normal;font-variant:normal;font-weight:normal;font-stretch:normal;font-size:17.6389px;line-height:1.25;font-family:'American Captain';-inkscape-font-specification:'American Captain';text-align:center;letter-spacing:0px;word-spacing:0px;text-anchor:middle;fill:#000000;fill-opacity:1;stroke:none;stroke-width:0.264583"
           x="475.81326"
           y="131.29395"
           id="text988"><tspan
             sodipodi:role="line"
             id="tspan986"
             x="475.81326"
             y="131.29395"
             style="font-style:normal;font-variant:normal;font-weight:normal;font-stretch:normal;font-size:17.6389px;font-family:'American Captain';-inkscape-font-specification:'American Captain';text-align:center;text-anchor:middle;stroke-width:0.264583">Veritas</tspan></text>
      </g>
      <g
         id="g996"
         inkscape:label="Text (Sacrifice | Latin)"
         style="display:none">
        <text
           xml:space="preserve"
           style="font-style:normal;font-variant:normal;font-weight:normal;font-stretch:normal;font-size:15.875px;line-height:1.25;font-family:'American Captain';-inkscape-font-specification:'American Captain';text-align:center;letter-spacing:0px;word-spacing:0px;text-anchor:middle;fill:#000000;fill-opacity:1;stroke:none;stroke-width:0.264583"
           x="535.66138"
           y="276.14624"
           id="text994"><tspan
             sodipodi:role="line"
             id="tspan992"
             x="535.66138"
             y="276.14624"
             style="font-style:normal;font-variant:normal;font-weight:normal;font-stretch:normal;font-size:15.875px;font-family:'American Captain';-inkscape-font-specification:'American Captain';text-align:center;text-anchor:middle;stroke-width:0.264583">Sacrificium</tspan></text>
      </g>
      <g
         id="layer12"
         inkscape:label="Circular Orbit Measure"
         transform="translate(-26.521738,92.604166)"
         style="display:none">
        <circle
           style="opacity:1;fill:none;fill-opacity:1;stroke:#ffffff;stroke-width:0.264583;stroke-miterlimit:4;stroke-dasharray:none;stroke-opacity:1"
           id="path900"
           cx="357.28262"
           cy="177.14798"
           r="171.91116" />
      </g>
      <g
         id="layer13"
         inkscape:label="Square Orbit Measure"
         style="display:none">
        <rect
           style="opacity:1;fill:none;fill-opacity:1;stroke:#ffffff;stroke-width:0.264583;stroke-miterlimit:4;stroke-dasharray:none;stroke-opacity:1"
           id="rect903"
           width="243.11902"
           height="243.11902"
           x="209.20137"
           y="148.19264" />
      </g>
      <g
         id="layer10"
         inkscape:label="Straight Measure"
         style="display:none"
         transform="translate(-26.521738,92.604166)">
        <rect
           style="opacity:1;fill:#ffffff;fill-opacity:1;stroke:#ffffff;stroke-width:0.0915019;stroke-miterlimit:4;stroke-dasharray:none;stroke-opacity:1"
           id="rect874"
           width="5.2001648"
           height="118.971"
           x="354.65082"
           y="5.3069549" />
      </g>
      <g
         id="g909"
         inkscape:label="Square Measure"
         style="display:none">
        <rect
           style="opacity:1;fill:none;fill-opacity:1;stroke:#ffffff;stroke-width:0.264583;stroke-miterlimit:4;stroke-dasharray:none;stroke-opacity:1"
           id="rect907"
           width="243.11902"
           height="243.11902"
           x="209.20137"
           y="148.19264" />
        <rect
           style="opacity:1;fill:none;fill-opacity:1;stroke:#ffffff;stroke-width:0.264583;stroke-miterlimit:4;stroke-dasharray:none;stroke-opacity:1"
           id="rect913"
           width="9.5779171"
           height="9.5779171"
           x="442.74246"
           y="148.19264" />
      </g>
      <g
         id="layer14"
         inkscape:label="Text Blocker Top"
         style="display:none">
        <rect
           style="fill:#ffffff;stroke:#ffffff;stroke-width:0.208237"
           id="rect885-0"
           width="198.22926"
           height="26.250095"
           x="171.79025"
           y="415.4025" />
      </g>
      <g
         id="layer15"
         inkscape:label="Text Blocker Side"
         style="display:none">
        <rect
           style="fill:#ffffff;stroke:#ffffff;stroke-width:0.208237"
           id="rect885"
           width="26.250097"
           height="198.22926"
           x="343.76941"
           y="415.89682" />
      </g>
    </g>
  </g>
  <g
     inkscape:groupmode="layer"
     id="layer16"
     inkscape:label="Motto"
     transform="translate(-168.05766,-57.082103)"
     sodipodi:insensitive="true"
     style="display:none">
    <g
       id="layer4"
       inkscape:label="Text (Nihilum ex Umbra)"
       style="display:inline"
       transform="matrix(0.70117539,0,0,0.70240739,200.70559,90.339024)">
      <text
         xml:space="preserve"
         id="text902"
         style="font-style:normal;font-variant:normal;font-weight:normal;font-stretch:normal;font-size:10.5833px;line-height:1.25;font-family:Cambria;-inkscape-font-specification:Cambria;letter-spacing:0px;word-spacing:0px;white-space:pre;shape-inside:url(#rect904);fill:#000000;fill-opacity:1;stroke:none" />
      <text
         xml:space="preserve"
         style="font-style:normal;font-variant:normal;font-weight:normal;font-stretch:normal;font-size:52.9167px;line-height:1.25;font-family:'American Captain';-inkscape-font-specification:'American Captain';text-align:center;letter-spacing:0px;word-spacing:0px;text-anchor:middle;fill:#000000;fill-opacity:1;stroke:none;stroke-width:0.264583"
         x="278.0029"
         y="479.80228"
         id="text910"><tspan
           sodipodi:role="line"
           id="tspan908"
           x="278.0029"
           y="479.80228"
           style="font-style:normal;font-variant:normal;font-weight:normal;font-stretch:normal;font-size:52.9167px;font-family:'American Captain';-inkscape-font-specification:'American Captain';text-align:center;text-anchor:middle;fill:#ffffff;fill-opacity:1;stroke-width:0.264583">Nihilum</tspan><tspan
           sodipodi:role="line"
           x="278.0029"
           y="545.94812"
           style="font-style:normal;font-variant:normal;font-weight:normal;font-stretch:normal;font-size:52.9167px;font-family:'American Captain';-inkscape-font-specification:'American Captain';text-align:center;text-anchor:middle;fill:#ffffff;fill-opacity:1;stroke-width:0.264583"
           id="tspan912">ex</tspan><tspan
           sodipodi:role="line"
           x="278.0029"
           y="612.09399"
           style="font-style:normal;font-variant:normal;font-weight:normal;font-stretch:normal;font-size:52.9167px;font-family:'American Captain';-inkscape-font-specification:'American Captain';text-align:center;text-anchor:middle;fill:#ffffff;fill-opacity:1;stroke-width:0.264583"
           id="tspan914">Umbra</tspan></text>
    </g>
  </g>
  <g
     inkscape:groupmode="layer"
     id="g2405"
     inkscape:label="Inner Path"
     style="display:inline"
     transform="translate(-168.05766,-57.082103)"
     sodipodi:insensitive="true">
    <ellipse
       style="fill:none;fill-opacity:0.839357;stroke:#ffffff;stroke-width:4.04214;stroke-miterlimit:4;stroke-dasharray:none;stroke-opacity:1"
       id="circle2403"
       cx="432.46582"
       cy="321.52374"
       rx="229.23792"
       ry="229.25311" />
  </g>
  <g
     inkscape:groupmode="layer"
     id="g1145"
     inkscape:label="Outer Path"
     style="display:inline"
     transform="translate(-168.05766,-57.082103)"
     sodipodi:insensitive="true">
    <circle
       style="fill:none;fill-opacity:0.839357;stroke:#ffffff;stroke-width:4.62444;stroke-miterlimit:4;stroke-dasharray:none;stroke-opacity:1"
       id="circle1143"
       cx="432.64096"
       cy="321.66547"
       r="262.27112" />
  </g>
  <g
     inkscape:groupmode="layer"
     id="layer9"
     inkscape:label="Text Path"
     style="display:none"
     transform="translate(-168.05766,-57.082103)"
     sodipodi:insensitive="true">
    <circle
       style="fill:none;fill-opacity:0.839357;stroke:#ffffff;stroke-width:1.32292;stroke-miterlimit:4;stroke-dasharray:none;stroke-opacity:1"
       id="path1110"
       cx="254"
       cy="142.875"
       r="75.028282" />
  </g>
  <g
     inkscape:groupmode="layer"
     id="layer18"
     inkscape:label="Scientiae Fidimus"
     style="display:inline"
     transform="translate(-168.05766,-57.082103)">
    <g
       aria-label="memento vivere·Scientiae fidimus·veritas te liberabit·caro infirma est, machina immortalis est·deus ex machina·"
       transform="matrix(-1.3541226,-2.769178,2.7643202,-1.356502,381.58349,1218.327)"
       id="text1120-8"
       style="font-size:12.3472px;line-height:1.25;font-family:Cambria;-inkscape-font-specification:Cambria;letter-spacing:0px;word-spacing:0px;fill:#ffffff;fill-opacity:0.184314;stroke-width:0.264583">
      <path
         d="m 333.22652,145.16624 -4.21892,-0.1795 0.074,-1.73939 8.94362,0.38053 -0.0803,1.88742 -3.81629,0.81394 3.73336,1.13515 -0.0808,1.89975 -8.94363,-0.38053 0.074,-1.73938 4.21892,0.17951 -3.52916,-1.28713 z"
         style="font-family:'American Captain';-inkscape-font-specification:'American Captain';fill-opacity:0.25"
         id="path26181" />
      <path
         d="m 337.63566,150.74409 -0.39797,3.45909 -1.69123,0.11614 0.22298,-1.93807 -2.1098,-0.24274 -0.16935,1.47196 -1.53329,-0.17641 0.16935,-1.47195 -1.93807,-0.22298 -0.21451,1.86448 -1.62067,-0.49718 0.38951,-3.38549 z"
         style="font-family:'American Captain';-inkscape-font-specification:'American Captain';fill-opacity:0.25"
         id="path26183" />
      <path
         d="m 332.07424,156.60073 -4.14894,-0.78606 0.32408,-1.71052 8.79526,1.66634 -0.35166,1.8561 -3.89378,0.25507 3.53063,1.66169 -0.35395,1.86824 -8.79526,-1.66635 0.32407,-1.71052 4.14894,0.78605 -3.30665,-1.78262 z"
         style="font-family:'American Captain';-inkscape-font-specification:'American Captain';fill-opacity:0.25"
         id="path26185" />
      <path
         d="m 335.62931,162.76473 -0.896,3.36465 -1.69017,-0.13065 0.50201,-1.88516 -2.0522,-0.5465 -0.38127,1.43177 -1.49143,-0.39716 0.38128,-1.43177 -1.88516,-0.50201 -0.48295,1.81357 -1.5313,-0.72722 0.87693,-3.29307 z"
         style="font-family:'American Captain';-inkscape-font-specification:'American Captain';fill-opacity:0.25"
         id="path26187" />
      <path
         d="m 334.31736,167.57548 -0.54372,1.61484 -3.69675,-0.2806 3.4052,1.14653 -0.58705,1.74355 -8.48375,-2.85646 0.58705,-1.74356 3.85294,0.28107 -3.54562,-1.1938 0.52795,-1.56803 z"
         style="font-family:'American Captain';-inkscape-font-specification:'American Captain';fill-opacity:0.25"
         id="path26189" />
      <path
         d="m 331.07979,176.3017 -1.71077,-0.22205 0.45499,-1.10789 -6.73873,-2.76742 0.6942,-1.69039 6.73873,2.76742 0.45498,-1.10789 1.36367,1.06724 z"
         style="font-family:'American Captain';-inkscape-font-specification:'American Captain';fill-opacity:0.25"
         id="path26191" />
      <path
         d="m 328.19953,178.77915 q 0.0706,-0.14413 -0.0846,-0.2202 l -4.90058,-2.40172 q -0.0887,-0.0435 -0.14392,-0.043 -0.0496,0.017 -0.0985,0.11675 l -0.29886,0.6098 q -0.0489,0.0998 -0.0265,0.13826 0.0281,0.055 0.11675,0.0985 l 4.90058,2.40171 q 0.15522,0.0761 0.22586,-0.0681 z m -6.66733,-0.28376 q -0.23283,-0.11411 -0.41632,-0.27278 -0.1724,-0.15325 -0.26242,-0.36237 -0.09,-0.20912 -0.0811,-0.47977 0.02,-0.26521 0.18299,-0.59783 l 0.91287,-1.86266 q 0.16301,-0.33262 0.36039,-0.5109 0.20846,-0.17284 0.42888,-0.22981 0.22043,-0.057 0.44717,-0.0146 0.23783,0.0478 0.47066,0.16191 l 5.85409,2.86902 q 0.47675,0.23365 0.62895,0.6245 0.15786,0.40737 -0.11926,0.97283 l -0.97807,1.99571 q -0.27712,0.56545 -0.69037,0.67918 -0.40759,0.13025 -0.88434,-0.1034 z"
         style="font-family:'American Captain';-inkscape-font-specification:'American Captain';fill-opacity:0.25"
         id="path26193" />
      <path
         d="m 325.30687,187.26277 -0.94629,1.54883 -6.77623,-6.07894 0.97204,-1.59098 8.50143,3.25521 -0.94629,1.54884 -1.06356,-0.4617 -4.26655,-1.89773 3.65033,2.9537 z"
         style="font-family:'American Captain';-inkscape-font-specification:'American Captain';fill-opacity:0.25"
         id="path26195" />
      <path
         d="m 323.79631,189.60001 -1.01295,1.47623 -7.38118,-5.06472 1.01294,-1.47623 z"
         style="font-family:'American Captain';-inkscape-font-specification:'American Captain';fill-opacity:0.25"
         id="path26197" />
      <path
         d="m 320.20761,194.55039 -1.10448,1.44031 -6.09672,-6.76024 1.13454,-1.47949 8.11034,4.13438 -1.10448,1.4403 -1.00889,-0.57139 -4.0424,-2.33747 3.31816,3.3225 z"
         style="font-family:'American Captain';-inkscape-font-specification:'American Captain';fill-opacity:0.25"
         id="path26199" />
      <path
         d="m 318.40015,196.80927 -2.29427,2.61917 -1.45725,-0.86613 1.28544,-1.46747 -1.5975,-1.39935 -0.97629,1.11454 -1.16097,-1.01696 0.97628,-1.11454 -1.46747,-1.28544 -1.23663,1.41175 -1.05046,-1.33052 2.24545,-2.56344 z"
         style="font-family:'American Captain';-inkscape-font-specification:'American Captain';fill-opacity:0.25"
         id="path26201" />
      <path
         d="m 312.71786,200.70416 -2.18543,-2.17997 -0.61911,0.62067 q -0.12208,0.12238 0.009,0.25318 l 1.92317,1.91837 q 0.13113,0.1308 0.25321,0.008 z m -4.63687,-0.64901 q -0.2098,-0.20928 -0.23639,-0.53228 -0.0353,-0.31427 0.24371,-0.594 l -2.68204,-1.34992 1.30798,-1.31126 2.62973,1.40237 0.16567,-0.16609 -2.01933,-2.01429 1.26438,-1.26754 6.33773,6.3219 -2.39796,2.40396 q -0.44471,0.44583 -0.87255,0.42017 -0.42782,-0.008 -0.80372,-0.38315 z"
         style="font-family:'American Captain';-inkscape-font-specification:'American Captain';fill-opacity:0.25"
         id="path26203" />
      <path
         d="m 310.84844,204.716 -2.61341,2.30082 -1.33314,-1.04713 1.46425,-1.28911 -1.40333,-1.594 -1.11209,0.97907 -1.01987,-1.15842 1.11209,-0.97908 -1.28911,-1.46425 -1.40865,1.24016 -0.86977,-1.45508 2.55781,-2.25186 z"
         style="font-family:'American Captain';-inkscape-font-specification:'American Captain';fill-opacity:0.25"
         id="path26205" />
      <path
         d="m 304.40066,204.38059 q 0.24689,0.30848 0.20264,0.70765 -0.0443,0.39917 -0.35273,0.64606 -0.30848,0.2469 -0.70765,0.20264 -0.39917,-0.0443 -0.64606,-0.35273 -0.2469,-0.30847 -0.20264,-0.70764 0.052,-0.38953 0.36045,-0.63643 0.30847,-0.24689 0.69992,-0.21228 0.39917,0.0443 0.64607,0.35273 z"
         style="font-family:'American Captain';-inkscape-font-specification:'American Captain';fill-opacity:0.25"
         id="path26207" />
      <path
         d="m 299.31801,203.03141 1.23636,1.16315 -1.56133,1.12798 q -0.17015,0.12293 -0.0617,0.27305 l 0.95445,1.32113 q 0.10846,0.15013 0.1902,0.13677 0.0817,-0.0134 0.23187,-0.12181 l 0.75064,-0.5423 q 0.16014,-0.11569 0.32473,-0.20414 0.16181,-0.0712 0.34699,-0.0679 0.17517,0.0105 0.36092,0.12006 0.17574,0.11676 0.37097,0.38699 l 1.77874,2.4621 q 0.31091,0.43037 0.26148,0.84689 -0.0522,0.43376 -0.56264,0.80252 l -2.00171,1.44613 -1.22635,-1.17039 1.6414,-1.18583 q 0.18015,-0.13015 0.0645,-0.29029 l -0.95444,-1.32112 q -0.0795,-0.1101 -0.1585,-0.11398 -0.089,0.003 -0.19907,0.0829 l -0.91078,0.65799 q -0.3503,0.25307 -0.65338,0.21307 -0.30585,-0.0228 -0.6023,-0.4331 l -1.72813,-2.39205 q -0.43384,-0.60051 -0.36439,-1.03149 0.0594,-0.42375 0.67997,-0.87205 z"
         style="font-family:'American Captain';-inkscape-font-specification:'American Captain';fill-opacity:0.25"
         id="path26209" />
      <path
         d="m 294.60596,206.29525 q 0.65694,-0.41655 1.08954,-0.31074 0.43261,0.10582 0.82933,0.73147 l 3.46471,5.46405 q 0.28432,0.44838 0.18613,0.84691 -0.10861,0.40513 -0.484,0.64317 l -1.99167,1.2629 -1.15331,-1.24243 1.44943,-0.91907 q 0.13556,-0.086 0.043,-0.23194 l -2.82334,-4.45257 q -0.0926,-0.14599 -0.22813,-0.06 l -1.44943,0.91907 -0.62151,-1.57963 z"
         style="font-family:'American Captain';-inkscape-font-specification:'American Captain';fill-opacity:0.25"
         id="path26211" />
      <path
         d="m 296.53675,215.61475 -1.55427,0.88858 -4.44292,-7.77134 1.55427,-0.88858 z"
         style="font-family:'American Captain';-inkscape-font-specification:'American Captain';fill-opacity:0.25"
         id="path26213" />
      <path
         d="m 293.96514,217.07883 -3.09962,1.58621 -1.03414,-1.34324 1.73666,-0.88872 -0.96748,-1.89055 -1.31898,0.67498 -0.70311,-1.37394 1.31899,-0.67499 -0.88873,-1.73666 -1.67072,0.85498 -0.48457,-1.62448 3.03367,-1.55247 z"
         style="font-family:'American Captain';-inkscape-font-specification:'American Captain';fill-opacity:0.25"
         id="path26215" />
      <path
         d="m 289.49884,219.3306 -1.56359,0.67713 -2.26632,-2.93403 1.42787,3.29713 -1.68822,0.73111 -3.55741,-8.21451 1.68823,-0.7311 2.37051,3.05037 -1.48675,-3.4331 1.51827,-0.65751 z"
         style="font-family:'American Captain';-inkscape-font-specification:'American Captain';fill-opacity:0.25"
         id="path26217" />
      <path
         d="m 280.83333,222.77372 -0.98035,-1.41949 1.12758,-0.40371 -2.45557,-6.85851 1.72044,-0.61598 2.45557,6.85851 1.12759,-0.40371 0.12013,1.72748 z"
         style="font-family:'American Captain';-inkscape-font-specification:'American Captain';fill-opacity:0.25"
         id="path26219" />
      <path
         d="m 279.52523,223.18856 -1.71207,0.52359 -2.61798,-8.56034 1.71207,-0.5236 z"
         style="font-family:'American Captain';-inkscape-font-specification:'American Captain';fill-opacity:0.25"
         id="path26221" />
      <path
         d="m 273.07939,216.88259 -0.11221,-1.11716 1.74948,-0.43475 0.5891,9.07758 -1.85733,0.46155 -3.72858,-8.29742 1.74948,-0.43475 0.42377,1.03974 z m 0.15072,1.42566 -0.80285,0.1995 1.16071,2.98131 z"
         style="font-family:'American Captain';-inkscape-font-specification:'American Captain';fill-opacity:0.25"
         id="path26223" />
      <path
         d="m 270.79676,225.46628 -3.42699,0.61603 -0.59871,-1.58597 1.92008,-0.34515 -0.37573,-2.09021 -1.45829,0.26214 -0.27306,-1.51906 1.45829,-0.26214 -0.34515,-1.92008 -1.84717,0.33204 0.009,-1.69519 3.35407,-0.60291 z"
         style="font-family:'American Captain';-inkscape-font-specification:'American Captain';fill-opacity:0.25"
         id="path26225" />
      <path
         d="m 264.20313,226.5291 -3.46489,0.34389 -0.47179,-1.62823 1.94131,-0.19268 -0.20974,-2.11334 -1.47442,0.14634 -0.15244,-1.53585 1.47442,-0.14634 -0.3573,-3.60004 1.83074,-0.1817 z"
         style="font-family:'American Captain';-inkscape-font-specification:'American Captain';fill-opacity:0.25"
         id="path26227" />
      <path
         d="m 259.45646,226.95279 -1.78779,0.0956 -0.47796,-8.93895 1.78779,-0.0956 z"
         style="font-family:'American Captain';-inkscape-font-specification:'American Captain';fill-opacity:0.25"
         id="path26229" />
      <path
         d="m 254.67341,225.55301 -0.0115,-5.81552 -0.8396,0.002 q -0.11113,2.2e-4 -0.13575,0.0373 -0.0369,0.0495 -0.0368,0.14824 l 0.0108,5.45745 q 3.4e-4,0.17286 0.16086,0.17254 z m -2.80237,-5.99519 q -0.001,-0.74083 0.30657,-1.06247 0.30804,-0.32164 1.08591,-0.32318 l 3.17322,-0.006 0.0178,8.9517 -3.5066,0.007 q -0.53093,0.001 -0.79081,-0.29476 -0.27222,-0.29579 -0.2732,-0.78968 z"
         style="font-family:'American Captain';-inkscape-font-specification:'American Captain';fill-opacity:0.25"
         id="path26231" />
      <path
         d="m 250.6716,227.06231 -1.78816,-0.0884 0.4422,-8.94079 1.78816,0.0884 z"
         style="font-family:'American Captain';-inkscape-font-specification:'American Captain';fill-opacity:0.25"
         id="path26233" />
      <path
         d="m 246.37497,222.04021 0.45979,-4.19764 1.7306,0.18956 -0.97469,8.8985 -1.87789,-0.2057 -0.55824,-3.86198 -1.38102,3.64957 -1.89017,-0.20704 0.9747,-8.8985 1.73061,0.18956 -0.45979,4.19764 1.51907,-3.43571 z"
         style="font-family:'American Captain';-inkscape-font-specification:'American Captain';fill-opacity:0.25"
         id="path26235" />
      <path
         d="m 240.73476,217.0115 q 0.76414,0.14552 1.00732,0.51862 0.24317,0.3731 0.10459,1.10086 l -1.41588,7.43522 -1.79513,-0.34184 1.34428,-7.05922 q 0.0185,-0.097 0.003,-0.15017 -0.0271,-0.0555 -0.13631,-0.0762 l -0.6186,-0.1178 q -0.10916,-0.0208 -0.14266,0.0231 -0.0456,0.0416 -0.0641,0.13862 l -1.34428,7.05922 -1.79513,-0.34185 1.41588,-7.43522 q 0.13859,-0.72775 0.50187,-0.98537 0.36329,-0.25762 1.12743,-0.1121 z"
         style="font-family:'American Captain';-inkscape-font-specification:'American Captain';fill-opacity:0.25"
         id="path26237" />
      <path
         d="m 236.38719,216.11621 -0.11175,1.69383 -1.86332,-0.48801 q -0.20306,-0.0532 -0.24998,0.12599 l -0.41293,1.57665 q -0.0469,0.17916 0.0154,0.23377 0.0623,0.0546 0.24145,0.10152 l 0.89582,0.23462 q 0.19111,0.05 0.36402,0.12087 0.15784,0.0796 0.27302,0.22466 0.10323,0.14191 0.13679,0.35492 0.0216,0.20988 -0.0628,0.53237 l -0.76955,2.93831 q -0.13451,0.51361 -0.48744,0.74027 -0.368,0.23548 -0.97716,0.0759 l -2.38887,-0.62565 0.12371,-1.69069 1.95887,0.51303 q 0.215,0.0563 0.26505,-0.1348 l 0.41293,-1.57666 q 0.0344,-0.13139 -0.0128,-0.19481 -0.0591,-0.0665 -0.19054,-0.10095 l -1.08694,-0.28467 q -0.41805,-0.10949 -0.57987,-0.36885 -0.17689,-0.25055 -0.0486,-0.74027 l 0.74765,-2.8547 q 0.18769,-0.71666 0.56451,-0.93706 0.36487,-0.22353 1.10542,-0.0296 z"
         style="font-family:'American Captain';-inkscape-font-specification:'American Captain';fill-opacity:0.25"
         id="path26239" />
      <path
         d="m 230.85502,219.24824 q -0.11905,0.37675 -0.4754,0.56197 -0.35636,0.18522 -0.73311,0.0662 -0.37674,-0.11905 -0.56196,-0.47541 -0.18522,-0.35635 -0.0662,-0.7331 0.11905,-0.37675 0.47541,-0.56197 0.35263,-0.17344 0.72938,-0.0544 0.37675,0.11905 0.56569,0.46363 0.18522,0.35636 0.0662,0.7331 z"
         style="font-family:'American Captain';-inkscape-font-specification:'American Captain';fill-opacity:0.25"
         id="path26241" />
      <path
         d="m 223.57395,221.46164 -1.69845,-0.64003 4.70487,-7.79327 1.74466,0.65745 -1.60838,8.96013 -1.69845,-0.64004 0.25472,-1.13113 1.06659,-4.54611 -2.21915,4.13818 z"
         style="font-family:'American Captain';-inkscape-font-specification:'American Captain';fill-opacity:0.25"
         id="path26243" />
      <path
         d="m 220.86633,220.37588 -3.1703,-1.43976 0.4082,-1.64534 1.77626,0.80668 0.87816,-1.93366 -1.34906,-0.61266 0.63819,-1.40528 1.34906,0.61267 0.80668,-1.77626 -1.70881,-0.77605 0.9703,-1.39005 3.10285,1.40913 z"
         style="font-family:'American Captain';-inkscape-font-specification:'American Captain';fill-opacity:0.25"
         id="path26245" />
      <path
         d="m 215.47658,216.04992 1.45739,-2.72109 -0.77279,-0.4139 q -0.15238,-0.0816 -0.23982,0.0816 l -1.28251,2.39456 q -0.0874,0.16326 0.0649,0.24488 z m -0.71527,-4.62711 q 0.13991,-0.26122 0.44153,-0.37981 0.29074,-0.12441 0.63904,0.0621 l 0.51943,-2.95734 1.63265,0.87444 -0.58473,2.92236 0.2068,0.11076 1.34664,-2.51429 1.57823,0.84529 -4.22645,7.89116 -2.9932,-1.60313 q -0.5551,-0.29731 -0.65387,-0.71439 -0.11549,-0.41202 0.13519,-0.88004 z"
         style="font-family:'American Captain';-inkscape-font-specification:'American Captain';fill-opacity:0.25"
         id="path26247" />
      <path
         d="m 211.18488,215.45092 -1.53148,-0.92731 4.63655,-7.6574 1.53148,0.92731 z"
         style="font-family:'American Captain';-inkscape-font-specification:'American Captain';fill-opacity:0.25"
         id="path26249" />
      <path
         d="m 205.75453,211.97795 0.55172,-1.63452 0.99776,0.6625 4.0296,-6.06889 1.52237,1.01082 -4.0296,6.06888 0.99776,0.6625 -1.3129,1.1291 z"
         style="font-family:'American Captain';-inkscape-font-specification:'American Captain';fill-opacity:0.25"
         id="path26251" />
      <path
         d="m 208.48926,204.25659 0.79613,-0.79172 1.44083,1.08338 -6.67258,6.18274 -1.52965,-1.15016 4.08698,-8.12688 1.44083,1.08337 -0.53954,0.98465 z m -1.01124,1.01617 -0.66121,-0.49716 -1.58137,2.78113 z"
         style="font-family:'American Captain';-inkscape-font-specification:'American Captain';fill-opacity:0.25"
         id="path26253" />
      <path
         d="m 206.12938,201.01782 -0.84318,1.47328 -1.46063,-1.25565 q -0.15917,-0.13683 -0.27991,0.004 l -1.06247,1.23592 q -0.12073,0.14044 -0.0887,0.21683 0.032,0.0764 0.17247,0.19711 l 0.70223,0.60368 q 0.14981,0.12879 0.27416,0.26825 0.10693,0.14077 0.14685,0.32163 0.0306,0.17281 -0.0327,0.37896 -0.0726,0.1981 -0.28993,0.4509 l -1.98006,2.30331 q -0.34611,0.40261 -0.76268,0.45156 -0.43399,0.0503 -0.91151,-0.36024 l -1.8726,-1.60981 0.85254,-1.46524 1.53554,1.32005 q 0.16853,0.14488 0.29732,-0.005 l 1.06247,-1.23592 q 0.0885,-0.10299 0.0739,-0.18069 -0.024,-0.0857 -0.12697,-0.17429 l -0.85204,-0.73246 q -0.3277,-0.28171 -0.35941,-0.58577 -0.0491,-0.30274 0.2809,-0.68662 l 1.92372,-2.23777 q 0.48294,-0.56178 0.91825,-0.59463 0.42593,-0.0409 1.00644,0.45814 z"
         style="font-family:'American Captain';-inkscape-font-specification:'American Captain';fill-opacity:0.25"
         id="path26255" />
      <path
         d="m 192.8804,200.88179 0.87374,-1.48748 0.84153,0.85221 5.18355,-5.11858 1.28398,1.30028 -5.18355,5.11858 0.84153,0.85221 -1.51574,0.83734 z"
         style="font-family:'American Captain';-inkscape-font-specification:'American Captain';fill-opacity:0.25"
         id="path26257" />
      <path
         d="m 191.86741,199.80095 -2.29666,-2.61706 1.04924,-1.33148 1.28679,1.4663 1.59622,-1.4008 -0.9773,-1.11365 1.16005,-1.01802 0.9773,1.11364 1.4663,-1.28678 -1.23792,-1.41062 1.45646,-0.86746 2.2478,2.56139 z"
         style="font-family:'American Captain';-inkscape-font-specification:'American Captain';fill-opacity:0.25"
         id="path26259" />
      <path
         d="m 187.56163,194.71214 -1.10272,-1.47262 5.83122,-4.36646 -1.08052,-1.44298 1.51928,-0.75202 1.99821,2.66852 z"
         style="font-family:'American Captain';-inkscape-font-specification:'American Captain';fill-opacity:0.25"
         id="path26261" />
      <path
         d="m 184.83406,190.99557 -1.00799,-1.47963 7.39813,-5.03994 1.00799,1.47962 z"
         style="font-family:'American Captain';-inkscape-font-specification:'American Captain';fill-opacity:0.25"
         id="path26263" />
      <path
         d="m 183.54879,186.17067 2.0057,-1.21686 -0.43551,-0.71783 q -0.0512,-0.0845 -0.12548,-0.11161 -0.0848,-0.0208 -0.19037,0.0433 l -1.65734,1.00551 q -0.14779,0.0897 -0.0645,0.2269 z m 2.82498,-2.98481 q -0.12668,0.0769 -0.13048,0.16581 -0.0144,0.0954 0.0497,0.20093 l 0.4227,0.69671 1.80513,-1.09517 -0.46753,-0.77061 q -0.0576,-0.095 -0.10852,-0.10746 -0.0614,-0.006 -0.14589,0.0452 z m -2.57699,-0.41508 q 0.28502,-0.17293 0.5666,-0.1849 0.26461,-0.0161 0.5348,0.23878 -0.17103,-0.3295 -0.0537,-0.58842 0.11091,-0.26947 0.36426,-0.42318 l 1.98459,-1.20405 q 0.63338,-0.38427 1.06795,-0.28688 0.43458,0.0974 0.83806,0.76244 l 1.68439,2.77631 -7.65332,4.64327 -1.81248,-2.98744 q -0.27539,-0.45392 -0.15654,-0.82931 0.11246,-0.38595 0.53471,-0.64213 z"
         style="font-family:'American Captain';-inkscape-font-specification:'American Captain';fill-opacity:0.25"
         id="path26265" />
      <path
         d="m 180.07659,183.35554 -1.60781,-3.08847 1.33599,-1.0435 0.90083,1.73042 1.88375,-0.98065 -0.68418,-1.31424 1.369,-0.71269 0.68418,1.31424 1.73042,-0.90083 -0.86663,-1.6647 1.62106,-0.4959 1.57361,3.02276 z"
         style="font-family:'American Captain';-inkscape-font-specification:'American Captain';fill-opacity:0.25"
         id="path26267" />
      <path
         d="m 178.50328,176.6301 2.82466,-1.24485 -0.35354,-0.80221 q -0.0697,-0.15818 -0.23919,-0.0835 l -2.4857,1.09547 q -0.16948,0.0747 -0.0998,0.23288 z m 2.28818,-4.08485 q 0.27117,-0.1195 0.58179,-0.027 0.30564,0.0812 0.46498,0.44275 l 2.23155,-2.00894 0.74691,1.69479 -2.26142,1.94115 0.0946,0.21467 2.60998,-1.15024 0.72201,1.6383 -8.1915,3.61007 -1.36933,-3.10712 q -0.25395,-0.57623 -0.0747,-0.96556 0.16296,-0.39565 0.6488,-0.60977 z"
         style="font-family:'American Captain';-inkscape-font-specification:'American Captain';fill-opacity:0.25"
         id="path26269" />
      <path
         d="m 182.24121,169.18415 1.1004,-0.22306 0.60703,1.69741 -8.9736,1.49134 -0.64445,-1.80205 7.88428,-4.53738 0.60703,1.69742 -0.9923,0.52533 z m -1.40353,0.29212 -0.27856,-0.77895 -2.85071,1.4522 z"
         style="font-family:'American Captain';-inkscape-font-specification:'American Captain';fill-opacity:0.25"
         id="path26271" />
      <path
         d="m 174.47766,165.58036 2.26031,-0.62812 -0.2248,-0.80896 q -0.0265,-0.0952 -0.0906,-0.14143 -0.076,-0.0429 -0.19498,-0.01 l -1.86773,0.51903 q -0.16655,0.0463 -0.12358,0.20093 z m 3.52782,-2.10808 q -0.14276,0.0397 -0.17051,0.12427 -0.0396,0.0879 -0.007,0.20688 l 0.21819,0.78516 2.03428,-0.56531 -0.24133,-0.86844 q -0.0298,-0.10707 -0.0754,-0.13284 -0.0575,-0.0225 -0.15268,0.004 z m -2.36823,-1.09755 q 0.3212,-0.0893 0.5955,-0.0245 0.25909,0.0562 0.45013,0.3747 -0.0754,-0.36351 0.10767,-0.58097 0.17975,-0.22936 0.46526,-0.3087 l 2.23653,-0.62152 q 0.71378,-0.19835 1.10573,0.0131 0.39196,0.21145 0.60023,0.96093 l 0.86945,3.12875 -8.62489,2.39678 -0.93557,-3.36668 q -0.14215,-0.51154 0.0739,-0.84071 0.21278,-0.34106 0.68864,-0.4733 z"
         style="font-family:'American Captain';-inkscape-font-specification:'American Captain';fill-opacity:0.25"
         id="path26273" />
      <path
         d="m 171.93859,162.03646 -0.38708,-1.748 8.73998,-1.93544 0.38709,1.748 z"
         style="font-family:'American Captain';-inkscape-font-specification:'American Captain';fill-opacity:0.25"
         id="path26275" />
      <path
         d="m 170.70142,155.66182 1.56689,-0.72175 0.20386,1.1802 7.17854,-1.24001 0.31105,1.80072 -7.17853,1.24001 0.20386,1.1802 -1.72241,-0.17861 z"
         style="font-family:'American Captain';-inkscape-font-specification:'American Captain';fill-opacity:0.25"
         id="path26277" />
      <path
         d="m 174.95162,153.74611 q -0.39211,0.0487 -0.70889,-0.19822 -0.31679,-0.24686 -0.36543,-0.63897 -0.0486,-0.3921 0.19822,-0.70889 0.24687,-0.31679 0.63897,-0.36543 0.39211,-0.0486 0.70889,0.19823 0.30454,0.24838 0.35318,0.64048 0.0486,0.39211 -0.18597,0.70738 -0.24687,0.31678 -0.63897,0.36542 z"
         style="font-family:'American Captain';-inkscape-font-specification:'American Captain';fill-opacity:0.25"
         id="path26279" />
      <path
         d="m 178.96063,149.14361 q 0.0598,0.77558 -0.23653,1.10802 -0.29634,0.33245 -1.03498,0.38942 l -6.45078,0.49746 q -0.52936,0.0408 -0.83529,-0.2328 -0.30688,-0.28593 -0.34106,-0.72912 l -0.18132,-2.35133 1.6382,-0.43593 0.13196,1.71118 q 0.0123,0.16004 0.18469,0.14675 l 5.25665,-0.40538 q 0.17235,-0.0133 0.16001,-0.17332 l -0.13196,-1.71119 1.68662,0.19192 z"
         style="font-family:'American Captain';-inkscape-font-specification:'American Captain';fill-opacity:0.25"
         id="path26281" />
      <path
         d="m 177.60762,144.4928 1.11323,0.14611 0.0233,1.80254 -8.97191,-1.50145 -0.0248,-1.91366 8.93003,-1.73324 0.0233,1.80254 -1.10908,0.17489 z m -1.42237,-0.17916 -0.0107,-0.82719 -3.16769,0.44851 z"
         style="font-family:'American Captain';-inkscape-font-specification:'American Captain';fill-opacity:0.25"
         id="path26283" />
      <path
         d="m 171.42974,138.56518 3.08166,0.17801 0.0505,-0.87519 q 0.01,-0.17257 -0.17493,-0.18325 l -2.71186,-0.15665 q -0.1849,-0.0107 -0.19487,0.16189 z m 3.89732,-2.59472 q 0.29584,0.0171 0.53027,0.24088 0.23514,0.21147 0.21235,0.60592 l 2.90157,-0.77235 -0.1068,1.849 -2.8973,0.69839 -0.0135,0.2342 2.84745,0.16448 -0.10324,1.78737 -8.93682,-0.51623 0.19581,-3.38983 q 0.0363,-0.62866 0.37318,-0.89366 0.32526,-0.27804 0.8553,-0.24742 z"
         style="font-family:'American Captain';-inkscape-font-specification:'American Captain';fill-opacity:0.25"
         id="path26285" />
      <path
         d="m 171.96542,132.50075 q -0.0206,0.15918 0.15078,0.18142 l 5.41211,0.70207 q 0.098,0.0127 0.15012,-0.005 0.0415,-0.032 0.0558,-0.14217 l 0.0874,-0.67345 q 0.0143,-0.1102 -0.0193,-0.13945 -0.0442,-0.0431 -0.14217,-0.0558 l -5.41211,-0.70207 q -0.17143,-0.0222 -0.19208,0.13694 z m 6.40577,-1.87082 q 0.25713,0.0334 0.48184,0.12476 0.21246,0.0898 0.36482,0.25899 0.15237,0.16917 0.2308,0.42836 0.0662,0.2576 0.0185,0.62494 l -0.26686,2.05709 q -0.0477,0.36734 -0.17737,0.59952 -0.14197,0.2306 -0.33246,0.3553 -0.19048,0.12469 -0.41883,0.15733 -0.24059,0.031 -0.49772,-0.002 l -6.46516,-0.83868 q -0.52651,-0.0683 -0.79609,-0.38963 -0.28024,-0.33517 -0.19923,-0.95965 l 0.28591,-2.20403 q 0.081,-0.62447 0.4359,-0.8648 0.34424,-0.25416 0.87076,-0.18586 z"
         style="font-family:'American Captain';-inkscape-font-specification:'American Captain';fill-opacity:0.25"
         id="path26287" />
      <path
         d="m 171.29529,126.72856 0.36008,-1.75375 8.7688,1.80043 -0.36009,1.75376 z"
         style="font-family:'American Captain';-inkscape-font-specification:'American Captain';fill-opacity:0.25"
         id="path26289" />
      <path
         d="m 171.8978,123.77915 0.42875,-1.64909 3.70734,0.0198 -3.47743,-0.9041 0.46293,-1.78054 8.66369,2.25249 -0.46292,1.78054 -3.86317,-0.009 3.62083,0.94139 -0.41632,1.60129 z"
         style="font-family:'American Captain';-inkscape-font-specification:'American Captain';fill-opacity:0.25"
         id="path26291" />
      <path
         d="m 173.40906,118.1904 1.0902,-3.30683 1.67971,0.22874 -0.61083,1.85277 2.01694,0.66494 0.46391,-1.40716 1.4658,0.48325 -0.46392,1.40716 3.43583,1.13273 -0.57603,1.74723 z"
         style="font-family:'American Captain';-inkscape-font-specification:'American Captain';fill-opacity:0.25"
         id="path26293" />
      <path
         d="m 174.94851,113.67386 0.63846,-1.67263 8.36316,3.19233 -0.63847,1.67263 z"
         style="font-family:'American Captain';-inkscape-font-specification:'American Captain';fill-opacity:0.25"
         id="path26295" />
      <path
         d="m 178.1807,109.84926 2.82149,1.25201 0.35557,-0.8013 q 0.0701,-0.158 -0.0992,-0.23312 l -2.48291,-1.10178 q -0.16928,-0.0751 -0.2394,0.0829 z m 4.56148,-1.05575 q 0.27086,0.12019 0.41145,0.41221 0.14559,0.28074 -0.0147,0.64189 l 2.98766,0.29913 -0.75121,1.69289 -2.95761,-0.36685 -0.0952,0.21444 2.60706,1.15686 -0.72617,1.63646 -8.18232,-3.63085 1.37722,-3.10363 q 0.25541,-0.57558 0.66403,-0.70495 0.40235,-0.14566 0.88764,0.0697 z"
         style="font-family:'American Captain';-inkscape-font-specification:'American Captain';fill-opacity:0.25"
         id="path26297" />
      <path
         d="m 183.51749,106.00922 3.71198,2.01315 -0.82998,1.53037 -7.86896,-4.26763 0.90062,-1.66062 3.78627,0.94379 -2.85622,-2.65869 0.9065,-1.67147 7.86897,4.26763 -0.82999,1.53038 -3.71198,-2.01314 2.60604,2.70559 z"
         style="font-family:'American Captain';-inkscape-font-specification:'American Captain';fill-opacity:0.25"
         id="path26299" />
      <path
         d="m 189.54931,101.81509 0.84441,0.74001 -0.98209,1.51168 -6.62545,-6.23322 1.04264,-1.604868 8.38783,3.520474 -0.98209,1.511684 -1.01931,-0.4708 z m -1.08308,-0.93923 0.45069,-0.69372 -2.88296,-1.387073 z"
         style="font-family:'American Captain';-inkscape-font-specification:'American Captain';fill-opacity:0.25"
         id="path26301" />
      <path
         d="m 186.37728,92.586826 2.13977,-2.746827 1.50467,0.780849 -1.19888,1.539002 1.67537,1.305112 0.91054,-1.168862 1.21757,0.948483 -0.91055,1.168862 1.539,1.198882 1.15336,-1.480559 1.12527,1.267875 -2.09425,2.688383 z"
         style="font-family:'American Captain';-inkscape-font-specification:'American Captain';fill-opacity:0.25"
         id="path26303" />
      <path
         d="m 196.46728,94.275569 -1.46328,-0.860412 1.2727,-1.445797 q 0.13869,-0.157555 -3.3e-4,-0.27993 l -1.22336,-1.076904 q -0.13902,-0.122375 -0.21578,-0.09124 -0.0768,0.03113 -0.19913,0.170151 l -0.61187,0.695095 q -0.13054,0.148287 -0.27145,0.270989 -0.14202,0.105276 -0.32333,0.143066 -0.17315,0.02852 -0.37855,-0.03714 -0.19724,-0.07493 -0.44747,-0.295202 l -2.27991,-2.006956 q -0.39852,-0.350809 -0.44258,-0.767931 -0.0452,-0.434547 0.37091,-0.907212 l 1.63167,-1.853586 1.45513,0.86968 -1.33797,1.519941 q -0.14685,0.166822 0.001,0.297356 l 1.22337,1.076903 q 0.10194,0.08974 0.17981,0.07604 0.086,-0.02297 0.17576,-0.124921 l 0.74241,-0.843382 q 0.28554,-0.324378 0.58995,-0.352508 0.3033,-0.04556 0.68328,0.288935 l 2.21504,1.949848 q 0.55607,0.489501 0.58381,0.925159 0.0359,0.426389 -0.46992,1.001001 z"
         style="font-family:'American Captain';-inkscape-font-specification:'American Captain';fill-opacity:0.25"
         id="path26305" />
      <path
         d="m 195.3653,82.344293 1.50064,0.85095 -0.83928,0.854433 5.19707,5.104854 -1.28054,1.30367 -5.19706,-5.104853 -0.83928,0.854432 -0.86037,-1.502786 z"
         style="font-family:'American Captain';-inkscape-font-specification:'American Captain';fill-opacity:0.25"
         id="path26307" />
      <path
         d="m 201.26367,87.970544 q -0.27013,-0.288341 -0.25704,-0.689744 0.0131,-0.401403 0.30142,-0.671536 0.28834,-0.270133 0.68975,-0.257046 0.4014,0.01309 0.67153,0.301427 0.14351,0.153181 0.24927,0.392485 0.0973,0.230294 0.14114,0.493786 0.0613,0.26406 0.0702,0.526414 0.0264,0.262923 0.0105,0.480792 l -0.46855,0.438966 q -0.0365,-0.219576 -0.0995,-0.43128 -0.054,-0.220145 -0.15243,-0.415534 -0.31252,0.208196 -0.6334,0.136587 -0.31187,-0.08005 -0.52291,-0.305317 z"
         style="font-family:'American Captain';-inkscape-font-specification:'American Captain';fill-opacity:0.25"
         id="path26309" />
      <path
         d="m 203.66561,81.301942 2.6279,3.305402 -1.36275,1.083433 -5.57085,-7.007065 1.47873,-1.175641 3.11481,2.350435 -1.58775,-3.564495 1.4884,-1.183325 5.57084,7.007066 -1.36275,1.083433 -2.6279,-3.305402 1.33916,3.509748 z"
         style="font-family:'American Captain';-inkscape-font-specification:'American Captain';fill-opacity:0.25"
         id="path26311" />
      <path
         d="m 210.85631,79.803353 0.4883,1.011035 -1.49452,1.008019 -3.66459,-8.325881 1.58664,-1.070156 6.34655,6.51697 -1.49452,1.008019 -0.75446,-0.831526 z m -0.63021,-1.28766 0.68584,-0.462583 -2.11219,-2.402928 z"
         style="font-family:'American Captain';-inkscape-font-specification:'American Captain';fill-opacity:0.25"
         id="path26313" />
      <path
         d="m 215.69776,78.034459 q -0.67148,0.39268 -1.1,0.271386 -0.42852,-0.121294 -0.80251,-0.760802 l -3.2661,-5.585033 q -0.26802,-0.458313 -0.15558,-0.85305 0.1231,-0.400971 0.50681,-0.62536 l 2.03576,-1.190507 1.10792,1.283066 -1.48152,0.86639 q -0.13856,0.08103 -0.0513,0.230248 l 2.6615,4.551162 q 0.0873,0.149219 0.22582,0.06819 l 1.48153,-0.86639 0.56434,1.60095 z"
         style="font-family:'American Captain';-inkscape-font-specification:'American Captain';fill-opacity:0.25"
         id="path26315" />
      <path
         d="m 222.39452,74.474606 -1.63389,0.818362 -1.60355,-3.201556 -0.87215,0.436828 1.60355,3.201557 -1.6339,0.818361 -4.00887,-8.003891 1.6339,-0.818362 1.71414,3.422354 0.87215,-0.436829 -1.71414,-3.422353 1.6339,-0.818362 z"
         style="font-family:'American Captain';-inkscape-font-specification:'American Captain';fill-opacity:0.25"
         id="path26317" />
      <path
         d="m 219.51482,65.983452 1.64094,-0.715998 3.57999,8.204691 -1.64094,0.715998 z"
         style="font-family:'American Captain';-inkscape-font-specification:'American Captain';fill-opacity:0.25"
         id="path26319" />
      <path
         d="m 222.27266,64.776862 1.59494,-0.599571 2.11957,3.041737 -1.26431,-3.363245 1.72208,-0.647362 3.14991,8.379219 -1.72207,0.647362 -2.21794,-3.163048 1.31645,3.501936 -1.54871,0.582191 z"
         style="font-family:'American Captain';-inkscape-font-specification:'American Captain';fill-opacity:0.25"
         id="path26321" />
      <path
         d="m 231.64505,69.788248 0.16221,1.111002 -1.72823,0.512772 -0.99563,-9.042027 1.83476,-0.544382 4.09697,8.121848 -1.72823,0.512772 -0.46997,-1.019686 z m -0.2145,-1.417467 0.79309,-0.235313 -1.29325,-2.926248 z"
         style="font-family:'American Captain';-inkscape-font-specification:'American Captain';fill-opacity:0.25"
         id="path26323" />
      <path
         d="m 235.11865,60.748931 1.74931,-0.381093 1.90547,8.74657 -1.74932,0.381094 z"
         style="font-family:'American Captain';-inkscape-font-specification:'American Captain';fill-opacity:0.25"
         id="path26325" />
      <path
         d="m 240.57925,64.477081 0.64858,4.172637 -1.7203,0.267396 -1.37491,-8.845503 1.86671,-0.290153 1.54416,3.583595 0.38355,-3.88323 1.87891,-0.292049 1.3749,8.845503 -1.72029,0.267396 -0.64858,-4.172638 -0.5725,3.712673 z"
         style="font-family:'American Captain';-inkscape-font-specification:'American Captain';fill-opacity:0.25"
         id="path26327" />
      <path
         d="m 247.39306,63.619569 0.28717,4.212967 -1.73693,0.118394 -0.60876,-8.930997 1.88475,-0.12847 1.23011,3.703162 0.71623,-3.83583 1.89707,-0.12931 0.60876,8.930997 -1.73692,0.118394 -0.28717,-4.212967 -0.88981,3.649649 z"
         style="font-family:'American Captain';-inkscape-font-specification:'American Captain';fill-opacity:0.25"
         id="path26329" />
      <path
         d="m 254.47253,60.196379 q -0.16051,-0.0016 -0.16222,0.171266 l -0.0539,5.457196 q -9.8e-4,0.09877 0.0232,0.148404 0.0367,0.0374 0.14779,0.0385 l 0.67907,0.0067 q 0.11111,0.0011 0.13617,-0.0357 0.0375,-0.04902 0.0385,-0.147793 l 0.0539,-5.457196 q 0.002,-0.172852 -0.1588,-0.174438 z m 2.6188,6.138048 q -0.003,0.259279 -0.0666,0.493254 -0.0639,0.221628 -0.21379,0.393016 -0.14987,0.171388 -0.3979,0.280067 -0.24791,0.09633 -0.61831,0.09267 l -2.07423,-0.0205 q -0.37039,-0.0037 -0.61635,-0.104875 -0.24583,-0.11356 -0.39228,-0.287877 -0.14645,-0.174317 -0.20599,-0.397166 -0.0594,-0.235195 -0.0569,-0.494474 l 0.0644,-6.519003 q 0.005,-0.530904 0.29227,-0.836762 0.29949,-0.318083 0.92917,-0.311859 l 2.22239,0.02197 q 0.62968,0.0062 0.91047,0.330042 0.29327,0.311594 0.28802,0.842498 z"
         style="font-family:'American Captain';-inkscape-font-specification:'American Captain';fill-opacity:0.25"
         id="path26331" />
      <path
         d="m 260.21777,60.424865 -0.2482,3.076805 0.87381,0.07049 q 0.1723,0.0139 0.1872,-0.170709 l 0.21842,-2.707588 q 0.0149,-0.184608 -0.15741,-0.198508 z m 2.50523,3.95545 q -0.0238,0.295374 -0.25291,0.52464 -0.21677,0.230259 -0.6106,0.198489 l 0.70601,2.918422 -1.84609,-0.148922 -0.63216,-2.912465 -0.23384,-0.01886 -0.22934,2.842968 -1.78455,-0.143959 0.7198,-8.922734 3.38448,0.273024 q 0.62767,0.05063 0.88492,0.393457 0.27056,0.331508 0.22786,0.860718 z"
         style="font-family:'American Captain';-inkscape-font-specification:'American Captain';fill-opacity:0.25"
         id="path26333" />
      <path
         d="m 267.93319,59.750987 0.20619,1.712754 -1.18583,-0.168068 -1.02226,7.212766 -1.80931,-0.256433 1.02227,-7.212765 -1.18583,-0.168068 0.69846,-1.584537 z"
         style="font-family:'American Captain';-inkscape-font-specification:'American Captain';fill-opacity:0.25"
         id="path26335" />
      <path
         d="m 268.79466,67.897227 -0.38,1.056524 -1.76611,-0.36133 3.37893,-8.445849 1.87498,0.383603 -0.20961,9.094262 -1.76611,-0.361329 0.0655,-1.12087 z m 0.47815,-1.351514 0.81047,0.165815 0.23685,-3.190504 z"
         style="font-family:'American Captain';-inkscape-font-specification:'American Captain';fill-opacity:0.25"
         id="path26337" />
      <path
         d="m 274.5398,61.133165 1.77494,0.483911 -1.91615,7.028325 1.73921,0.474168 -0.73626,1.526983 -3.21635,-0.876887 z"
         style="font-family:'American Captain';-inkscape-font-specification:'American Captain';fill-opacity:0.25"
         id="path26339" />
      <path
         d="m 278.97988,62.390305 1.70426,0.548484 -2.74242,8.521293 -1.70426,-0.548484 z"
         style="font-family:'American Captain';-inkscape-font-specification:'American Captain';fill-opacity:0.25"
         id="path26341" />
      <path
         d="m 279.07901,71.839651 0.28736,-1.673005 1.80244,0.679195 q 0.19642,0.07402 0.26173,-0.0993 l 0.5747,-1.525143 q 0.0653,-0.173312 0.009,-0.234097 -0.0563,-0.06079 -0.22957,-0.126093 l -0.86656,-0.326536 q -0.18487,-0.06966 -0.34947,-0.158076 -0.1487,-0.09562 -0.24816,-0.251849 -0.0879,-0.151879 -0.0991,-0.367222 3.4e-4,-0.210988 0.11789,-0.52295 l 1.07104,-2.842313 q 0.18721,-0.496827 0.5618,-0.685542 0.3905,-0.195916 0.97976,0.02613 l 2.31082,0.870763 -0.29891,1.668651 -1.89487,-0.714025 q -0.20798,-0.07837 -0.27764,0.106497 l -0.5747,1.525143 q -0.0479,0.127096 -0.008,0.195081 0.0519,0.07234 0.17901,0.120232 l 1.05142,0.396197 q 0.40439,0.152383 0.53835,0.427172 0.14987,0.267588 -0.0286,0.741307 l -1.04056,2.761434 q -0.26123,0.693248 -0.65892,0.873255 -0.38615,0.184362 -1.1025,-0.08558 z"
         style="font-family:'American Captain';-inkscape-font-specification:'American Captain';fill-opacity:0.25"
         id="path26343" />
      <path
         d="m 288.38472,65.921706 3.14644,1.49117 -0.43491,1.638473 -1.76291,-0.835479 -0.9095,1.919108 1.33891,0.634541 -0.66098,1.3947 -1.33891,-0.634541 -0.83548,1.762902 1.69595,0.803751 -0.99279,1.374081 -3.0795,-1.459444 z"
         style="font-family:'American Captain';-inkscape-font-specification:'American Captain';fill-opacity:0.25"
         id="path26345" />
      <path
         d="m 288.93068,76.137898 0.5224,-1.615124 1.68751,0.928661 q 0.1839,0.1012 0.27319,-0.06106 l 0.78579,-1.427894 q 0.0893,-0.162261 0.0423,-0.230431 -0.0471,-0.06817 -0.20931,-0.157464 l -0.8113,-0.446471 q -0.17308,-0.09525 -0.32343,-0.206176 -0.13359,-0.115794 -0.20982,-0.284586 -0.0654,-0.162839 -0.0459,-0.377587 0.0303,-0.208796 0.19107,-0.500865 l 1.46443,-2.661076 q 0.25598,-0.465148 0.6536,-0.598664 0.41439,-0.138381 0.96608,0.165219 l 2.16348,1.19059 -0.53322,1.609171 -1.77405,-0.976284 q -0.19471,-0.107153 -0.28996,0.06593 l -0.78579,1.427894 q -0.0655,0.118991 -0.0352,0.192025 0.0411,0.07899 0.16009,0.14447 l 0.98438,0.541719 q 0.37861,0.208353 0.47212,0.499402 0.11028,0.286184 -0.13379,0.729696 l -1.42275,2.585354 q -0.35718,0.649043 -0.77644,0.770654 -0.40844,0.127564 -1.07912,-0.241519 z"
         style="font-family:'American Captain';-inkscape-font-specification:'American Captain';fill-opacity:0.25"
         id="path26347" />
      <path
         d="m 300.37982,72.513844 -0.51516,1.646407 -1.01228,-0.640091 -3.89334,6.157184 -1.54452,-0.976635 3.89334,-6.157184 -1.01228,-0.640091 1.28741,-1.15809 z"
         style="font-family:'American Captain';-inkscape-font-specification:'American Captain';fill-opacity:0.25"
         id="path26349" />
      <path
         d="m 298.95075,76.951023 q 0.22678,-0.32355 0.62233,-0.393105 0.39555,-0.06955 0.7191,0.157223 0.32354,0.226777 0.3931,0.622324 0.0696,0.395548 -0.15722,0.719097 -0.22678,0.32355 -0.62233,0.393105 -0.38846,0.05944 -0.71201,-0.167334 -0.32355,-0.226777 -0.40019,-0.612213 -0.0695,-0.395548 0.15722,-0.719097 z"
         style="font-family:'American Captain';-inkscape-font-specification:'American Captain';fill-opacity:0.25"
         id="path26351" />
      <path
         d="m 304.5354,77.431338 -3.5853,4.578872 0.66107,0.517622 q 0.0875,0.06851 0.12977,0.05457 0.0596,-0.01605 0.12051,-0.09382 l 3.36455,-4.296946 q 0.10657,-0.136102 -0.0198,-0.235059 z m -1.5024,6.445028 q -0.45672,0.583296 -0.89768,0.645755 -0.44095,0.06246 -1.05341,-0.417102 l -2.49845,-1.956307 5.51876,-7.048158 2.76094,2.161833 q 0.41802,0.32732 0.43949,0.720492 0.0312,0.400785 -0.2733,0.789649 z"
         style="font-family:'American Captain';-inkscape-font-specification:'American Captain';fill-opacity:0.25"
         id="path26353" />
      <path
         d="m 308.71468,78.785284 2.59761,2.318652 -0.87971,1.449089 -1.4554,-1.299103 -1.41421,1.584354 1.10536,0.986661 -1.02777,1.151421 -1.10536,-0.986661 -1.29911,1.455396 1.40013,1.24977 -1.34028,1.03798 -2.54233,-2.26932 z"
         style="font-family:'American Captain';-inkscape-font-specification:'American Captain';fill-opacity:0.25"
         id="path26355" />
      <path
         d="m 307.02861,89.412595 q -0.54557,-0.554473 -0.53324,-0.999658 0.0123,-0.445185 0.54041,-0.964776 l 5.3951,-5.308491 1.28166,1.30257 -5.12227,5.040036 q -0.0704,0.06928 -0.0883,0.12152 -0.009,0.06104 0.0687,0.140253 l 0.44165,0.448859 q 0.0779,0.07921 0.13047,0.06217 0.0612,-0.0082 0.13159,-0.07751 l 5.12227,-5.040036 1.28166,1.30257 -5.39511,5.308491 q -0.52807,0.519592 -0.97339,0.524719 -0.44533,0.0051 -0.9909,-0.549345 z"
         style="font-family:'American Captain';-inkscape-font-specification:'American Captain';fill-opacity:0.25"
         id="path26357" />
      <path
         d="m 310.09455,92.62191 1.05463,-1.330138 1.25576,1.460538 q 0.13685,0.159161 0.27728,0.03842 l 1.23584,-1.062567 q 0.14044,-0.120746 0.12023,-0.20107 -0.0202,-0.08032 -0.14096,-0.22076 l -0.60373,-0.702181 q -0.1288,-0.149799 -0.23082,-0.306335 -0.0846,-0.155223 -0.0969,-0.34002 -0.004,-0.175434 0.0892,-0.369767 0.1015,-0.184971 0.35429,-0.402314 l 2.30315,-1.980237 q 0.40259,-0.346139 0.82179,-0.332047 0.43662,0.0154 0.84716,0.492888 l 1.60995,1.872485 -1.06269,1.320776 -1.32016,-1.535437 q -0.14489,-0.168524 -0.29469,-0.03973 l -1.23584,1.062566 q -0.10299,0.08855 -0.10019,0.167559 0.0109,0.08837 0.0994,0.19136 l 0.73253,0.85198 q 0.28174,0.327685 0.26747,0.633054 0.003,0.306682 -0.38071,0.636722 l -2.23762,1.923889 q -0.56175,0.482985 -0.99705,0.450168 -0.42726,-0.02345 -0.92634,-0.603925 z"
         style="font-family:'American Captain';-inkscape-font-specification:'American Captain';fill-opacity:0.25"
         id="path26359" />
      <path
         d="m 321.09314,91.884023 2.0487,2.81541 -1.16618,1.230353 -1.14785,-1.577428 -1.7172,1.249561 0.87178,1.198047 -1.24796,0.908111 -0.87179,-1.198047 -1.57743,1.147852 1.10426,1.517526 -1.52942,0.731167 -2.00511,-2.755508 z"
         style="font-family:'American Captain';-inkscape-font-specification:'American Captain';fill-opacity:0.25"
         id="path26361" />
      <path
         d="m 322.23552,101.14753 -3.26066,3.57332 -0.97194,-1.53288 2.28881,-2.26996 -3.02272,1.11248 -0.97193,-1.53287 4.62269,-1.425209 2.96385,-3.326641 0.9521,1.501591 -2.30203,2.249108 3.02933,-1.102058 0.94549,1.491164 z"
         style="font-family:'American Captain';-inkscape-font-specification:'American Captain';fill-opacity:0.25"
         id="path26363" />
      <path
         d="m 324.56512,106.16717 -3.77211,1.8981 -0.78255,-1.55516 7.99642,-4.02375 0.84915,1.68752 -2.93659,2.56963 3.81349,-0.82697 0.8547,1.69855 -7.99642,4.02376 -0.78255,-1.55517 3.77211,-1.8981 -3.70917,0.59478 z"
         style="font-family:'American Captain';-inkscape-font-specification:'American Captain';fill-opacity:0.25"
         id="path26365" />
      <path
         d="m 324.56375,113.5139 -1.08958,0.27099 -0.68072,-1.66923 8.89975,-1.88254 0.72268,1.77212 -7.67819,4.87801 -0.68072,-1.66923 0.96837,-0.56825 z m 1.38941,-0.35326 0.31238,0.76602 2.78444,-1.57554 z"
         style="font-family:'American Captain';-inkscape-font-specification:'American Captain';fill-opacity:0.25"
         id="path26367" />
      <path
         d="m 325.30307,118.61538 q -0.24652,-0.73778 -0.0399,-1.13229 0.20665,-0.39451 0.90929,-0.62929 l 6.13642,-2.05047 q 0.50356,-0.16827 0.86682,0.0228 0.36718,0.20277 0.50805,0.62435 l 0.7474,2.23675 -1.48312,0.82104 -0.54392,-1.62779 q -0.0509,-0.15224 -0.21482,-0.0975 l -5.00048,1.6709 q -0.16395,0.0548 -0.11308,0.20702 l 0.54393,1.62779 -1.68269,0.22379 z"
         style="font-family:'American Captain';-inkscape-font-specification:'American Captain';fill-opacity:0.25"
         id="path26369" />
      <path
         d="m 327.41117,125.90071 -0.46502,-1.76722 3.46281,-0.9112 -0.24822,-0.94332 -3.46281,0.9112 -0.46503,-1.76723 8.65703,-2.27798 0.46502,1.76722 -3.70162,0.97404 0.24822,0.94332 3.70162,-0.97404 0.46503,1.76723 z"
         style="font-family:'American Captain';-inkscape-font-specification:'American Captain';fill-opacity:0.25"
         id="path26371" />
      <path
         d="m 336.31292,124.82897 0.36321,1.75312 -8.76558,1.81603 -0.36321,-1.75312 z"
         style="font-family:'American Captain';-inkscape-font-specification:'American Captain';fill-opacity:0.25"
         id="path26373" />
      <path
         d="m 336.92613,127.77474 0.259,1.68412 -3.41241,1.44921 3.55129,-0.54614 0.27964,1.81836 -8.84771,1.36066 -0.27964,-1.81836 3.55135,-1.52055 -3.69773,0.56866 -0.25149,-1.6353 z"
         style="font-family:'American Captain';-inkscape-font-specification:'American Captain';fill-opacity:0.25"
         id="path26375" />
      <path
         d="m 330.09645,135.91582 -1.12067,-0.0688 -0.1479,-1.79661 9.05425,0.87758 0.15702,1.90736 -8.78883,2.34648 -0.14791,-1.79661 1.09433,-0.25115 z m 1.43135,0.0804 0.0679,0.82447 3.1291,-0.66643 z"
         style="font-family:'American Captain';-inkscape-font-specification:'American Captain';fill-opacity:0.25"
         id="path26377" />
      <path
         d="m 333.71573,139.56262 q 0.39495,-0.0114 0.68704,0.2642 0.29209,0.27565 0.30353,0.67059 0.0114,0.39495 -0.26421,0.68704 -0.27564,0.29209 -0.67059,0.30353 -0.39494,0.0114 -0.68703,-0.26421 -0.27975,-0.276 -0.29119,-0.67095 -0.0114,-0.39494 0.25186,-0.68667 0.27565,-0.29209 0.67059,-0.30353 z"
         style="font-family:'American Captain';-inkscape-font-specification:'American Captain';fill-opacity:0.25"
         id="path26379" />
    </g>
  </g>
</svg>
