<svg id="opening-logo" width="2e3" height="2e3" version="1.1" viewBox="0 0 529.17 529.17" xmlns="http://www.w3.org/2000/svg">
 <g style="display:none">
  <rect x="-1.1006e-5" y="-1.1006e-5" width="529.17" height="529.17" style="fill:#282c34;opacity:.91667;stroke-width:.56118"/>
 </g>
 <g>
  <circle cx="264.58" cy="264.58" r="264.58" style="fill:#282c34"/>
 </g>
 <g transform="translate(-168.06 -57.082)">
  <text x="74.614037" y="45.524178" style="fill:#000000;font-family:Cambria;font-size:19.403px;letter-spacing:0px;line-height:1.25;stroke-width:.22738;word-spacing:0px" xml:space="preserve"><tspan x="74.614037" y="45.524178" style="fill:#ffffff;font-family:'American Captain';font-size:19.403px;stroke-width:.22738"/></text>
  <g transform="matrix(.76972 0 0 .81789 158.44 142.88)">
   <rect x="238.38" y="312.78" width="79.06" height="12.94" style="fill:#fff"/>
  </g>
  <g transform="matrix(.80758 0 0 .90282 146.35 124.17)">
   <rect x="304.43" y="276.23" width="13.105" height="39.563" style="fill:#fff"/>
  </g>
  <g transform="matrix(.75 0 0 .77185 164.7 160.59)" style="stroke-width:.78206">
   <path transform="matrix(.37734 0 0 .37668 -20.04 -139.95)" d="m999.95 525.74c-174.06 1e-5 -315.53 141.71-315.53 316.08 0 137.28 87.692 254.3 209.93 297.88v-35.662c-103.58-41.811-176.55-143.34-176.55-262.21 0-156.29 126.12-282.64 282.14-282.64 156.02 0 282.14 126.34 282.14 282.64 0 119.21-73.372 220.98-177.41 262.57v35.615c122.7-43.334 210.8-160.58 210.8-298.18 0-174.37-141.46-316.08-315.53-316.08z" style="color-rendering:auto;color:#000000;dominant-baseline:auto;fill:#fff;font-feature-settings:normal;font-variant-alternates:normal;font-variant-caps:normal;font-variant-east-asian:normal;font-variant-ligatures:normal;font-variant-numeric:normal;font-variant-position:normal;font-variation-settings:normal;image-rendering:auto;inline-size:0;isolation:auto;mix-blend-mode:normal;shape-margin:0;shape-padding:0;shape-rendering:auto;solid-color:#000000;stop-color:#000000;text-decoration-color:#000000;text-decoration-line:none;text-decoration-style:solid;text-indent:0;text-orientation:mixed;text-transform:none;white-space:normal"/>
  </g>
  <g transform="matrix(.77051 0 0 .56912 156.56 216.4)">
   <rect x="396.8" y="276.32" width="12.919" height="251.04" style="fill:#fff"/>
  </g>
  <g transform="matrix(.76972 0 0 .81789 156.63 79.641)">
   <rect x="397.13" y="521.23" width="79.06" height="12.94" style="fill:#fff"/>
  </g>
  <path transform="matrix(.79659 0 0 .75554 169.18 90.911)" d="m475.29 356.68c293.76-488.42-717.41 71.507-147.55 81.703 569.87 10.196-420.63-585.54-144.53-86.928 276.1 498.62 296.78-657.05 3.0171-168.63s717.41-71.507 147.55-81.703c-569.87-10.196 420.63 585.54 144.53 86.928-276.1-498.62-296.78 657.05-3.0171 168.63z" style="fill:none;stroke-opacity:.25;stroke-width:.78278;stroke:#fff"/>
  <g transform="matrix(.75149 0 0 .75149 164.17 161.59)" style="stroke-width:.78206">
   <circle cx="357.28" cy="177.15" r="52.812" style="fill:#fff;stroke-width:.16407;stroke:#fff"/>
  </g>
  <g transform="matrix(.70417 0 0 .70417 167.48 169.98)" style="stroke-width:.78206">
   <circle cx="152.23" cy="177.15" r="32.877" style="fill:#fff;stroke-width:.20692;stroke:#fff"/>
  </g>
  <g transform="matrix(.70417 0 0 .70417 171.47 160.17)" style="stroke-width:.78206">
   <circle cx="212.42" cy="32.301" r="32.877" style="fill:#fff;stroke-width:.20692;stroke:#fff"/>
  </g>
  <g transform="matrix(.70417 0 0 .70417 181.08 156.09)" style="stroke-width:.78206">
   <circle cx="357.28" cy="-27.967" r="32.877" style="fill:#fff;stroke-width:.20692;stroke:#fff"/>
  </g>
  <g transform="matrix(.70417 0 0 .70417 190.69 160.17)" style="stroke-width:.78206">
   <circle cx="502.16" cy="32.296" r="32.877" style="fill:#fff;stroke-width:.20692;stroke:#fff"/>
  </g>
  <g transform="matrix(.70417 0 0 .70417 194.68 169.98)" style="stroke-width:.78206">
   <circle cx="562.27" cy="177.15" r="32.877" style="fill:#fff;stroke-width:.20692;stroke:#fff"/>
  </g>
  <circle cx="432.64" cy="321.67" r="231.51" style="fill:none;stroke-width:5.3035;stroke:#fff"/>
  <circle cx="432.64" cy="321.67" r="261.94" style="fill:none;stroke-width:5.2849;stroke:#fff"/>
 </g>
 <g>
  <g id="opening-logo-motto" style="fill-opacity:.18431;fill:#fff;stroke-width:.81515;transform-origin: 50% 50%" aria-label="MEMENTO VIVERE·SCIENTIAE FIDIMUS·VERITAS TE LIBERABIT·CARO INFIRMA EST·MACHINA IMMORTALIS EST·DEUS EX MACHINA·">
   <animateTransform attributeName="transform" type="rotate" keyTimes="0;1" values="0;-359" dur="150s" repeatCount="indefinite"/>
   <path d="m499.76 285.05 0.22556-4.9796 10.276 0.46549 0.0129-0.28546-10.192-2.3368 0.23131-5.1065 10.357-1.3107 0.0144-0.31718-10.276-0.46548 0.22269-4.9162 19.666 1.5582-0.32325 7.1364-10.738 1.2934-0.0115 0.25374 10.579 2.1955-0.31895 7.0413z"/>
   <path d="m498.12 298.23 1.2548-10.594 19.58 2.3192-1.2922 10.909-4.7867-0.88669 0.61621-5.2024-2.9322-0.34731-0.53405 4.5087-4.1619-0.49297 0.53404-4.5087-3.2475-0.38467-0.65356 5.5177z"/>
   <path d="m494.3 319.12 0.94734-4.8939 10.1 1.955 0.0543-0.28054-9.7435-3.7942 0.97148-5.0186 10.437 0.20943 0.0603-0.31171-10.1-1.955 0.93528-4.8316 19.231 4.4017-1.3577 7.0136-10.811-0.28185-0.0483 0.24937 10.148 3.7107-1.3396 6.92z"/>
   <path d="m490.75 331.92 2.7924-10.296 19.029 5.1609-2.8755 10.602-4.6053-1.578 1.3712-5.0561-2.8498-0.77288-1.1884 4.382-4.0449-1.097 1.1884-4.382-3.1562-0.85599-1.4544 5.3625z"/>
   <path d="m485.52 347.62 1.6821-4.9278 10.007-0.912 0.0821-0.24038-8.6838-2.9642 1.559-4.5673 18.66 6.3693-1.7334 5.0781-10.216 0.63941-0.082 0.24038 8.9542 3.0565-1.5693 4.5973z"/>
   <path d="m493.86 366.52 1.4119-3.4016-13.782-5.7205 2.0813-5.0145 13.782 5.7205 1.497-3.6069 4.3063 2.1311-4.9902 12.023z"/>
   <path d="m494.77 371.08q1.3228 2.704-0.51457 6.4354-1.8374 3.7314-4.7306 4.2886-2.9073 0.58568-7.6641-1.7566-4.7284-2.3283-6.1936-5.1024-1.4652-2.7741 0.35812-6.4771t4.8731-4.2185q3.0497-0.51555 7.7781 1.8127 4.7568 2.3423 6.0937 5.0178zm-10.497 4.0681q2.6205 1.2904 3.7424 1.3119 1.1363 0.0641 1.7675-1.2177 0.61713-1.2533-0.14051-2.0864-0.72915-0.81912-3.3212-2.0955l-0.68361-0.33662q-2.763-1.3605-3.8423-1.3965-1.0649 6e-3 -1.682 1.2598-0.63116 1.2818 0.0125 2.0588 0.6437 0.77704 3.2358 2.0534z"/>
   <path d="m477.74 405.83-14.985-13.241 4.4254-7.1185 18.622 7.3899-3.1682 5.0962-11.88-5.3665-0.28497 0.45839 10.287 7.9281z"/>
   <path d="m456.65 401.53 3.0869-4.4276 16.174 11.276-3.0869 4.4276z"/>
   <path d="m461.69 427.45-13.512-14.741 5.1481-6.6147 17.744 9.3035-3.6856 4.7356-11.251-6.5837-0.33151 0.42595 9.3982 8.964z"/>
   <path d="m437.88 424.67 7.0522-8.0046 14.794 13.034-7.2621 8.2428-3.435-3.4495 3.4631-3.9308-2.2156-1.9519-3.0014 3.4067-3.1446-2.7705 3.0014-3.4067-2.4538-2.1618-3.673 4.169z"/>
   <path d="m436.45 445.33q-1.2611-1.2534-1.7139-2.4643-0.45276-1.211-0.32263-2.6931l-7.8029-4.0395 4.1405-4.1662 6.4321 3.6172 0.51477-0.51796-5.0444-5.0134 3.76-3.7833 13.985 13.899-5.1924 5.2246q-2.2381 2.252-4.3261 2.236-2.1104 7e-3 -4.4299-2.2987zm3.0307-7.3283q-0.58192 0.58552-0.49031 1.169 0.0916 0.58343 0.96988 1.4563 0.90079 0.89525 1.4848 0.98325 0.60652 0.11038 1.166-0.45262l0.60429-0.60804-3.1528-3.1334z"/>
   <path d="m417.31 444.4 7.9608-7.1015 13.125 14.713-8.1978 7.3129-2.9968-3.8364 3.9093-3.4874-1.9656-2.2034-3.3881 3.0224-2.7899-3.1275 3.3881-3.0224-2.177-2.4404-4.1463 3.6987z"/>
   <path d="m416.05 457.87q-1.7728-2.2004 0.60063-4.1127 2.3735-1.9123 4.1464 0.28813 1.7928 2.2252-0.58072 4.1374t-4.1663-0.31286z"/>
   <path d="m416.34 463.94q1.6565 2.2893 1.324 4.6462-0.33251 2.3568-2.6475 4.032-2.3408 1.6937-5.1194 2.9989l-2.4635-4.4878q2.9746-1.251 3.9263-1.9397 1.209-0.87477 0.50169-1.8522-0.27919-0.38583-1.1056-0.33648-0.85219 0.068-1.9731 0.252-1.1023 0.20976-2.3349 0.23946-1.214 0.0554-2.5244-0.56401-1.3361-0.60081-2.304-1.9384-1.7682-2.4436-1.4242-4.7304 0.34401-2.2868 2.7619-4.0364 2.3922-1.7309 5.2212-2.6415l2.4903 4.0374q-3.3293 1.1941-4.4096 1.9758t-0.39169 1.7334q0.35363 0.48872 1.243 0.4722 0.86369 2e-3 1.9846-0.18194 1.1209-0.18404 2.3606-0.25807 1.214-0.0554 2.5501 0.54539 1.3104 0.61943 2.3341 2.0342z"/>
   <path d="m397.56 471.97q-1.5081-2.352-2.6137-3.0763-1.1152-0.68045-2.1843 5e-3 -1.0691 0.6855-2.6946 2.4444l-3.1113-3.323q1.6145-2.129 3.7527-3.5 3.2073-2.0565 6.0312-0.88759 2.8143 1.2128 5.5049 5.409 2.7077 4.223 2.6067 7.4182-0.0839 3.222-3.5318 5.4327-2.0313 1.3024-4.4239 1.6297l-1.9347-4.6055q2.5303-0.64182 3.3589-1.1731 1.176-0.75406 0.96202-2.0878-0.19686-1.307-1.7221-3.6858z"/>
   <path d="m380.47 471.01 4.6737-2.6999 9.8627 17.073-4.6737 2.6999z"/>
   <path d="m368.25 477.48 9.473-4.9059 9.0671 17.508-9.755 5.0519-1.952-4.4596 4.6519-2.4091-1.3579-2.622-4.0317 2.0879-1.9273-3.7216 4.0317-2.0879-1.5039-2.9039-4.9339 2.5552z"/>
   <path d="m353.11 484.27 4.7672-2.0944 7.4406 6.7533 0.23255-0.10217-3.6908-8.4008 4.4184-1.9412 7.9307 18.051-4.9126 2.1583-7.3811-7.0916-0.23255 0.10217 3.8057 8.6624-4.4474 1.9539z"/>
   <path d="m344.78 503.21 3.4603-1.2612-5.1101-14.02 5.101-1.8592 5.1101 14.02 3.6691-1.3373 1.3435 4.6131-12.23 4.4578z"/>
   <path d="m332.68 491.33 5.1519-1.6097 5.8803 18.819-5.1519 1.6097z"/>
   <path d="m315.95 495.8 5.1371-1.3129 1.3549 2.8652 3.6298-0.92767-0.18597-3.164 4.891-1.25 1.3753 19.999-7.8134 1.9968zm7.9963 5.002 2.8219 6.5539 0.21533-0.055-0.66863-7.1042z"/>
   <path d="m303.79 498.1 10.478-2.0056 3.7067 19.365-10.79 2.0653-0.60141-4.8308 5.1453-0.98488-0.55511-2.9001-4.4593 0.85356-0.7879-4.1163 4.4593-0.85356-0.6148-3.2119-5.4572 1.0446z"/>
   <path d="m285.98 515.29 5.2084-0.56284-0.31724-2.9357-4.1983 0.45368-0.45026-4.1667 4.1983-0.45368-0.8289-7.6706 5.3978-0.5833 2.1183 19.603-10.922 1.1802z"/>
   <path d="m277.08 500.95 5.3867-0.34132 1.2468 19.677-5.3867 0.34132z"/>
   <path d="m259.37 511.61q-0.10225-10.286 8.0254-10.367l6.5402-0.065 0.19598 19.716-6.6672 0.0663q-4.3495 0.0432-6.1835-2.3834-1.8654-2.3946-1.9108-6.9664zm8.166-5.7965q-1.6827 0.0167-2.1472 1.1962-0.49598 1.2115-0.46821 4.0054 0.0281 2.8256 0.57949 3.9949 0.51965 1.1696 2.2341 1.1526l0.95245-9e-3 -0.10288-10.35z"/>
   <path d="m251.48 500.92 5.3924 0.23344-0.85275 19.698-5.3924-0.23344z"/>
   <path d="m229.33 498.85 4.956 0.53481-1.1037 10.228 0.2841 0.0307 2.9661-10.027 5.0822 0.54843 0.66405 10.418 0.31567 0.0341 1.1037-10.228 4.8928 0.528-2.7783 19.531-7.1025-0.76645-0.62318-10.797-0.25254-0.0273-2.8492 10.422-7.0078-0.75622z"/>
   <path d="m220.01 503.67q0.18598-0.96651-0.12934-1.5122-0.31532-0.54566-1.2195-0.71964-0.93534-0.17998-1.3623 0.19052-0.46412 0.39568-0.6621 1.4246l-2.4957 12.97-5.3626-1.0319 2.5557-13.282q0.64193-3.336 2.7754-4.5098 2.1023-1.1798 5.6566-0.49583 3.5231 0.67792 4.9811 2.5104 1.4208 1.8577 0.78489 5.1626l-2.5677 13.344-5.4562-1.0499z"/>
   <path d="m207.11 508.49q-0.71495 2.7338-2.746 3.9748t-4.7956 0.51801q-2.7952-0.73102-5.5688-2.0471l1.8996-4.754q2.8562 1.5018 3.9927 1.799 1.4437 0.37756 1.749-0.78969 0.1205-0.46075-0.44281-1.0675-0.59403-0.6148-1.4484-1.3633-0.86245-0.71782-1.6687-1.6506-0.81425-0.90212-1.1687-2.3075-0.38517-1.4134 0.0326-3.0107 0.76315-2.9181 2.7474-4.1057 1.9843-1.1876 4.8717-0.43247 2.8567 0.74708 5.3575 2.3528l-1.5348 4.4885q-3.0377-1.8118-4.3278-2.1492t-1.5873 0.79913q-0.15263 0.58363 0.42533 1.2599 0.54724 0.6682 1.4016 1.4167 0.85441 0.74854 1.6994 1.6587 0.81424 0.90211 1.1994 2.3156 0.35444 1.4054-0.0874 3.0948z"/>
   <path d="m186.74 498.41q0.85725-2.6926 3.7616-1.7679 2.9044 0.92468 2.0471 3.6173-0.86689 2.7228-3.7712 1.7982-2.9044-0.92467-2.0375-3.6475z"/>
   <path d="m165.73 501.34 10.168-17.218 7.827 2.9994-3.7347 19.684-5.6034-2.1473 3.023-12.68-0.50401-0.19314-5.8396 11.601z"/>
   <path d="m161.42 477.73 9.7079 4.423-8.1748 17.942-9.9968-4.5547 2.303-4.2889 4.7673 2.172 1.2242-2.687-4.1316-1.8824 1.7376-3.8138 4.1316 1.8824 1.3559-2.9759-5.0562-2.3037z"/>
   <path d="m141.19 482.33q0.83394-1.5703 1.8616-2.3546 1.0277-0.78436 2.4839-1.0895l1.604-8.6388 5.1876 2.755-1.5972 7.2045 0.64495 0.34251 3.3358-6.2812 4.7109 2.5018-9.2478 17.413-6.5055-3.4549q-2.8041-1.4892-3.3941-3.4921-0.61802-2.0178 0.91584-4.9061zm7.8922 0.7761q-0.72907-0.38718-1.2609-0.13038-0.53183 0.25681-1.1126 1.3504-0.59568 1.1216-0.5106 1.7061 0.0702 0.61247 0.77121 0.98476l0.7571 0.40208 2.0848-3.9257z"/>
   <path d="m140.71 466.31 4.6288 2.7762-10.141 16.909-4.6288-2.7762z"/>
   <path d="m120.21 470.76 3.0675 2.0384 8.259-12.429 4.5219 3.0049-8.259 12.429 3.2526 2.1614-2.9179 3.8173-10.842-7.2047z"/>
   <path d="m115.86 448.86 4.2292 3.1981-1.3956 2.8456 2.9883 2.2597 2.3579-2.1179 4.0266 3.0449-14.779 13.543-6.4324-4.8642zm1.0742 9.3706-3.365 6.2923 0.17727 0.13406 5.1377-4.9518z"/>
   <path d="m106.27 458.77q-1.8407 2.144-4.2102 2.3694-2.3695 0.2254-4.5376-1.636-2.1922-1.882-4.1084-4.2804l3.7909-3.4408q1.9092 2.6016 2.8005 3.3668 1.1322 0.97205 1.9181 0.0566 0.31023-0.36135 0.0698-1.1536-0.26453-0.81294-0.70449-1.8602-0.46065-1.0232-0.77653-2.215-0.33656-1.1677-0.0393-2.5863 0.27321-1.4393 1.3487-2.692 1.9648-2.2885 4.2688-2.4864t4.5685 1.7462q2.2404 1.9234 3.7846 4.4627l-3.3466 3.3619q-1.9365-2.9597-2.9483-3.8284-1.0118-0.86864-1.777 0.0227-0.39295 0.45771-0.16979 1.3188 0.19906 0.84044 0.63903 1.8877 0.43997 1.0473 0.80062 2.2356 0.33655 1.1677 0.0633 2.607-0.2973 1.4186-1.4348 2.7435z"/>
   <path d="m80.775 436.5 2.583 2.6254 10.637-10.466 3.8077 3.8701-10.637 10.466 2.7389 2.7838-3.6402 3.1361-9.1297-9.2793z"/>
   <path d="m83.289 416.84 7.0568 8.0004-14.787 13.043-7.2669-8.2386 3.8531-2.9753 3.4654 3.9288 2.2144-1.9532-3.0034-3.405 3.143-2.7723 3.0034 3.405 2.4525-2.1633-3.6754-4.1669z"/>
   <path d="m71.695 401.88 6.0188 8.0272-15.775 11.828-3.257-4.3438 12.244-9.1805-2.9522-3.9374z"/>
   <path d="m67.641 395.92 3.0496 4.4535-16.268 11.14-3.0496-4.4535z"/>
   <path d="m53.76 384.44q4.8497-2.963 8.028 2.2389l4.0556 6.6379-16.825 10.28-3.9728-6.5024q-1.5726-2.5739-1.2774-4.4657 0.26809-1.8753 2.5439-3.2658 2.2758-1.3905 4.6101-0.24938l0.16256-0.0993q-0.46782-2.6535 2.675-4.5737zm5.6827 5.16q-0.4966-0.8128-1.0143-0.86854-0.56139-0.0663-1.6993 0.62896-1.165 0.71179-1.4435 1.2912-0.30559 0.59598 0.17445 1.3817l0.52971 0.86699 3.9827-2.4333zm-6.6273 4.0119q-0.38073-0.62315-0.90901-0.63524-0.52829-0.0121-1.4766 0.56727-0.97536 0.59592-1.1891 1.0986-0.25742 0.49214 0.12331 1.1153l0.52971 0.86699 3.4679-2.1188z"/>
   <path d="m52.734 370.37 5.0005 9.4234-17.417 9.242-5.1493-9.7039 4.4399-1.9966 2.4556 4.6276 2.6083-1.3841-2.1282-4.0106 3.7021-1.9645 2.1282 4.0106 2.8887-1.5329-2.6044-4.908z"/>
   <path d="m33.892 361.7q1.6182-0.73662 2.911-0.73207 1.2928 5e-3 2.6333 0.65022l6.537-5.8711 2.4335 5.3459-5.6574 4.7381 0.30254 0.66463 6.4729-2.9465 2.2099 4.8547-17.945 8.1686-3.0517-6.7041q-1.3154-2.8897-0.56233-4.8372 0.73992-1.9764 3.7163-3.3313zm5.7838 5.4256q-0.342-0.75132-0.92015-0.87188t-1.7051 0.39245q-1.1559 0.52616-1.4446 1.0413-0.31766 0.52833 0.01119 1.2508l0.35516 0.78022 4.0456-1.8416z"/>
   <path d="m40.309 340.78 1.8677 4.9624-2.6996 1.6606 1.3197 3.5064 3.1246-0.53146 1.7783 4.7247-19.728 3.5578-2.8408-7.5476zm-4.096 8.4961-6.2053 3.5229 0.07829 0.208 6.9882-1.4428z"/>
   <path d="m30.355 327.5q5.4417-1.6394 7.2002 4.1974l2.2439 7.4481-18.879 5.6876-2.1981-7.2961q-0.87009-2.888-0.10578-4.6436 0.7339-1.7464 3.2875-2.5158 2.5536-0.76934 4.5232 0.92529l0.1824-0.055q0.21886-2.6856 3.7453-3.748zm4.1921 6.4301q-0.27476-0.91201-0.76156-1.097-0.52635-0.20618-1.8032 0.17849-1.3072 0.39383-1.7233 0.88393-0.44646 0.49927-0.18085 1.3809l0.29308 0.97281 4.4688-1.3464zm-7.4268 2.2044q-0.21065-0.6992-0.71869-0.84458t-1.572 0.17518q-1.0944 0.32971-1.4284 0.76194-0.37358 0.41099-0.16292 1.1102l0.29308 0.97281 3.8912-1.1723z"/>
   <path d="m34.051 318.46 1.284 5.2425-19.151 4.6905-1.284-5.2425z"/>
   <path d="m16.469 307.02 0.70862 3.6142 14.644-2.8711 1.0446 5.3278-14.644 2.8711 0.75138 3.8323-4.7658 0.61087-2.5046-12.774z"/>
   <path d="m20.284 296.74q2.7971-0.4015 3.2302 2.6156 0.43307 3.0171-2.364 3.4186-2.8285 0.40601-3.2616-2.6111-0.43307-3.0171 2.3954-3.4231z"/>
   <path d="m19.322 287.65q2.7822-0.25607 3.9342-0.90413 1.1174-0.67676 1.001-1.9414-0.1164-1.2646-0.92954-3.5174l4.3822-1.2323q1.1468 2.4133 1.3796 4.9426 0.3492 3.794-1.9884 5.7628-2.3722 1.9401-7.3359 2.3969-4.9954 0.45977-7.7854-1.1008-2.8216-1.5577-3.197-5.6362-0.22116-2.4028 0.58978-4.6775l4.9791 0.4026q-0.59505 2.5417-0.50484 3.5218 0.12804 1.3911 1.4105 1.8151 1.2509 0.4269 4.0647 0.16791z"/>
   <path d="m27.786 264.46 0.1658 5.2996-3.0911 0.70025 0.11715 3.7447 3.1288 0.50566 0.15785 5.0458-19.82-3.0012-0.25217-8.0606zm-6.6194 6.719-7.0103 1.3311 0.0069 0.22214 7.0798 0.89031z"/>
   <path d="m14.837 248.81q1.777 0.0611 2.9325 0.64089 1.1555 0.5798 2.0682 1.7548l8.4676-2.3457-0.20183 5.8703-7.1754 1.723-0.02509 0.72982 7.1078 0.24437-0.18328 5.3308-19.705-0.67749 0.25311-7.3616q0.1091-3.1731 1.6507-4.5815 1.5426-1.4401 4.811-1.3277zm2.7625 7.4336q0.02837-0.82501-0.4356-1.1904-0.46397-0.36541-1.7015-0.40796-1.2692-0.0436-1.7572 0.28904-0.5197 0.33159-0.54698 1.1249l-0.02946 0.85675 4.4424 0.15273z"/>
   <path d="m11.004 244.03q-2.1788-2.0771-1.7502-6.2142 0.4286-4.1371 2.9488-5.6635 2.5235-1.558 7.7975-1.0116 5.2424 0.54311 7.5792 2.6365 2.3367 2.0934 1.9114 6.199-0.42533 4.1055-3.1067 5.6472-2.6814 1.5416-7.9238 0.99854-5.274-0.54638-7.4561-2.5919zm8.4334-7.4574q-2.9054-0.301-3.9651 0.068-1.088 0.33417-1.2352 1.7553-0.14396 1.3896 0.85568 1.9081 0.96806 0.51525 3.8419 0.81297l0.75794 0.0785q3.0634 0.31735 4.0882-0.0234 0.9965-0.37556 1.1405-1.7651 0.14723-1.4211-0.72609-1.9266-0.87332-0.50543-3.7472-0.80316z"/>
   <path d="m32.518 217.78-1.0007 5.3039-19.375-3.6556 1.0007-5.3039z"/>
   <path d="m36.514 200.71-1.2475 5.0553-9.8898 1.7781-0.06086 0.2466 8.9085 2.1984-1.1563 4.6854-19.142-4.7239 1.2856-5.2095 10.122-1.5246 0.06086-0.2466-9.1859-2.2669 1.1639-4.7163z"/>
   <path d="m26.384 183.35-1.5719 4.9974 2.8167 0.88598 1.267-4.0282 3.9979 1.2575-1.267 4.0282 7.3598 2.315-1.6291 5.1791-18.808-5.916 3.2962-10.479z"/>
   <path d="m43.092 180.95-1.8494 5.0708-18.523-6.7556 1.8494-5.0708z"/>
   <path d="m37.051 160.29q1.6362 0.69572 2.5061 1.6521 0.86988 0.95639 1.2992 2.381l8.7448 0.85469-2.2984 5.4054-7.3152-0.97133-0.28574 0.67202 6.5449 2.7829-2.0872 4.9087-18.145-7.715 2.8823-6.7787q1.2424-2.9218 3.1871-3.682 1.9572-0.78936 4.9667 0.49027zm-0.09409 7.9297q0.32301-0.75968 0.02139-1.2674-0.30162-0.50776-1.4411-0.99227-1.1687-0.49695-1.7437-0.3619-0.60415 0.12263-0.91474 0.85309l-0.33544 0.7889 4.0906 1.7393z"/>
   <path d="m59.161 146.56-2.309 4.4177-9.1168-4.7651-0.13236 0.25325 8.2491 6.4252-2.3678 4.5303-9.9404-3.1893-0.14707 0.28138 9.1168 4.7651-2.2796 4.3614-17.165-9.724 3.3091-6.3311 10.278 3.3658 0.11766-0.22511-8.6603-6.461 3.265-6.2467z"/>
   <path d="m68.139 132.31-2.8219 4.4889-2.9553-1.1453-1.9939 3.1718 2.3132 2.1667-2.6867 4.2739-14.766-13.558 4.292-6.8275zm-9.2432 1.8774-6.5588-2.8105-0.11828 0.18816 5.3759 4.6921z"/>
   <path d="m79.472 116.99-6.456 8.4927-15.696-11.932 6.6481-8.7455 3.6751 3.1926-3.1704 4.1705 2.3507 1.7869 2.7476-3.6145 3.3364 2.5363-2.7476 3.6145 2.6034 1.9791 3.3625-4.4233z"/>
   <path d="m69.797 107.01q-2.1509-1.8326-2.3853-4.2012-0.23433-2.3686 1.6188-4.5437 1.8738-2.1993 4.2649-4.1246l3.455 3.7779q-2.5944 1.919-3.3562 2.8132-0.96777 1.1359-0.0494 1.9183 0.36252 0.30887 1.1539 0.0654 0.81194-0.26759 1.8575-0.7115 1.0214-0.4645 2.212-0.78487 1.1664-0.34096 2.5861-0.049 1.4403 0.26778 2.697 1.3385 2.2959 1.9561 2.5025 4.2594 0.20659 2.3033-1.729 4.575-1.915 2.2476-4.4484 3.8014l-3.3745-3.3339q2.9524-1.9476 3.8172-2.9627 0.86482-1.015-0.02939-1.7769-0.45919-0.39123-1.3195-0.16483-0.83968 0.20224-1.8853 0.64615-1.0456 0.44392-2.2326 0.80904-1.1664 0.34096-2.6067 0.0732-1.4197-0.29195-2.7489-1.4244z"/>
   <path d="m86.862 86.379-2.5417 2.6654 10.799 10.298-3.7469 3.9291-10.799-10.298-2.6951 2.8262-3.2504-3.5384 8.9837-9.4206z"/>
   <path d="m97.45 83.558q1.9438 2.051-0.26854 4.1477-2.2123 2.0967-4.1561 0.04566-1.9656-2.074 0.2467-4.1707t4.1779-0.02261z"/>
   <path d="m121.52 75.782-3.8454 3.1718-6.5456-7.9358-0.22044 0.18182 5.1005 9.1278-3.9434 3.2526-7.9172-6.8045-0.24493 0.20202 6.5456 7.9358-3.7965 3.1314-12.031-15.635 5.511-4.5456 8.1597 7.0984 0.19595-0.16162-5.4654-9.3207 5.4375-4.485z"/>
   <path d="m135.32 66.142-4.3444 3.0397-2.2781-2.2036-3.0697 2.1478 1.2895 2.8953-4.1363 2.8941-8.3378-18.23 6.6077-4.6233zm-9.2464-1.8617-4.9513-5.1381-0.18211 0.12741 3.1303 6.4123z"/>
   <path d="m135.92 54.487q1.4592 2.3827 2.5495 3.1297 1.1009 0.70336 2.1839 0.0401 1.083-0.66325 2.7446-2.3881l3.042 3.3866q-1.6582 2.0951-3.8243 3.4216-3.2491 1.9898-6.0483 0.76272-2.7886-1.2707-5.3919-5.5217-2.6198-4.278-2.4528-7.4705 0.15051-3.2195 3.6433-5.3585 2.0578-1.2602 4.4567-1.5379l1.839 4.6445q-2.5431 0.58936-3.3824 1.1034-1.1914 0.72958-1.005 2.0674 0.1698 1.3108 1.6455 3.7206z"/>
   <path d="m160.85 51.666-4.7744 2.5175-3.4801-6.5999-3.2859 1.7327 3.4801 6.5999-4.8306 2.5472-9.1964-17.441 4.8306-2.5472 3.6134 6.8527 3.2859-1.7327-3.6134-6.8527 4.7744-2.5175z"/>
   <path d="m168.53 48.194-4.9066 2.2489-8.2152-17.924 4.9066-2.2489z"/>
   <path d="m184.78 41.584-4.8465 1.9038-7.1671-7.0429-0.23641 0.09287 3.3549 8.5404-4.4919 1.7645-7.209-18.352 4.9942-1.9619 7.0942 7.3785 0.23642-0.09287-3.4594-8.8064 4.5214-1.7761z"/>
   <path d="m200.99 36.419-5.0594 1.5864-1.5065-2.7885-3.5749 1.1209 0.35531 3.1495-4.817 1.5104-2.4453-19.897 7.6951-2.4128zm-8.253-4.5662-3.1692-6.3932-0.21207 0.06649 1.0485 7.0581z"/>
   <path d="m214.71 33.155-5.2642 1.1923-4.3554-19.23 5.2642-1.1923z"/>
   <path d="m236.63 29.343-4.9228 0.78324-1.6164-10.159-0.2822 0.0449-0.23362 10.454-5.0482 0.80319-3.3723-9.8798-0.31356 0.04989 1.6164 10.159-4.8601 0.77326-2.4396-19.577 7.055-1.1225 3.4321 10.256 0.25085-0.03991 0.017-10.805 6.961-1.1075z"/>
   <path d="m258.34 27.794-4.9739 0.32928-0.67953-10.265-0.28512 0.01888-1.1896 10.388-5.1006 0.33767-2.4536-10.147-0.31681 0.02097 0.67953 10.265-4.9105 0.32508-0.63714-19.718 7.1281-0.4719 2.4788 10.527 0.25345-0.01678 1.006-10.758 7.0331-0.46561z"/>
   <path d="m262.46 10.194q1.8767-2.3536 6.0355-2.2917 4.1588 0.061883 5.9016 2.4376 1.7746 2.3762 1.6957 7.6778-0.0784 5.2699-1.9575 7.7822-1.8791 2.5123-6.0061 2.4509-4.127-0.06141-5.8993-2.5963t-1.6938-7.8048q0.0789-5.3017 1.9239-7.6557zm8.1725 7.7425q0.0435-2.9207-0.41762-3.9437-0.42886-1.0542-1.8575-1.0755-1.3968-0.02079-1.8251 1.0207-0.42783 1.0097-0.47081 3.8987l-0.0113 0.76192q-0.0458 3.0794 0.38399 4.0702 0.46202 0.95948 1.8589 0.98027 1.4286 0.02126 1.855-0.89325 0.42641-0.91451 0.46939-3.8034z"/>
   <path d="m292.73 15.913q-0.14831 1.7718-0.78417 2.8974t-1.8543 1.9795l1.9269 8.5726-5.8533-0.48996-1.3684-7.2514-0.7277-0.06091-0.59325 7.0872-5.3154-0.44493 1.6447-19.648 7.3403 0.61443q3.1639 0.26484 4.4949 1.8737 1.3626 1.6115 1.0898 4.8704zm-7.5603 2.394q0.82262 0.06886 1.2104-0.3766 0.38776-0.44546 0.49105-1.6794 0.10593-1.2656-0.20237-1.7693-0.30566-0.53536-1.0966-0.60157l-0.85426-0.07151-0.37078 4.4295z"/>
   <path d="m307.32 16.521-3.6448-0.52928-2.1445 14.768-5.3729-0.78023 2.1445-14.768-3.8647-0.56122 1.0032-4.6989 12.882 1.8707z"/>
   <path d="m320.62 34.453-5.1906-1.0822 0.0445-3.1691-3.6676-0.76466-1.2256 2.9229-4.942-1.0303 7.5675-18.563 7.8947 1.646zm-4.9785-8.011 0.35073-7.1269-0.21757-0.04536-2.5264 6.6733z"/>
   <path d="m331.94 37.559-9.6859-2.6163 5.1415-19.035 5.2414 1.4158-3.9906 14.774 4.751 1.2833z"/>
   <path d="m338.81 39.764-5.1448-1.6323 5.9628-18.793 5.1448 1.6323z"/>
   <path d="m345.77 27.5q0.98235-2.6495 3.1264-3.6831 2.144-1.0336 4.8233-0.04023 2.709 1.0044 5.3385 2.5888l-2.3614 4.5424q-2.6933-1.7774-3.7948-2.1858-1.3992-0.51877-1.8186 0.61248-0.16556 0.44654 0.33484 1.1061 0.53018 0.67064 1.3062 1.5002 0.78707 0.79975 1.4969 1.8079 0.72084 0.97837 0.93427 2.412 0.2432 1.4447-0.33075 2.9927-1.0486 2.8281-3.1408 3.8132t-4.8906-0.05242q-2.7686-1.0265-5.098-2.8722l1.9721-4.3143q2.8432 2.1039 4.0935 2.5675t1.6587-0.6379q0.20971-0.56562-0.29839-1.2958-0.47833-0.71914-1.2544-1.5487-0.77603-0.82952-1.5266-1.8189-0.72084-0.97837-0.96404-2.423-0.21343-1.4336 0.39363-3.0709z"/>
   <path d="m370.34 52.717-9.6529-4.5418 8.3942-17.841 9.9402 4.677-2.3554 4.2603-4.7403-2.2303-1.2571 2.6718 4.1082 1.933-1.7843 3.7922-4.1082-1.933-1.3923 2.9591 5.0276 2.3655z"/>
   <path d="m378.08 41.177q1.3446-2.4853 3.6125-3.2077 2.2679-0.72236 4.7812 0.63733 2.5412 1.3748 4.9222 3.3127l-2.9757 4.1659q-2.4171-2.1379-3.4504-2.6969-1.3125-0.71006-1.8866 0.3511-0.22661 0.41888 0.17623 1.1422 0.43078 0.73843 1.0827 1.6687 0.66699 0.90232 1.2282 2.0001 0.57635 1.0699 0.58639 2.5193 0.038 1.4645-0.74762 2.9166-1.4352 2.6529-3.645 3.3345-2.2098 0.68162-4.8348-0.73851-2.597-1.405-4.6443-3.5594l2.5582-3.9947q2.5197 2.4822 3.6925 3.1167t1.7318-0.39871q0.28704-0.53058-0.11351-1.3249-0.37264-0.77917-1.0245-1.7094-0.65189-0.93025-1.2562-2.0152-0.57634-1.0699-0.61431-2.5344-0.0101-1.4494 0.82087-2.9853z"/>
   <path d="m401.82 53.58-3.1354-1.9323-7.8292 12.704-4.622-2.8485 7.8292-12.704-3.3246-2.0489 2.7856-3.9148 11.082 6.8297z"/>
   <path d="m406.78 63.355q-1.6028 2.3272-4.113 0.59828-2.5102-1.7289-0.90739-4.0561 1.6208-2.3533 4.1311-0.62443t0.88938 4.0822z"/>
   <path d="m422.28 74.362q-6.3203 8.1164-12.733 3.1226l-5.1604-4.0185 12.114-15.556 5.2606 4.0965q3.4319 2.6725 3.3578 5.7133-0.0296 3.0353-2.8386 6.6426zm-9.9994-0.54324q1.3277 1.0339 2.4252 0.39961 1.1421-0.63981 2.8587-2.8443 1.7361-2.2295 2.032-3.488 0.32096-1.239-1.0318-2.2924l-0.75151-0.58522-6.3593 8.1665z"/>
   <path d="m425.51 90.942-7.9927-7.0656 13.059-14.772 8.2306 7.2759-3.4552 3.4293-3.925-3.4697-1.9556 2.2123 3.4017 3.0071-2.7758 3.14-3.4017-3.0071-2.1659 2.4502 4.1629 3.68z"/>
   <path d="m435.66 91.79q-0.69726 0.69467-0.74334 1.3232-0.0461 0.62853 0.60379 1.2808 0.67226 0.67477 1.2336 0.60846 0.60629-0.06622 1.3485-0.80572l9.3568-9.3221 3.8543 3.8687-9.5818 9.5462q-2.4067 2.3977-4.8309 2.1687-2.4018-0.20652-4.9564-2.7707-2.5322-2.5416-2.7074-4.8768-0.13036-2.3351 2.2538-4.7104l9.6267-9.591 3.9216 3.9362z"/>
   <path d="m449.04 95.043q2.1269-1.8604 4.5044-1.7464 2.3775 0.11395 4.2587 2.2648 1.9022 2.1747 3.4578 4.8213l-4.2418 2.8665q-1.5197-2.8467-2.2932-3.7309-0.98244-1.1232-1.8906-0.32891-0.35848 0.31354-0.23319 1.132 0.14619 0.8423 0.43272 1.9415 0.31042 1.0783 0.45355 2.3029 0.16703 1.2037-0.32903 2.5656-0.47517 1.3858-1.7179 2.4727-2.2703 1.9858-4.5791 1.8539t-4.2736-2.3783q-1.944-2.2225-3.1113-4.9557l3.7908-2.8517q1.4958 3.2051 2.3737 4.2088 0.87793 1.0037 1.7622 0.23032 0.45407-0.39715 0.35567-1.2813-0.0775-0.86021-0.36401-1.9594-0.28652-1.0992-0.47446-2.3268-0.16703-1.2037 0.30814-2.5895 0.49606-1.3619 1.8105-2.5115z"/>
   <path d="m458.62 128.92-6.3266-8.5896 15.875-11.693 6.5149 8.8452-4.0996 2.6252-3.1068-4.2181-2.3775 1.7511 2.6926 3.6557-3.3745 2.4854-2.6926-3.6557-2.6331 1.9394 3.2951 4.4737z"/>
   <path d="m467.46 142.39-3.3667-5.1959 4.5507-4.5376-0.13812-0.21316-6.0873 2.1661-3.1768-4.9028 10.255-2.9747 6.4304-7.5337 3.4875 5.3824-4.3158 4.0827 0.13812 0.21316 5.5416-2.1909 3.0386 4.6896-9.3655 3.0039z"/>
   <path d="m480.31 166.62-2.2473-4.4494 9.1822-4.6378-0.12883-0.25506-10.027 2.9657-2.3046-4.5628 8.3806-6.2249-0.14314-0.2834-9.1822 4.6378-2.2187-4.3927 17.9-8.294 3.2207 6.3765-8.7207 6.3966 0.11451 0.22672 10.295-3.2792 3.1778 6.2915z"/>
   <path d="m486.67 182.22-2.0051-4.9085 2.6523-1.7351-1.4168-3.4683-3.1086 0.61821-1.9091-4.6734 19.621-4.1055 3.0497 7.4656zm3.8579-8.6068 6.1048-3.6942-0.084-0.20574-6.9453 1.6368z"/>
   <path d="m497.9 185.38q-2.6466 0.89546-3.6165 1.7934-0.92962 0.91786-0.52259 2.1209 0.40703 1.203 1.7213 3.2052l-3.976 2.2167q-1.6761-2.0808-2.4901-4.4868-1.2211-3.609 0.59518-6.067 1.8565-2.4381 6.5783-4.0357 4.7519-1.6078 7.8281-0.73807 3.1063 0.85953 4.419 4.7392 0.77336 2.2857 0.51308 4.6865l-4.9364 0.76521q-0.0118-2.6104-0.3272-3.5428-0.44774-1.3233-1.7937-1.4377-1.3158-0.1246-3.9925 0.78104z"/>
   <path d="m495.13 210.31-1.396-5.2138 7.2074-1.9297-0.96075-3.5884-7.2074 1.9297-1.4124-5.2752 19.046-5.0994 1.4124 5.2752-7.4834 2.0036 0.96075 3.5884 7.4834-2.0036 1.396 5.2139z"/>
   <path d="m496.81 218.58-1.1039-5.2834 19.3-4.0324 1.1039 5.2834z"/>
   <path d="m499.65 235.88-0.78144-5.148 8.4572-5.4264-0.0381-0.25113-9.0718 1.377-0.72426-4.7713 19.493-2.959 0.80526 5.305-8.7683 5.281 0.0381 0.25112 9.3544-1.4199 0.72902 4.8027z"/>
   <path d="m501.1 252.84-0.42828-5.2849 3.0526-0.85261-0.30262-3.7343-3.1501-0.34995-0.40776-5.0318 19.945 2.0151 0.65139 8.0382zm6.2782-7.0389 6.9357-1.6769-0.018-0.22153-7.1152-0.53829z"/>
   <path d="m510.95 261.57q-2.8249 0.0697-2.9001-2.9774-0.0752-3.0471 2.7497-3.1168 2.8566-0.0705 2.9318 2.9766 0.0752 3.0471-2.7814 3.1176z"/>
  </g>
 </g>
</svg>
