<svg width="2e3" height="2e3" version="1.1" viewBox="0 0 529.17 529.17" xmlns="http://www.w3.org/2000/svg">
 <g transform="translate(-168.06 -57.082)">
  <path d="m341.93 398.69h60.854v10.583h-60.854z" style="fill:#fff"/>
  <path d="m392.2 373.56h10.583v35.719h-10.583z" style="fill:#fff"/>
  <path d="m432.67 205.42c-49.261 0-89.297 41.202-89.297 91.899 0 39.913 24.818 73.934 59.413 86.605v-10.368c-29.314-12.156-49.965-41.675-49.965-76.236 0-45.441 35.694-82.175 79.849-82.175 44.155 0 79.847 36.734 79.847 82.175 0 34.658-20.765 64.247-50.21 76.34v10.355c34.724-12.599 59.659-46.687 59.659-86.695 0-50.697-40.035-91.899-89.297-91.899z" style="color-rendering:auto;color:#000000;dominant-baseline:auto;fill:#fff;font-feature-settings:normal;font-variant-alternates:normal;font-variant-caps:normal;font-variant-east-asian:normal;font-variant-ligatures:normal;font-variant-numeric:normal;font-variant-position:normal;font-variation-settings:normal;image-rendering:auto;inline-size:0;isolation:auto;mix-blend-mode:normal;shape-margin:0;shape-padding:0;shape-rendering:auto;solid-color:#000000;stop-color:#000000;text-decoration-color:#000000;text-decoration-line:none;text-decoration-style:solid;text-indent:0;text-orientation:mixed;text-transform:none;white-space:normal"/>
  <path d="m462.3 373.66h9.954v142.88h-9.954z" style="fill:#fff"/>
  <path d="m462.3 505.95h60.854v10.583h-60.854z" style="fill:#fff"/>
  <path transform="matrix(.79659 0 0 .75554 169.18 90.911)" d="m475.29 356.68c293.76-488.42-717.41 71.507-147.55 81.703 569.87 10.196-420.63-585.54-144.53-86.928 276.1 498.62 296.78-657.05 3.0171-168.63s717.41-71.507 147.55-81.703c-569.87-10.196 420.63 585.54 144.53 86.928-276.1-498.62-296.78 657.05-3.0171 168.63z" style="fill:none;stroke-opacity:.25;stroke-width:.78278;stroke:#fff"/>
  <path d="m472.35 294.72a39.688 39.688 0 0 1-39.688 39.688 39.688 39.688 0 0 1-39.687-39.688 39.688 39.688 0 0 1 39.687-39.688 39.688 39.688 0 0 1 39.688 39.688z" style="fill:#fff;stroke-width:.1233;stroke:#fff"/>
  <path d="m297.82 294.72a23.151 23.151 0 0 1-23.151 23.151 23.151 23.151 0 0 1-23.151-23.151 23.151 23.151 0 0 1 23.151-23.151 23.151 23.151 0 0 1 23.151 23.151z" style="fill:#fff;stroke-width:.14571;stroke:#fff"/>
  <path d="m344.2 182.92a23.151 23.151 0 0 1-23.151 23.151 23.151 23.151 0 0 1-23.151-23.151 23.151 23.151 0 0 1 23.151-23.151 23.151 23.151 0 0 1 23.151 23.151z" style="fill:#fff;stroke-width:.14571;stroke:#fff"/>
  <path d="m455.82 136.4a23.151 23.151 0 0 1-23.151 23.151 23.151 23.151 0 0 1-23.151-23.151 23.151 23.151 0 0 1 23.151-23.151 23.151 23.151 0 0 1 23.151 23.151z" style="fill:#fff;stroke-width:.14571;stroke:#fff"/>
  <path d="m567.44 182.91a23.151 23.151 0 0 1-23.151 23.151 23.151 23.151 0 0 1-23.151-23.151 23.151 23.151 0 0 1 23.151-23.151 23.151 23.151 0 0 1 23.151 23.151z" style="fill:#fff;stroke-width:.14571;stroke:#fff"/>
  <path d="m613.76 294.72a23.151 23.151 0 0 1-23.151 23.151 23.151 23.151 0 0 1-23.151-23.151 23.151 23.151 0 0 1 23.151-23.151 23.151 23.151 0 0 1 23.151 23.151z" style="fill:#fff;stroke-width:.14571;stroke:#fff"/>
  <path d="m664.15 321.67a231.51 231.51 0 0 1-231.51 231.51 231.51 231.51 0 0 1-231.51-231.51 231.51 231.51 0 0 1 231.51-231.51 231.51 231.51 0 0 1 231.51 231.51z" style="fill:none;stroke-width:5.3035;stroke:#fff"/>
 </g>
</svg>
