<?xml version="1.0" encoding="UTF-8" standalone="no"?>
<svg
   viewBox="0 0 64 64"
   version="1.1"
   id="svg49"
   sodipodi:docname="Skills-Labwork.svg"
   width="64"
   height="64"
   inkscape:version="1.1.2 (b8e25be833, 2022-02-05)"
   xmlns:inkscape="http://www.inkscape.org/namespaces/inkscape"
   xmlns:sodipodi="http://sodipodi.sourceforge.net/DTD/sodipodi-0.dtd"
   xmlns="http://www.w3.org/2000/svg"
   xmlns:svg="http://www.w3.org/2000/svg">
  <sodipodi:namedview
     id="namedview51"
     pagecolor="#505050"
     bordercolor="#eeeeee"
     borderopacity="1"
     inkscape:pageshadow="0"
     inkscape:pageopacity="0"
     inkscape:pagecheckerboard="0"
     showgrid="false"
     inkscape:zoom="13.640625"
     inkscape:cx="32"
     inkscape:cy="31.963345"
     inkscape:window-width="2560"
     inkscape:window-height="1369"
     inkscape:window-x="2552"
     inkscape:window-y="-8"
     inkscape:window-maximized="1"
     inkscape:current-layer="svg49" />
  <defs
     id="defs4">
    <style
       id="style2">.cls-1{fill:#e8e8e8;}.cls-2{fill:#f5f5f5;}.cls-10,.cls-3{fill:none;}.cls-3{stroke:#000;stroke-linecap:round;stroke-linejoin:round;stroke-width:2px;}.cls-4{fill:#5280be;}.cls-5{fill:#bfbfbf;}.cls-6{fill:#e0b2a4;}.cls-7{fill:#f4cbbe;}.cls-8{fill:#96e0ff;}.cls-9{fill:#b3f5ff;}</style>
  </defs>
  <title
     id="title6" />
  <g
     id="Outline">
    <path
       class="cls-1"
       d="m 58,58.31 c 0,-0.05 0,-0.1 0,-0.16 C 58,49.79 46.36,43 32,43 17.64,43 6,49.79 6,58.16 c 0,0.05 0,0.1 0,0.16 z"
       id="path8" />
    <path
       class="cls-2"
       d="M 55.38,58.31 C 52.27,52.16 43,47.69 32,47.69 21,47.69 11.73,52.16 8.62,58.31 Z"
       id="path10" />
    <path
       class="cls-3"
       d="M 50.81,47.69 C 46.07,44.8 39.4,43 32,43 17.64,43 6,49.79 6,58.16 c 0,0.05 0,0.1 0,0.16 h 52 c 0,-0.05 0,-0.1 0,-0.16 a 10.18,10.18 0 0 0 -2.4,-6.37"
       id="path12" />
    <rect
       class="cls-4"
       height="8"
       width="5"
       x="29.5"
       y="50"
       id="rect14" />
    <rect
       class="cls-3"
       height="8"
       width="5"
       x="29.5"
       y="50"
       id="rect16" />
    <path
       class="cls-5"
       d="M 52.67,30.4 C 52.67,40.62 43.74,46 32,46 20.26,46 10.87,40.49 10.87,30.27 10.87,20.05 18,7 34,8 46.14,8.76 52.67,20.18 52.67,30.4 Z"
       id="path18" />
    <path
       class="cls-2"
       d="m 10.94,28.53 c 4.62,3.1 12.07,4.72 20.52,4.72 9.06,0 16.72,-1.82 21.07,-5.33 C 51.58,18.41 45.17,8.7 34,8 18.9,7.06 11.7,18.63 10.94,28.53 Z"
       id="path20" />
    <path
       class="cls-3"
       d="M 52.67,30.4 C 52.67,40.62 43.74,46 32,46 20.26,46 10.87,40.49 10.87,30.27 10.87,20.05 18,7 34,8 46.14,8.76 52.67,20.18 52.67,30.4 Z"
       id="path22" />
    <path
       class="cls-6"
       d="m 26,16.5 h 12 a 8,8 0 0 1 8,8 V 38 A 12,12 0 0 1 34,50 H 30 A 12,12 0 0 1 18,38 V 24.5 a 8,8 0 0 1 8,-8 z"
       id="path24" />
    <path
       class="cls-1"
       d="m 32,38 c -6,0 -11.12,0.75 -13.53,3.28 A 12,12 0 0 0 30,50 h 4 A 12,12 0 0 0 45.53,41.28 C 43.12,38.75 38,38 32,38 Z"
       id="path26" />
    <path
       class="cls-7"
       d="M 20.23,30.48 C 20.23,39.58 25.5,47 32,47 c 6.5,0 11.77,-7.38 11.77,-16.48 0,-5.84 -2.18,-11 -5.46,-13.89 a 6.33,6.33 0 0 0 -1,-0.09 H 26.68 a 6.33,6.33 0 0 0 -1,0.09 c -3.27,2.88 -5.45,8 -5.45,13.85 z"
       id="path28" />
    <path
       class="cls-2"
       d="M 22.21,39.61 C 24.32,44 27.92,47 32,47 36.08,47 39.68,44.08 41.79,39.66 39.36,38.41 35.88,38 32,38 c -3.88,0 -7.36,0.41 -9.79,1.61 z"
       id="path30" />
    <path
       class="cls-3"
       d="m 25,38.48 c -2.85,0.47 -5.16,1.34 -6.56,2.8 A 12,12 0 0 0 30,50 h 4 A 12,12 0 0 0 45.53,41.28 C 43.12,38.75 38,38 32,38 c -1,0 -2,0 -3,0.07"
       id="path32" />
    <path
       class="cls-3"
       d="m 26,16.5 h 12 a 8,8 0 0 1 8,8 V 38 A 12,12 0 0 1 34,50 H 30 A 12,12 0 0 1 18,38 V 24.5 a 8,8 0 0 1 8,-8 z"
       id="path34" />
    <path
       class="cls-8"
       d="M 32,23 H 19.17 a 3.55,3.55 0 0 0 -3.67,3.43 v 5.14 A 3.55,3.55 0 0 0 19.17,35 h 8.32 a 1.89,1.89 0 0 0 1.39,-0.6 L 32,31 l 3.12,3.4 a 1.89,1.89 0 0 0 1.39,0.6 h 8.32 A 3.55,3.55 0 0 0 48.5,31.57 V 26.43 A 3.55,3.55 0 0 0 44.83,23 Z"
       id="path36" />
    <path
       class="cls-9"
       d="m 18.82,35 c 0.12,0 0.23,0 0.35,0 h 3.92 l 2.85,-12 h -4.28 z"
       id="path38" />
    <path
       class="cls-9"
       d="m 38.06,35 h 5.35 L 46.2,23.25 A 3.87,3.87 0 0 0 44.83,23 h -3.92 z"
       id="path40" />
    <path
       class="cls-9"
       d="m 32,23 h -0.71 l -2.78,11.7 a 1.79,1.79 0 0 0 0.38,-0.3 L 32,31 33.32,32.44 35.56,23 Z"
       id="path42" />
    <path
       class="cls-3"
       d="M 32,23 H 19.17 a 3.55,3.55 0 0 0 -3.67,3.43 v 5.14 A 3.55,3.55 0 0 0 19.17,35 h 8.32 a 1.89,1.89 0 0 0 1.39,-0.6 L 32,31 l 3.12,3.4 a 1.89,1.89 0 0 0 1.39,0.6 h 8.32 A 3.55,3.55 0 0 0 48.5,31.57 V 26.43 A 3.55,3.55 0 0 0 44.83,23 Z"
       id="path44" />
    <rect
       class="cls-10"
       height="64"
       width="64"
       id="rect46"
       x="0"
       y="0" />
  </g>
</svg>
