<?xml version="1.0" encoding="UTF-8" standalone="no"?>
<svg
   height="6.8499999mm"
   style="clip-rule:evenodd;fill-rule:evenodd;image-rendering:optimizeQuality;shape-rendering:geometricPrecision;text-rendering:geometricPrecision"
   version="1.1"
   viewBox="0 0 685.27504 685.27504"
   width="6.8499999mm"
   xml:space="preserve"
   id="svg17"
   sodipodi:docname="Skills-Ubuntu.svg"
   inkscape:version="1.1.2 (b8e25be833, 2022-02-05)"
   xmlns:inkscape="http://www.inkscape.org/namespaces/inkscape"
   xmlns:sodipodi="http://sodipodi.sourceforge.net/DTD/sodipodi-0.dtd"
   xmlns="http://www.w3.org/2000/svg"
   xmlns:svg="http://www.w3.org/2000/svg"><sodipodi:namedview
     id="namedview19"
     pagecolor="#505050"
     bordercolor="#eeeeee"
     borderopacity="1"
     inkscape:pageshadow="0"
     inkscape:pageopacity="0"
     inkscape:pagecheckerboard="0"
     inkscape:document-units="mm"
     showgrid="false"
     inkscape:zoom="27.281463"
     inkscape:cx="12.957516"
     inkscape:cy="12.939189"
     inkscape:window-width="2560"
     inkscape:window-height="1369"
     inkscape:window-x="-8"
     inkscape:window-y="-8"
     inkscape:window-maximized="1"
     inkscape:current-layer="svg17" /><defs
     id="defs4"><style
       type="text/css"
       id="style2">
   <![CDATA[
    .fil2 {fill:#FEFEFE}
    .fil0 {fill:#FE721D}
    .fil1 {fill:#FEFEFE;fill-rule:nonzero}
   ]]>
  </style></defs><g
     id="Layer_x0020_1"
     transform="translate(-80.362473,-80.362473)"><circle
       class="fil0"
       cx="423"
       cy="423"
       r="342"
       id="circle6" /><path
       class="fil1"
       d="m 425,237 c 27,0 52,5 74,15 0,2 0,4 0,5 0,13 5,24 13,32 h 1 c 8,9 19,14 32,14 7,0 13,-2 19,-4 27,29 44,67 48,110 l -55,1 c -3,-31 -17,-59 -38,-80 -24,-24 -57,-39 -94,-39 -17,0 -34,4 -49,10 l -25,-49 c 23,-10 48,-15 74,-15 z m 187,193 c -1,42 -17,81 -42,111 -5,-2 -11,-3 -17,-3 -13,0 -24,5 -32,13 v 0 c -9,8 -14,20 -14,32 0,3 0,5 1,8 -25,12 -53,19 -83,19 -27,0 -54,-6 -77,-17 l 25,-48 c 16,7 34,11 52,11 37,0 70,-15 94,-39 22,-22 37,-52 39,-86 z M 328,583 c -12,-8 -24,-17 -34,-27 l -1,-1 c -26,-26 -44,-60 -51,-97 4,-3 7,-5 11,-8 8,-9 13,-20 13,-33 0,-12 -5,-24 -13,-32 -3,-2 -6,-5 -9,-7 9,-33 26,-63 49,-86 h 1 c 11,-12 24,-22 38,-30 l 25,48 c -10,6 -18,12 -25,20 -24,24 -39,57 -39,94 0,36 15,69 39,93 6,7 14,13 22,18 z"
       id="path8" /><circle
       class="fil2"
       cx="546"
       cy="256"
       r="35"
       id="circle10" /><circle
       class="fil2"
       cx="554"
       cy="584"
       r="35"
       id="circle12" /><circle
       class="fil2"
       cx="217"
       cy="417"
       r="35"
       id="circle14" /></g></svg>
