<?xml version="1.0" encoding="UTF-8" standalone="no"?>
<svg
   viewBox="0 0 28 28"
   version="1.1"
   id="svg13"
   sodipodi:docname="Skills-Chemistry.svg"
   width="28"
   height="28"
   inkscape:version="1.1.2 (b8e25be833, 2022-02-05)"
   xmlns:inkscape="http://www.inkscape.org/namespaces/inkscape"
   xmlns:sodipodi="http://sodipodi.sourceforge.net/DTD/sodipodi-0.dtd"
   xmlns="http://www.w3.org/2000/svg"
   xmlns:svg="http://www.w3.org/2000/svg">
  <sodipodi:namedview
     id="namedview15"
     pagecolor="#505050"
     bordercolor="#eeeeee"
     borderopacity="1"
     inkscape:pageshadow="0"
     inkscape:pageopacity="0"
     inkscape:pagecheckerboard="0"
     showgrid="false"
     inkscape:zoom="27.28125"
     inkscape:cx="8.9988545"
     inkscape:cy="13.965636"
     inkscape:window-width="2560"
     inkscape:window-height="1369"
     inkscape:window-x="2552"
     inkscape:window-y="-8"
     inkscape:window-maximized="1"
     inkscape:current-layer="Layer_20" />
  <defs
     id="defs4">
    <style
       id="style2">.cls-1{fill:#ff005c;}</style>
  </defs>
  <title
     id="title6" />
  <g
     data-name="Layer 20"
     id="Layer_20"
     transform="translate(-7,-2)">
    <path
       d="M 25,12.933871 V 4.0038711 h 2 v -2 H 15 v 2 h 2 v 8.9299999 a 9,9 0 1 0 8,0 z m 0.66,13.29 a 6.88,6.88 0 0 1 -5.48,1.78 7,7 0 0 1 -5,-3.17 4.15,4.15 0 0 1 3.82,-2.83 4.49,4.49 0 0 1 3.27,1.58 8.31,8.31 0 0 0 3.83,2.21 4.47,4.47 0 0 1 -0.44,0.43 z m 1.67,-2.22 a 5.87,5.87 0 0 1 -3.73,-1.88 6.37,6.37 0 0 0 -4.6,-2.12 5.86,5.86 0 0 0 -4.83,2.44 4.36,4.36 0 0 1 -0.11,-0.52 7,7 0 0 1 4.32,-7.41 l 0.62,-0.93 V 4.0038711 h 4 v 2 h -2 v 2 h 2 v 1 h -2 v 1.9999999 h 2 v 1 h -2 v 2 h 2.28 l 0.34,0.51 a 7,7 0 0 1 3.71,9.49 z"
       id="path8"
       style="fill:#ffffff;fill-opacity:1" />
    <path
       class="cls-1"
       d="m 26.1,25.793871 a 4.47,4.47 0 0 1 -0.44,0.43 6.88,6.88 0 0 1 -5.48,1.78 7,7 0 0 1 -5,-3.17 4.15,4.15 0 0 1 3.82,-2.83 4.49,4.49 0 0 1 3.27,1.58 8.31,8.31 0 0 0 3.83,2.21 z"
       id="path10" />
  </g>
</svg>
