<?xml version="1.0" encoding="UTF-8" standalone="no"?>
<svg
   viewBox="0 0 65.000001 64.999999"
   version="1.1"
   id="svg39"
   sodipodi:docname="Skills-Bitbucket.svg"
   width="65"
   height="65"
   inkscape:version="1.1.2 (b8e25be833, 2022-02-05)"
   xmlns:inkscape="http://www.inkscape.org/namespaces/inkscape"
   xmlns:sodipodi="http://sodipodi.sourceforge.net/DTD/sodipodi-0.dtd"
   xmlns="http://www.w3.org/2000/svg"
   xmlns:svg="http://www.w3.org/2000/svg"
   xmlns:rdf="http://www.w3.org/1999/02/22-rdf-syntax-ns#"
   xmlns:cc="http://creativecommons.org/ns#"
   xmlns:dc="http://purl.org/dc/elements/1.1/">
  <sodipodi:namedview
     id="namedview41"
     pagecolor="#505050"
     bordercolor="#eeeeee"
     borderopacity="1"
     inkscape:pageshadow="0"
     inkscape:pageopacity="0"
     inkscape:pagecheckerboard="0"
     showgrid="false"
     inkscape:zoom="2.385946"
     inkscape:cx="221.50544"
     inkscape:cy="25.147259"
     inkscape:window-width="2560"
     inkscape:window-height="1369"
     inkscape:window-x="-8"
     inkscape:window-y="-8"
     inkscape:window-maximized="1"
     inkscape:current-layer="Blue" />
  <defs
     id="defs9">
    <style
       id="style2">.cls-1{fill:#253858;}.cls-2{fill:none;}.cls-3{fill:#2684ff;}.cls-4{fill:url(#New_Gradient_Swatch_1);}</style>
    <linearGradient
       id="New_Gradient_Swatch_1"
       x1="64.010002"
       y1="30.27"
       x2="32.990002"
       y2="54.48"
       gradientUnits="userSpaceOnUse"
       gradientTransform="translate(-0.02579294,6.2598337)">
      <stop
         offset="0.18"
         stop-color="#0052cc"
         id="stop4" />
      <stop
         offset="1"
         stop-color="#2684ff"
         id="stop6" />
    </linearGradient>
  </defs>
  <title
     id="title11">Bitbucket-blue</title>
  <g
     id="Layer_2"
     data-name="Layer 2"
     transform="translate(0.02579294,-6.2598337)">
    <g
       id="Blue">
      <polygon
         class="cls-2"
         points="24.7,43.51 37.75,43.51 40.9,25.12 21.23,25.12 "
         id="polygon31"
         transform="translate(1.2892071,4.434834)" />
      <path
         class="cls-3"
         d="m 3.2892071,10.694834 a 2,2 0 0 0 -2,2.32 l 8.49,51.54 a 2.72,2.72 0 0 0 2.6599999,2.27 h 40.73 a 2,2 0 0 0 2,-1.68 l 8.49,-52.12 a 2,2 0 0 0 -2,-2.32 z m 35.7499999,37.25 h -13 l -3.52,-18.39 h 19.67 z"
         id="path33" />
      <path
         class="cls-4"
         d="m 60.959207,29.554834 h -18.77 l -3.15,18.39 h -13 l -15.35,18.22 a 2.71,2.71 0 0 0 1.75,0.66 h 40.74 a 2,2 0 0 0 2,-1.68 z"
         id="path35"
         style="fill:url(#New_Gradient_Swatch_1)" />
    </g>
  </g>
  <metadata
     id="metadata858">
    <rdf:RDF>
      <cc:Work
         rdf:about="">
        <dc:title>Bitbucket-blue</dc:title>
      </cc:Work>
    </rdf:RDF>
  </metadata>
</svg>
