<?xml version="1.0" encoding="UTF-8" standalone="no"?>
<svg
   height="510"
   version="1.1"
   viewBox="0 0 510 510"
   width="510"
   xml:space="preserve"
   id="svg11"
   sodipodi:docname="Skills-PHP.svg"
   inkscape:version="1.1.2 (b8e25be833, 2022-02-05)"
   xmlns:inkscape="http://www.inkscape.org/namespaces/inkscape"
   xmlns:sodipodi="http://sodipodi.sourceforge.net/DTD/sodipodi-0.dtd"
   xmlns="http://www.w3.org/2000/svg"
   xmlns:svg="http://www.w3.org/2000/svg"><defs
     id="defs15" /><sodipodi:namedview
     id="namedview13"
     pagecolor="#505050"
     bordercolor="#eeeeee"
     borderopacity="1"
     inkscape:pageshadow="0"
     inkscape:pageopacity="0"
     inkscape:pagecheckerboard="0"
     showgrid="false"
     inkscape:zoom="1.2056723"
     inkscape:cx="288.63565"
     inkscape:cy="122.33838"
     inkscape:window-width="1703"
     inkscape:window-height="1360"
     inkscape:window-x="-7"
     inkscape:window-y="0"
     inkscape:window-maximized="0"
     inkscape:current-layer="svg11" /><g
     id="Layer_2"
     style="fill:#ffffff;fill-opacity:1;stroke-width:0.950452"
     transform="matrix(0.82133374,0,0,0.82133374,45.2241,52.078001)"><g
       id="g8"
       style="fill:#ffffff;fill-opacity:1;stroke-width:0.950452"><path
         d="m 103.462,207.061 c 15.821,0 26.365,2.92 31.637,8.761 5.267,5.841 6.522,15.867 3.766,30.074 -2.879,14.795 -8.423,25.355 -16.641,31.682 -8.218,6.328 -20.724,9.488 -37.513,9.488 H 59.381 L 74.93,207.061 Z M 2,368.057 h 41.643 l 9.877,-50.823 h 35.669 c 15.739,0 28.686,-1.65 38.85,-4.96 10.165,-3.305 19.402,-8.848 27.717,-16.63 6.978,-6.415 12.624,-13.49 16.948,-21.227 4.319,-7.731 7.388,-16.267 9.202,-25.601 4.406,-22.66 1.081,-40.31 -9.965,-52.955 -11.046,-12.645 -28.619,-18.967 -52.709,-18.967 H 39.154 Z"
         fill="#000003"
         id="path2"
         style="fill:#ffffff;fill-opacity:1;stroke-width:0.950452" /><path
         d="m 212.49,126.071 h 41.314 l -9.878,50.823 h 36.806 c 23.157,0 39.132,4.042 47.924,12.117 8.791,8.08 11.425,21.17 7.91,39.266 l -17.286,88.957 h -41.97 l 16.436,-84.582 c 1.87,-9.622 1.184,-16.185 -2.064,-19.684 -3.248,-3.5 -10.159,-5.251 -20.729,-5.251 h -33.02 L 216.65,317.233 h -41.315 z"
         fill="#000003"
         id="path4"
         style="fill:#ffffff;fill-opacity:1;stroke-width:0.950452" /><path
         d="m 428.49,207.061 c 15.821,0 26.365,2.92 31.637,8.761 5.269,5.841 6.523,15.867 3.766,30.074 -2.879,14.795 -8.421,25.355 -16.641,31.682 -8.218,6.328 -20.724,9.488 -37.513,9.488 H 384.41 l 15.549,-80.005 z M 327.029,368.057 h 41.643 l 9.876,-50.823 h 35.669 c 15.739,0 28.686,-1.65 38.851,-4.96 10.164,-3.305 19.401,-8.848 27.717,-16.63 6.979,-6.415 12.624,-13.49 16.948,-21.227 4.318,-7.731 7.388,-16.267 9.201,-25.601 4.406,-22.66 1.082,-40.31 -9.965,-52.955 -11.046,-12.645 -28.619,-18.967 -52.709,-18.967 h -80.076 z"
         fill="#000003"
         id="path6"
         style="fill:#ffffff;fill-opacity:1;stroke-width:0.950452" /></g></g><circle
     style="fill:none;fill-rule:evenodd;stroke:#ffffff;stroke-width:10;stroke-miterlimit:4;stroke-dasharray:none;stroke-opacity:1"
     id="path869"
     cx="255"
     cy="255"
     r="250" /></svg>
