<?xml version="1.0" encoding="UTF-8" standalone="no"?>
<!-- Created with Inkscape (http://www.inkscape.org/) -->

<svg
   width="512"
   height="512"
   viewBox="0 0 135.46666 135.46666"
   version="1.1"
   id="svg5"
   inkscape:version="1.1.2 (b8e25be833, 2022-02-05)"
   sodipodi:docname="Skills-Drilling.svg"
   xmlns:inkscape="http://www.inkscape.org/namespaces/inkscape"
   xmlns:sodipodi="http://sodipodi.sourceforge.net/DTD/sodipodi-0.dtd"
   xmlns="http://www.w3.org/2000/svg"
   xmlns:svg="http://www.w3.org/2000/svg">
  <sodipodi:namedview
     id="namedview7"
     pagecolor="#505050"
     bordercolor="#eeeeee"
     borderopacity="1"
     inkscape:pageshadow="0"
     inkscape:pageopacity="0"
     inkscape:pagecheckerboard="0"
     inkscape:document-units="px"
     showgrid="false"
     inkscape:snap-page="false"
     inkscape:snap-bbox="true"
     inkscape:snap-bbox-edge-midpoints="true"
     inkscape:snap-bbox-midpoints="true"
     inkscape:bbox-paths="true"
     inkscape:bbox-nodes="true"
     units="px"
     inkscape:zoom="1.0998546"
     inkscape:cx="70.463859"
     inkscape:cy="332.77126"
     inkscape:window-width="2560"
     inkscape:window-height="1369"
     inkscape:window-x="2552"
     inkscape:window-y="-8"
     inkscape:window-maximized="1"
     inkscape:current-layer="layer2" />
  <defs
     id="defs2">
    <clipPath
       clipPathUnits="userSpaceOnUse"
       id="clipPath5968">
      <g
         inkscape:label="Clip"
         id="use5970"
         style="fill:#000000;fill-opacity:1">
        <g
           id="g9851">
          <g
             id="g9849"
             clip-path="url(#clipPath7536)">
            <g
               inkscape:label="Clip"
               id="g9847" />
          </g>
        </g>
      </g>
    </clipPath>
    <clipPath
       clipPathUnits="userSpaceOnUse"
       id="clipPath7536">
      <g
         inkscape:label="Clip"
         id="use7538" />
    </clipPath>
    <clipPath
       clipPathUnits="userSpaceOnUse"
       id="clipPath5968-2">
      <g
         inkscape:label="Clip"
         id="use5970-2"
         style="fill:#000000;fill-opacity:1">
        <g
           id="g9861">
          <g
             id="g9859"
             clip-path="url(#clipPath7536-8)">
            <g
               inkscape:label="Clip"
               id="g9857" />
          </g>
        </g>
      </g>
    </clipPath>
    <clipPath
       clipPathUnits="userSpaceOnUse"
       id="clipPath7536-8">
      <g
         inkscape:label="Clip"
         id="use7538-2" />
    </clipPath>
    <clipPath
       clipPathUnits="userSpaceOnUse"
       id="clipPath5968-0">
      <g
         inkscape:label="Clip"
         id="use5970-5"
         style="fill:#000000;fill-opacity:1">
        <g
           id="g9885">
          <g
             id="g9883"
             clip-path="url(#clipPath7536-6)">
            <g
               inkscape:label="Clip"
               id="g9881" />
          </g>
        </g>
      </g>
    </clipPath>
    <clipPath
       clipPathUnits="userSpaceOnUse"
       id="clipPath7536-6">
      <g
         inkscape:label="Clip"
         id="use7538-5" />
    </clipPath>
    <clipPath
       clipPathUnits="userSpaceOnUse"
       id="clipPath5968-8">
      <g
         inkscape:label="Clip"
         id="use5970-3"
         style="fill:#000000;fill-opacity:1">
        <g
           id="g9895">
          <g
             id="g9893"
             clip-path="url(#clipPath7536-7)">
            <g
               inkscape:label="Clip"
               id="g9891" />
          </g>
        </g>
      </g>
    </clipPath>
    <clipPath
       clipPathUnits="userSpaceOnUse"
       id="clipPath7536-7">
      <g
         inkscape:label="Clip"
         id="use7538-57" />
    </clipPath>
    <clipPath
       clipPathUnits="userSpaceOnUse"
       id="clipPath5968-2-2">
      <g
         inkscape:label="Clip"
         id="use5970-2-4"
         style="fill:#000000;fill-opacity:1">
        <g
           id="g9873">
          <g
             id="g9871"
             clip-path="url(#clipPath7536-8-3)">
            <g
               inkscape:label="Clip"
               id="g9869">
              <path
                 id="path9867"
                 style="fill:#000000;fill-opacity:1;fill-rule:evenodd;stroke-width:2.71994"
                 d="m 155.56831,12.345186 v 86.518746 0.161232 h 0.006 a 13.546666,13.546666 0 0 0 13.54027,13.385226 13.546666,13.546666 0 0 0 13.54026,-13.385226 h 0.006 V 98.863932 12.345186 Z" />
            </g>
          </g>
        </g>
      </g>
    </clipPath>
    <clipPath
       clipPathUnits="userSpaceOnUse"
       id="clipPath7536-8-3">
      <g
         inkscape:label="Clip"
         id="use7538-2-4">
        <path
           id="path9877"
           style="fill:#000000;fill-opacity:1;fill-rule:evenodd;stroke-width:2.71994"
           d="m 155.56831,12.345186 v 86.518746 0.161232 h 0.006 a 13.546666,13.546666 0 0 0 13.54027,13.385226 13.546666,13.546666 0 0 0 13.54026,-13.385226 h 0.006 V 98.863932 12.345186 Z" />
      </g>
    </clipPath>
  </defs>
  <g
     inkscape:label="Layers"
     inkscape:groupmode="layer"
     id="layer1"
     style="display:inline">
    <path
       id="rect846"
       style="fill:#28170b;fill-rule:evenodd;stroke-width:2.64582"
       d="M 4.5410155e-7,109.00833 H 135.46666 v 26.45833 H 4.5410155e-7 Z" />
    <path
       id="rect846-0"
       style="fill:#c87137;fill-rule:evenodd;stroke-width:20.7363"
       d="M 204.80079,182 H 1.7162893e-6 v -99.999997 0 H 204.80078"
       transform="scale(0.26458332)" />
    <path
       id="path8916"
       style="fill:#ffffff;fill-rule:evenodd;stroke-width:20.7363"
       d="M 307.19922,182 H 204.80079"
       transform="scale(0.26458332)" />
    <path
       id="path8914"
       style="fill:#c87137;fill-rule:evenodd;stroke-width:20.7363"
       d="M 307.19922,82.000003 H 512 V 182 H 307.19922"
       transform="scale(0.26458332)" />
    <path
       id="path8912"
       style="fill:#ffffff;fill-rule:evenodd;stroke-width:20.7363"
       d="M 204.80078,82.000003 H 307.19922"
       transform="scale(0.26458332)" />
    <path
       id="rect846-1"
       style="fill:#502d16;fill-rule:evenodd;stroke-width:20.7363"
       d="M 0,302 V 402 H 512 V 302 H 307.19922 v 25 0.60938 h -0.0234 A 51.2,51.2 0 0 1 256,378.19922 51.2,51.2 0 0 1 204.82422,327.60938 h -0.0234 V 327 302 Z"
       transform="scale(0.26458332)" />
    <path
       id="rect846-1-3"
       style="fill:#784421;fill-rule:evenodd;stroke-width:20.7363"
       d="M 204.80079,292.00001 H 1.7162894e-6 v -100 0 H 204.80078"
       transform="scale(0.26458332)" />
    <path
       id="path8923"
       style="fill:#ffffff;fill-rule:evenodd;stroke-width:20.7363"
       d="M 307.19922,292.00001 H 204.80079"
       transform="scale(0.26458332)" />
    <path
       id="path8921"
       style="fill:#784421;fill-rule:evenodd;stroke-width:20.7363"
       d="M 307.19922,192.00001 H 512 v 100 H 307.19922"
       transform="scale(0.26458332)" />
    <path
       id="path8919"
       style="fill:#ffffff;fill-rule:evenodd;stroke-width:20.7363"
       d="M 204.80078,192.00001 H 307.19922"
       transform="scale(0.26458332)" />
  </g>
  <g
     inkscape:groupmode="layer"
     id="layer2"
     inkscape:label="Water"
     style="display:inline">
    <path
       id="path1401"
       style="fill:none;stroke:#6176ff;stroke-width:5.00001;stroke-linecap:butt;stroke-linejoin:miter;stroke-miterlimit:4;stroke-dasharray:none;stroke-opacity:1"
       d="m 307.23153,26.416376 c 21.83181,5.184678 36.8212,-10.739221 36.8212,-10.739221 0,0 25.13484,-25.2959443 57.34211,0 32.20732,25.29593 57.34217,0 57.34217,0 0,0 23.37528,-25.0553811 53.26299,0"
       transform="scale(0.26458332)"
       sodipodi:nodetypes="ccscc" />
    <path
       id="path9188"
       style="fill:none;stroke:#6176ff;stroke-width:5.00001;stroke-linecap:butt;stroke-linejoin:miter;stroke-miterlimit:4;stroke-dasharray:none;stroke-opacity:1"
       d="m -7.5590555e-5,15.677155 c 0,0 24.101407590555,-25.2959443 57.342136590555,0 33.240728,25.29593 57.342139,0 57.342139,0 0,0 24.06271,-25.777067 57.34214,0 12.4825,9.66851 23.66835,12.084051 32.77412,11.32731"
       transform="scale(0.26458332)"
       sodipodi:nodetypes="cscsc" />
  </g>
  <g
     inkscape:groupmode="layer"
     id="layer3"
     inkscape:label="Drill"
     style="display:inline"
     sodipodi:insensitive="true">
    <path
       id="rect3055"
       style="fill:#ffffff;fill-rule:evenodd;stroke:none;stroke-width:13.133;stroke-miterlimit:4;stroke-dasharray:none;stroke-opacity:1"
       d="m 230.40039,0 v 10 h 51.19922 V 0 Z m 0,15 v 5 h 51.19922 v -5 z m 0,10 v 5 h 51.19922 v -5 z m 0,10 v 172.01758 h 34.98438 l 16.21484,-4.3457 V 35 Z"
       transform="scale(0.26458332)" />
    <path
       id="path3159"
       style="fill:#ffffff;fill-rule:evenodd;stroke:none;stroke-width:9.91227;stroke-miterlimit:4;stroke-dasharray:none;stroke-opacity:1"
       d="m 256,50.710938 a 25.599998,151.2445 0 0 0 -25.59961,151.244142 25.599998,151.2445 0 0 0 0.13672,14.40039 l 51.05859,-13.68164 a 25.599998,151.2445 0 0 0 0.004,-0.71875 A 25.599998,151.2445 0 0 0 256,50.710938 Z m 25.56055,157.148442 -50.92383,13.64453 a 25.599998,151.2445 0 0 0 0.40234,13.98828 25.599998,151.2445 0 0 0 0.28321,5.65234 l 49.875,-13.36328 a 25.599998,151.2445 0 0 0 0.0898,-2.33789 25.599998,151.2445 0 0 0 0.27344,-17.58398 z M 281,233.00977 231.57617,246.25195 a 25.599998,151.2445 0 0 0 1.27539,19.48438 l 47.14649,-12.63477 A 25.599998,151.2445 0 0 0 281,233.00977 Z m -1.33008,25.35742 -46.37109,12.42383 a 25.599998,151.2445 0 0 0 1.99219,19.29101 l 42.6914,-11.43945 a 25.599998,151.2445 0 0 0 1.6875,-20.27539 z m -2.27148,25.60742 -41.45313,11.10742 a 25.599998,151.2445 0 0 0 2.96875,19.0293 l 35.81055,-9.59571 a 25.599998,151.2445 0 0 0 2.67383,-20.54101 z m -3.56055,25.95508 -33.93945,9.09375 a 25.599998,151.2445 0 0 0 4.84961,18.52344 l 24.52929,-6.57227 a 25.599998,151.2445 0 0 0 4.56055,-21.04492 z m -6.17773,26.65429 -21.16797,5.67188 A 25.599998,151.2445 0 0 0 256,353.19922 25.599998,151.2445 0 0 0 267.66016,336.58398 Z"
       transform="scale(0.26458332)" />
  </g>
  <g
     inkscape:groupmode="layer"
     id="layer5"
     inkscape:label="Drill Details"
     style="display:inline"
     sodipodi:insensitive="true" />
</svg>
