<?xml version="1.0" encoding="UTF-8" standalone="no"?>
<!-- Generator: Adobe Illustrator 22.1.0, SVG Export Plug-In . SVG Version: 6.00 Build 0)  -->

<svg
   version="1.1"
   x="0px"
   y="0px"
   viewBox="0 0 1800 899.99996"
   xml:space="preserve"
   id="svg37"
   sodipodi:docname="Skills-RStudio.svg"
   width="1800"
   height="900"
   inkscape:version="1.1.2 (b8e25be833, 2022-02-05)"
   xmlns:inkscape="http://www.inkscape.org/namespaces/inkscape"
   xmlns:sodipodi="http://sodipodi.sourceforge.net/DTD/sodipodi-0.dtd"
   xmlns="http://www.w3.org/2000/svg"
   xmlns:svg="http://www.w3.org/2000/svg"><defs
   id="defs41" /><sodipodi:namedview
   id="namedview39"
   pagecolor="#505050"
   bordercolor="#eeeeee"
   borderopacity="1"
   inkscape:pageshadow="0"
   inkscape:pageopacity="0"
   inkscape:pagecheckerboard="0"
   showgrid="false"
   inkscape:zoom="0.59301609"
   inkscape:cx="882.77537"
   inkscape:cy="310.27826"
   inkscape:window-width="2560"
   inkscape:window-height="1369"
   inkscape:window-x="2552"
   inkscape:window-y="-8"
   inkscape:window-maximized="1"
   inkscape:current-layer="Blue_Gradient_Letters" />
<style
   type="text/css"
   id="style2">
	.st0{fill:#75AADB;}
	.st1{fill:#4D4D4D;}
	.st2{fill:#FFFFFF;}
	.st3{fill:url(#SVGID_1_);}
	.st4{fill:url(#SVGID_2_);}
	.st5{fill:url(#SVGID_3_);}
	.st6{fill:url(#SVGID_4_);}
	.st7{fill:url(#SVGID_5_);}
	.st8{fill:url(#SVGID_6_);}
	.st9{fill:url(#SVGID_7_);}
	.st10{fill:url(#SVGID_8_);}
	.st11{fill:url(#SVGID_9_);}
	.st12{fill:url(#SVGID_10_);}
	.st13{opacity:0.18;fill:url(#SVGID_11_);}
	.st14{opacity:0.3;}
</style>
<g
   id="Gray_Logo"
   transform="translate(-8.8808475,-3.1334903)">
</g>
<g
   id="Black_Letters"
   transform="translate(-8.8808475,-3.1334903)">
</g>
<g
   id="Blue_Gradient_Letters"
   transform="translate(-8.8808475,-3.1334903)">
	<g
   id="g32"
   transform="translate(16.840424,140.20298)">
		
			<circle
   transform="matrix(0.7071,-0.7071,0.7071,0.7071,-127.9265,317.0317)"
   class="st0"
   cx="318.70001"
   cy="312.89999"
   id="ellipse6"
   r="309.79999" />
		<g
   id="g20">
			<path
   class="st1"
   d="m 694.4,404.8 c 16.1,10.3 39.1,18.1 63.9,18.1 36.7,0 58.1,-19.4 58.1,-47.4 0,-25.5 -14.8,-40.8 -52.3,-54.8 -45.3,-16.5 -73.3,-40.4 -73.3,-79.1 0,-43.3 35.8,-75.4 89.8,-75.4 28,0 49,6.6 61,13.6 l -9.9,29.3 c -8.7,-5.4 -27.2,-13.2 -52.3,-13.2 -37.9,0 -52.3,22.7 -52.3,41.6 0,26 16.9,38.7 55.2,53.6 47,18.1 70.5,40.8 70.5,81.6 0,42.8 -31.3,80.3 -96.8,80.3 -26.8,0 -56,-8.2 -70.9,-18.1 z"
   id="path8"
   style="fill:#808080" />
			<path
   class="st1"
   d="m 943.3,201.3 v 47.8 h 51.9 v 27.6 h -51.9 v 107.5 c 0,24.7 7,38.7 27.2,38.7 9.9,0 15.7,-0.8 21,-2.5 l 1.6,27.6 c -7,2.5 -18.1,4.9 -32.1,4.9 -16.9,0 -30.5,-5.8 -39.1,-15.2 -9.9,-11.1 -14,-28.8 -14,-52.3 V 276.7 H 877 v -27.6 h 30.9 V 212 Z"
   id="path10"
   style="fill:#808080" />
			<path
   class="st1"
   d="m 1202.8,393.7 c 0,21 0.4,39.1 1.6,54.8 h -32.1 l -2.1,-32.5 h -0.8 c -9.1,16.1 -30.5,37.1 -65.9,37.1 -31.3,0 -68.8,-17.7 -68.8,-87.3 V 249.1 h 36.3 v 110 c 0,37.9 11.9,63.9 44.5,63.9 24.3,0 41.2,-16.9 47.8,-33.4 2.1,-4.9 3.3,-11.5 3.3,-18.5 v -122 h 36.3 v 144.6 z"
   id="path12"
   style="fill:#808080" />
			<path
   class="st1"
   d="m 1434.8,156 v 241 c 0,17.7 0.8,37.9 1.6,51.5 h -32.1 l -1.6,-34.6 h -1.2 c -10.7,22.2 -34.6,39.1 -67.2,39.1 -48.2,0 -85.7,-40.8 -85.7,-101.4 -0.4,-66.3 41.2,-106.7 89.4,-106.7 30.9,0 51.1,14.4 60.2,30.1 h 0.8 V 156 Z m -35.9,174.2 c 0,-4.5 -0.4,-10.7 -1.6,-15.2 -5.4,-22.7 -25.1,-41.6 -52.3,-41.6 -37.5,0 -59.7,33 -59.7,76.6 0,40.4 20.2,73.8 58.9,73.8 24.3,0 46.6,-16.5 53.1,-43.3 1.2,-4.9 1.6,-9.9 1.6,-15.7 z"
   id="path14"
   style="fill:#808080" />
			<path
   class="st1"
   d="m 1535.7,193 c 0,12.4 -8.7,22.2 -23.1,22.2 -13.2,0 -21.8,-9.9 -21.8,-22.2 0,-12.4 9.1,-22.7 22.7,-22.7 13.1,0.1 22.2,10 22.2,22.7 z m -40.4,255.5 V 249.1 h 36.3 v 199.4 z"
   id="path16"
   style="fill:#808080" />
			<path
   class="st1"
   d="m 1772.2,347.1 c 0,73.7 -51.5,105.9 -99.3,105.9 -53.6,0 -95.6,-39.6 -95.6,-102.6 0,-66.3 44.1,-105.5 98.9,-105.5 57.3,0.1 96,41.7 96,102.2 z m -157.8,2.1 c 0,43.7 24.7,76.6 60.2,76.6 34.6,0 60.6,-32.5 60.6,-77.5 0,-33.8 -16.9,-76.2 -59.7,-76.2 -42.6,0 -61.1,39.6 -61.1,77.1 z"
   id="path18"
   style="fill:#808080" />
		</g>
		<g
   id="g24">
			<path
   class="st2"
   d="m 424.7,411.8 h 33.6 v 26.1 H 407 L 322,310.5 H 276.7 V 411.8 H 321 v 26.1 H 209.5 v -26.1 h 38.3 V 187.3 l -38.3,-4.7 v -24.7 c 14.5,3.3 27.1,5.6 42.9,5.6 23.8,0 48.1,-5.6 71.9,-5.6 46.2,0 89.1,21 89.1,72.3 0,39.7 -23.8,64.9 -60.7,75.6 z m -148,-126.5 24.3,0.5 c 59.3,0.9 82.1,-21.9 82.1,-52.3 0,-35.5 -25.7,-49.5 -58.3,-49.5 -15.4,0 -31.3,1.4 -48.1,3.3 z"
   id="path22" />
		</g>
		<g
   id="g30"
   style="fill:#808080">
			<path
   class="st1"
   d="m 1751.8,170.4 c -12.9,0 -23.4,10.5 -23.4,23.4 0,12.9 10.5,23.4 23.4,23.4 12.9,0 23.4,-10.5 23.4,-23.4 0,-12.9 -10.5,-23.4 -23.4,-23.4 z m 19.6,23.4 c 0,10.8 -8.8,19.5 -19.5,19.5 -10.8,0 -19.5,-8.8 -19.5,-19.5 0,-10.8 8.8,-19.5 19.5,-19.5 10.7,-0.1 19.5,8.7 19.5,19.5 z"
   id="path26"
   style="fill:#808080" />
			<path
   class="st1"
   d="m 1760.1,203.3 -5.8,-8.5 c 3.3,-1.2 5,-3.6 5,-7 0,-5.1 -4.3,-6.9 -8.4,-6.9 -1.1,0 -2.2,0.1 -3.2,0.3 -1,0.1 -2.1,0.2 -3.1,0.2 -1.4,0 -2.5,-0.2 -3.7,-0.5 l -0.6,-0.1 v 3.3 l 3.4,0.4 v 18.8 h -3.4 v 3.4 h 10.9 v -3.4 h -3.9 v -7.9 h 3.2 l 7.3,11 0.2,0.2 h 5.3 v -3.4 h -3.2 z m -4.5,-15.2 c 0,1.2 -0.5,2.2 -1.4,2.9 -1.1,0.8 -2.8,1.2 -5,1.2 h -1.9 v -7.7 c 1.4,-0.1 2.6,-0.2 3.7,-0.2 2.1,0 4.6,0.7 4.6,3.8 z"
   id="path28"
   style="fill:#808080" />
		</g>
	</g>
</g>
<g
   id="White_Letters"
   transform="translate(-8.8808475,-3.1334903)">
</g>
<g
   id="R_Ball"
   transform="translate(-8.8808475,-3.1334903)">
</g>
</svg>
