<?xml version="1.0" encoding="UTF-8" standalone="no"?>
<svg
   version="1.1"
   x="0"
   y="0"
   viewBox="0 0 1160 1160"
   xml:space="preserve"
   aria-hidden="true"
   focusable="false"
   id="svg12"
   sodipodi:docname="11ty.svg"
   width="1160"
   height="1160"
   inkscape:version="1.1.2 (b8e25be833, 2022-02-05)"
   xmlns:inkscape="http://www.inkscape.org/namespaces/inkscape"
   xmlns:sodipodi="http://sodipodi.sourceforge.net/DTD/sodipodi-0.dtd"
   xmlns="http://www.w3.org/2000/svg"
   xmlns:svg="http://www.w3.org/2000/svg"><defs
     id="defs16" /><sodipodi:namedview
     id="namedview14"
     pagecolor="#505050"
     bordercolor="#eeeeee"
     borderopacity="1"
     inkscape:pageshadow="0"
     inkscape:pageopacity="0"
     inkscape:pagecheckerboard="0"
     showgrid="false"
     inkscape:zoom="0.39935956"
     inkscape:cx="582.18213"
     inkscape:cy="490.7858"
     inkscape:window-width="2560"
     inkscape:window-height="1369"
     inkscape:window-x="-8"
     inkscape:window-y="-8"
     inkscape:window-maximized="1"
     inkscape:current-layer="svg12" /><style
     id="style2">.st0{fill:#fff;stroke:#fff;stroke-width:28;stroke-miterlimit:10}</style><g
     id="g10"
     transform="translate(-200.95,-504.25)"><path
       class="st0"
       d="m 562.2,1410.1 c -9,0 -13.5,-12 -13.5,-36.1 V 778.9 c 0,-11.5 -2.3,-16.9 -7,-16.2 -28.4,7.2 -42.7,10.8 -43.1,10.8 -7.9,0.7 -11.8,-7.2 -11.8,-23.7 v -51.7 c 0,-14.3 4.3,-22.4 12.9,-24.2 l 142.2,-36.6 c 1.1,-0.3 2.7,-0.5 4.8,-0.5 7.9,0 11.8,8.4 11.8,25.3 v 712 c 0,24.1 -4.7,36.1 -14,36.1 z m 368.3,1.1 c -14.4,0 -26.8,-1 -37.4,-3 -10.6,-2 -21.6,-6.5 -33.1,-13.5 -11.5,-7 -20.9,-16.6 -28.3,-28.8 -7.4,-12.2 -13.4,-29.3 -18,-51.2 -4.6,-21.9 -7,-47.9 -7,-78.1 V 960.4 c 0,-7.2 -2,-10.8 -5.9,-10.8 h -33.4 c -9,0 -13.5,-8.6 -13.5,-25.8 v -29.1 c 0,-17.6 4.5,-26.4 13.5,-26.4 h 33.4 c 3.9,0 5.9,-4.8 5.9,-14.5 l 9.7,-209.5 c 1.1,-19 5.7,-28.5 14,-28.5 h 53.9 c 9,0 13.5,9.5 13.5,28.5 v 209.5 c 0,9.7 2.1,14.5 6.5,14.5 H 973 c 9,0 13.5,8.8 13.5,26.4 v 29.1 c 0,17.2 -4.5,25.8 -13.5,25.8 h -68.9 c -2.5,0 -4.2,0.6 -5.1,1.9 -0.9,1.2 -1.3,4.2 -1.3,8.9 v 277.9 c 0,20.8 1.3,38.2 4,52 2.7,13.8 6.6,24 11.8,30.4 5.2,6.4 10.4,10.8 15.6,12.9 5.2,2.2 11.6,3.2 19.1,3.2 h 38.2 c 9.7,0 14.5,6.7 14.5,19.9 v 32.3 c 0,14.7 -5.2,22.1 -15.6,22.1 z m 206.7,64.6 c 8.2,0 15.4,-6.7 21.5,-20.2 6.1,-13.5 9.2,-32.6 9.2,-57.4 0,-5.8 -3.6,-25.7 -10.8,-59.8 L 1051.5,899.5 c -0.7,-5 -1.1,-9 -1.1,-11.9 0,-12.9 2.7,-19.4 8.1,-19.4 h 65.2 c 5,0 9.1,1.7 12.4,5.1 3.3,3.4 5.8,10.3 7.5,20.7 l 70,370.5 c 1.4,4.3 2.3,6.5 2.7,6.5 1.4,0 2.2,-2 2.2,-5.9 l 54.9,-369.5 c 1.4,-10.8 3.7,-18 6.7,-21.8 3,-3.8 6.9,-5.7 11.6,-5.7 h 45.2 c 6.1,0 9.2,7 9.2,21 0,3.2 -0.4,7.4 -1.1,12.4 l -95.9,499.3 c -7.5,41.3 -15.8,72.9 -24.8,94.8 -9,21.9 -19,36.8 -30.2,44.7 -11.1,7.9 -25.8,12 -44.2,12.4 h -5.4 c -29.1,0 -48.8,-7.7 -59.2,-23.2 -2.9,-3.2 -4.3,-11.5 -4.3,-24.8 0,-26.6 4.3,-39.9 12.9,-39.9 0.7,0 7.2,1.8 19.4,5.4 12.4,3.8 20.3,5.6 23.9,5.6 z"
       id="path4" /><g
       id="g8"><path
         class="st0"
         d="m 291.2,1411.1 c -9,0 -13.5,-12 -13.5,-36.1 V 779.9 c 0,-11.5 -2.3,-16.9 -7,-16.2 -28.4,7.2 -42.7,10.8 -43.1,10.8 -7.9,0.7 -11.8,-7.2 -11.8,-23.7 v -51.7 c 0,-14.3 4.3,-22.4 12.9,-24.2 L 371,638.2 c 1.1,-0.3 2.7,-0.5 4.8,-0.5 7.9,0 11.8,8.4 11.8,25.3 v 712 c 0,24.1 -4.7,36.1 -14,36.1 z"
         id="path6" /></g></g></svg>
