<?xml version="1.0" encoding="UTF-8" standalone="no"?>
<!-- Generator: Adobe Illustrator 18.0.0, SVG Export Plug-In . SVG Version: 6.00 Build 0)  -->

<svg
   version="1.1"
   id="Capa_1"
   x="0px"
   y="0px"
   viewBox="0 0 1000 500"
   xml:space="preserve"
   sodipodi:docname="Stars.svg"
   width="1000"
   height="500"
   inkscape:version="1.1.2 (b8e25be833, 2022-02-05)"
   xmlns:inkscape="http://www.inkscape.org/namespaces/inkscape"
   xmlns:sodipodi="http://sodipodi.sourceforge.net/DTD/sodipodi-0.dtd"
   xmlns="http://www.w3.org/2000/svg"
   xmlns:svg="http://www.w3.org/2000/svg"><defs
   id="defs49">
	
	
	
	
	
	
</defs><sodipodi:namedview
   id="namedview47"
   pagecolor="#505050"
   bordercolor="#eeeeee"
   borderopacity="1"
   inkscape:pageshadow="0"
   inkscape:pageopacity="0"
   inkscape:pagecheckerboard="0"
   showgrid="false"
   inkscape:snap-page="false"
   inkscape:zoom="1"
   inkscape:cx="525.5"
   inkscape:cy="189"
   inkscape:window-width="2560"
   inkscape:window-height="1369"
   inkscape:window-x="-8"
   inkscape:window-y="-8"
   inkscape:window-maximized="1"
   inkscape:current-layer="layer1" />

<g
   id="g16">
</g>
<g
   id="g18">
</g>
<g
   id="g20">
</g>
<g
   id="g22">
</g>
<g
   id="g24">
</g>
<g
   id="g26">
</g>
<g
   id="g28">
</g>
<g
   id="g30">
</g>
<g
   id="g32">
</g>
<g
   id="g34">
</g>
<g
   id="g36">
</g>
<g
   id="g38">
</g>
<g
   id="g40">
</g>
<g
   id="g42">
</g>
<g
   id="g44">
</g>
<g
   inkscape:groupmode="layer"
   id="layer1"
   inkscape:label="Stars"
   style="opacity:0.396341"
   sodipodi:insensitive="true"><path
     d="m 545.98074,435.67863 -1.91294,-0.70543 c -1.5484,-0.57108 -2.76907,-1.79175 -3.34014,-3.34015 l -0.70544,-1.91278 c -0.0266,-0.0719 -0.0952,-0.11977 -0.17179,-0.11977 -0.0766,0 -0.14515,0.0479 -0.1718,0.11977 l -0.70528,1.91262 c -0.57107,1.54856 -1.79174,2.76923 -3.3403,3.34031 l -1.91278,0.70543 c -0.0719,0.0265 -0.11977,0.095 -0.11977,0.17163 0,0.0766 0.0479,0.14532 0.11977,0.1718 l 1.91294,0.70528 c 1.5484,0.57123 2.76907,1.79191 3.34014,3.34031 l 0.70528,1.91309 c 0.0266,0.0719 0.0952,0.11976 0.1718,0.11976 0.0766,0 0.14514,-0.0479 0.17179,-0.11976 l 0.70544,-1.91309 c 0.57107,-1.54857 1.79158,-2.76908 3.34014,-3.34015 l 1.91294,-0.70544 c 0.0719,-0.0265 0.11976,-0.0952 0.11976,-0.1718 0,-0.0766 -0.0479,-0.14515 -0.11976,-0.17163 z"
     id="path6-89-7-5-0-3"
     style="fill:#ffffff;stroke-width:1" /><path
     d="m 297.36097,122.75675 -3.82587,-1.41087 c -3.09681,-1.14215 -5.53814,-3.58349 -6.68029,-6.68029 l -1.41087,-3.82556 c -0.0533,-0.14372 -0.19035,-0.23953 -0.3436,-0.23953 -0.15323,0 -0.29029,0.0958 -0.34359,0.23953 l -1.41055,3.82525 c -1.14215,3.09711 -3.58349,5.53845 -6.6806,6.6806 l -3.82556,1.41087 c -0.14372,0.053 -0.23954,0.19004 -0.23954,0.34327 0,0.15325 0.0958,0.29062 0.23954,0.3436 l 3.82587,1.41055 c 3.0968,1.14246 5.53814,3.58381 6.68029,6.68061 l 1.41055,3.82619 c 0.0533,0.14372 0.19036,0.23953 0.34359,0.23953 0.15325,0 0.2903,-0.0958 0.3436,-0.23953 l 1.41087,-3.82619 c 1.14215,-3.09712 3.58317,-5.53815 6.68029,-6.68029 l 3.82587,-1.41087 c 0.14372,-0.0529 0.23953,-0.19035 0.23953,-0.3436 0,-0.15323 -0.0958,-0.29029 -0.23953,-0.34327 z"
     id="path6-89-7-5-9"
     style="fill:#ffffff;stroke-width:1" /><path
     d="m 851.26047,197.65625 -3.82587,-1.41087 c -3.09681,-1.14215 -5.53814,-3.58349 -6.68029,-6.68029 l -1.41087,-3.82556 c -0.0533,-0.14372 -0.19035,-0.23953 -0.3436,-0.23953 -0.15323,0 -0.29029,0.0958 -0.34359,0.23953 l -1.41055,3.82525 c -1.14215,3.09711 -3.58349,5.53845 -6.6806,6.6806 l -3.82556,1.41087 c -0.14372,0.053 -0.23954,0.19004 -0.23954,0.34327 0,0.15325 0.0958,0.29062 0.23954,0.3436 l 3.82587,1.41055 c 3.0968,1.14246 5.53814,3.58381 6.68029,6.68061 l 1.41055,3.82619 c 0.0533,0.14372 0.19036,0.23953 0.34359,0.23953 0.15325,0 0.2903,-0.0958 0.3436,-0.23953 l 1.41087,-3.82619 c 1.14215,-3.09712 3.58317,-5.53815 6.68029,-6.68029 l 3.82587,-1.41087 c 0.14372,-0.0529 0.23953,-0.19035 0.23953,-0.3436 0,-0.15323 -0.0958,-0.29029 -0.23953,-0.34327 z"
     id="path6-89-7-5-9-4"
     style="fill:#ffffff;stroke-width:1" /><circle
     style="fill:#ffffff;fill-rule:evenodd;stroke-width:9.99998;stroke-linecap:round"
     id="path915"
     cx="23.75"
     cy="27.75"
     r="3.75" /><circle
     style="fill:#ffffff;fill-rule:evenodd;stroke-width:9.99998;stroke-linecap:round"
     id="path915-8"
     cx="155"
     cy="312"
     r="3.75" /><circle
     style="fill:#ffffff;fill-rule:evenodd;stroke-width:9.99998;stroke-linecap:round"
     id="path915-82"
     cx="545"
     cy="219"
     r="3.75" /><circle
     style="fill:#ffffff;fill-rule:evenodd;stroke-width:9.99998;stroke-linecap:round"
     id="path915-7"
     cx="443"
     cy="89"
     r="3.75" /><circle
     style="fill:#ffffff;fill-rule:evenodd;stroke-width:9.99998;stroke-linecap:round"
     id="path915-0"
     cx="217"
     cy="66"
     r="3.75" /><circle
     style="fill:#ffffff;fill-rule:evenodd;stroke-width:9.99998;stroke-linecap:round"
     id="path915-3"
     cx="403"
     cy="355"
     r="3.75" /><circle
     style="fill:#ffffff;fill-rule:evenodd;stroke-width:9.99998;stroke-linecap:round"
     id="path915-70"
     cx="779"
     cy="210"
     r="3.75" /><circle
     style="fill:#ffffff;fill-rule:evenodd;stroke-width:9.99998;stroke-linecap:round"
     id="path915-4"
     cx="640"
     cy="81"
     r="3.75" /><circle
     style="fill:#ffffff;fill-rule:evenodd;stroke-width:9.99998;stroke-linecap:round"
     id="path915-2"
     cx="737"
     cy="354"
     r="3.75" /><circle
     style="fill:#ffffff;fill-rule:evenodd;stroke-width:9.99998;stroke-linecap:round"
     id="path915-01"
     cx="905"
     cy="349"
     r="3.75" /><circle
     style="fill:#ffffff;fill-rule:evenodd;stroke-width:9.99998;stroke-linecap:round"
     id="path915-83"
     cx="876"
     cy="164"
     r="3.75" /><circle
     style="fill:#ffffff;fill-rule:evenodd;stroke-width:9.99998;stroke-linecap:round"
     id="path915-40"
     cx="866"
     cy="217"
     r="3.75" /><circle
     style="fill:#ffffff;fill-rule:evenodd;stroke-width:9.99998;stroke-linecap:round"
     id="path915-86"
     cx="928"
     cy="201"
     r="3.75" /><circle
     style="fill:#ffffff;fill-rule:evenodd;stroke-width:9.99998;stroke-linecap:round"
     id="path915-867"
     cx="935"
     cy="52"
     r="3.75" /><circle
     style="fill:#ffffff;fill-rule:evenodd;stroke-width:9.99998;stroke-linecap:round"
     id="path915-31"
     cx="102"
     cy="185"
     r="3.75" /><circle
     style="fill:#ffffff;fill-rule:evenodd;stroke-width:9.99998;stroke-linecap:round"
     id="path915-48"
     cx="39"
     cy="413"
     r="3.75" /><circle
     style="fill:#ffffff;fill-rule:evenodd;stroke-width:9.99998;stroke-linecap:round"
     id="path915-836"
     cx="233"
     cy="455"
     r="3.75" /><circle
     style="fill:#ffffff;fill-rule:evenodd;stroke-width:9.99998;stroke-linecap:round"
     id="path915-1"
     cx="909"
     cy="484"
     r="3.75" /></g></svg>
