<?xml version="1.0" encoding="UTF-8" standalone="no"?>
<!-- Generator: Adobe Illustrator 18.0.0, SVG Export Plug-In . SVG Version: 6.00 Build 0)  -->

<svg
   version="1.1"
   id="Capa_1"
   x="0px"
   y="0px"
   viewBox="0 0 1000 500"
   xml:space="preserve"
   sodipodi:docname="Stars.svg"
   width="1000"
   height="500"
   inkscape:version="1.1.2 (b8e25be833, 2022-02-05)"
   xmlns:inkscape="http://www.inkscape.org/namespaces/inkscape"
   xmlns:sodipodi="http://sodipodi.sourceforge.net/DTD/sodipodi-0.dtd"
   xmlns="http://www.w3.org/2000/svg"
   xmlns:svg="http://www.w3.org/2000/svg"><defs
   id="defs49">
	
	
	
	
	
	
</defs><sodipodi:namedview
   id="namedview47"
   pagecolor="#505050"
   bordercolor="#eeeeee"
   borderopacity="1"
   inkscape:pageshadow="0"
   inkscape:pageopacity="0"
   inkscape:pagecheckerboard="0"
   showgrid="false"
   inkscape:snap-page="false"
   inkscape:zoom="0.5"
   inkscape:cx="487"
   inkscape:cy="197"
   inkscape:window-width="1278"
   inkscape:window-height="1360"
   inkscape:window-x="-7"
   inkscape:window-y="0"
   inkscape:window-maximized="0"
   inkscape:current-layer="layer1" />

<g
   id="g16">
</g>
<g
   id="g18">
</g>
<g
   id="g20">
</g>
<g
   id="g22">
</g>
<g
   id="g24">
</g>
<g
   id="g26">
</g>
<g
   id="g28">
</g>
<g
   id="g30">
</g>
<g
   id="g32">
</g>
<g
   id="g34">
</g>
<g
   id="g36">
</g>
<g
   id="g38">
</g>
<g
   id="g40">
</g>
<g
   id="g42">
</g>
<g
   id="g44">
</g>
<g
   inkscape:groupmode="layer"
   id="layer1"
   inkscape:label="Stars"
   sodipodi:insensitive="true"
   style="opacity:0.05"><path
     d="m 49.837,97.092 6.544,17.743 c 0.246,0.668 0.882,1.111 1.593,1.111 0.711,0 1.347,-0.443 1.593,-1.111 L 66.111,97.092 C 71.408,82.728 82.731,71.405 97.094,66.109 l 17.743,-6.544 c 0.667,-0.246 1.11,-0.882 1.11,-1.593 0,-0.711 -0.443,-1.347 -1.11,-1.593 L 97.093,49.835 C 82.73,44.538 71.407,33.216 66.111,18.853 L 59.567,1.11 C 59.321,0.443 58.685,0 57.974,0 57.263,0 56.627,0.443 56.381,1.11 L 49.837,18.853 C 44.54,33.216 33.218,44.538 18.854,49.835 L 1.11,56.379 C 0.443,56.625 0,57.261 0,57.972 c 0,0.711 0.443,1.347 1.11,1.593 l 17.743,6.544 c 14.364,5.296 25.687,16.618 30.984,30.983 z"
     id="path2-0"
     style="fill:#ffffff" /><path
     d="m 933.89,481.146 6.544,17.743 c 0.246,0.668 0.882,1.111 1.593,1.111 0.711,0 1.347,-0.443 1.593,-1.111 l 6.544,-17.743 c 5.297,-14.364 16.62,-25.687 30.983,-30.983 l 17.743,-6.544 c 0.667,-0.246 1.11,-0.882 1.11,-1.593 0,-0.711 -0.443,-1.347 -1.11,-1.593 l -17.744,-6.544 C 966.783,428.592 955.46,417.27 950.164,402.907 l -6.544,-17.743 c -0.246,-0.667 -0.882,-1.11 -1.593,-1.11 -0.711,0 -1.347,0.443 -1.593,1.11 l -6.544,17.743 c -5.297,14.363 -16.619,25.685 -30.983,30.982 l -17.744,6.544 c -0.667,0.246 -1.11,0.882 -1.11,1.593 0,0.711 0.443,1.347 1.11,1.593 l 17.743,6.544 c 14.364,5.296 25.687,16.618 30.984,30.983 z"
     id="path2-0-4"
     style="fill:#ffffff" /><path
     d="m 193.8635,481.146 6.544,17.743 c 0.246,0.668 0.882,1.111 1.593,1.111 0.711,0 1.347,-0.443 1.593,-1.111 l 6.544,-17.743 c 5.297,-14.364 16.62,-25.687 30.983,-30.983 l 17.743,-6.544 c 0.667,-0.246 1.11,-0.882 1.11,-1.593 0,-0.711 -0.443,-1.347 -1.11,-1.593 l -17.744,-6.544 c -14.363,-5.297 -25.686,-16.619 -30.982,-30.982 l -6.544,-17.743 c -0.246,-0.667 -0.882,-1.11 -1.593,-1.11 -0.711,0 -1.347,0.443 -1.593,1.11 l -6.544,17.743 c -5.297,14.363 -16.619,25.685 -30.983,30.982 l -17.744,6.544 c -0.667,0.246 -1.11,0.882 -1.11,1.593 0,0.711 0.443,1.347 1.11,1.593 l 17.743,6.544 c 14.364,5.296 25.687,16.618 30.984,30.983 z"
     id="path2-00"
     style="fill:#ffffff" /><path
     d="m 433.89,229.119 6.544,17.743 c 0.246,0.668 0.882,1.111 1.593,1.111 0.711,0 1.347,-0.443 1.593,-1.111 l 6.544,-17.743 c 5.297,-14.364 16.62,-25.687 30.983,-30.983 l 17.743,-6.544 c 0.667,-0.246 1.11,-0.882 1.11,-1.593 0,-0.711 -0.443,-1.347 -1.11,-1.593 l -17.744,-6.544 C 466.783,176.565 455.46,165.243 450.164,150.88 l -6.544,-17.743 c -0.246,-0.667 -0.882,-1.11 -1.593,-1.11 -0.711,0 -1.347,0.443 -1.593,1.11 l -6.544,17.743 c -5.297,14.363 -16.619,25.685 -30.983,30.982 l -17.744,6.544 c -0.667,0.246 -1.11,0.882 -1.11,1.593 0,0.711 0.443,1.347 1.11,1.593 l 17.743,6.544 c 14.364,5.296 25.687,16.618 30.984,30.983 z"
     id="path2-03"
     style="fill:#ffffff" /><path
     d="m 761.8635,117.092 6.544,17.743 c 0.246,0.668 0.882,1.111 1.593,1.111 0.711,0 1.347,-0.443 1.593,-1.111 l 6.544,-17.743 c 5.297,-14.364 16.62,-25.687 30.983,-30.983 l 17.743,-6.544 c 0.667,-0.246 1.11,-0.882 1.11,-1.593 0,-0.711 -0.443,-1.347 -1.11,-1.593 l -17.744,-6.544 c -14.363,-5.297 -25.686,-16.619 -30.982,-30.982 l -6.544,-17.743 c -0.246,-0.667 -0.882,-1.11 -1.593,-1.11 -0.711,0 -1.347,0.443 -1.593,1.11 l -6.544,17.743 c -5.297,14.363 -16.619,25.685 -30.983,30.982 l -17.744,6.544 c -0.667,0.246 -1.11,0.882 -1.11,1.593 0,0.711 0.443,1.347 1.11,1.593 l 17.743,6.544 c 14.364,5.296 25.687,16.618 30.984,30.983 z"
     id="path2-03-5"
     style="fill:#ffffff" /><path
     d="m 272.12356,134.60401 -4.40725,-1.62526 c -3.5674,-1.31571 -6.37972,-4.12804 -7.69543,-7.69543 l -1.62526,-4.40689 c -0.0614,-0.16556 -0.21928,-0.27593 -0.39581,-0.27593 -0.17652,0 -0.33441,0.11037 -0.39581,0.27593 l -1.62489,4.40653 c -1.31571,3.56775 -4.12804,6.38008 -7.69579,7.69579 l -4.40689,1.62526 c -0.16556,0.061 -0.27594,0.21892 -0.27594,0.39544 0,0.17653 0.11038,0.33478 0.27594,0.39581 l 4.40725,1.6249 c 3.56739,1.31607 6.37972,4.1284 7.69543,7.69579 l 1.62489,4.40762 c 0.0614,0.16556 0.21929,0.27593 0.39581,0.27593 0.17653,0 0.33441,-0.11037 0.39581,-0.27593 l 1.62526,-4.40762 c 1.31571,-3.56776 4.12767,-6.37972 7.69543,-7.69543 l 4.40725,-1.62526 c 0.16556,-0.061 0.27593,-0.21928 0.27593,-0.39581 0,-0.17652 -0.11037,-0.33441 -0.27593,-0.39544 z"
     id="path6-89"
     style="fill:#ffffff;stroke-width:1" /><path
     d="m 96.12357,373.60401 -4.40725,-1.62526 c -3.5674,-1.31571 -6.37972,-4.12804 -7.69543,-7.69543 l -1.62526,-4.40689 c -0.0614,-0.16556 -0.21928,-0.27593 -0.39581,-0.27593 -0.17652,0 -0.33441,0.11037 -0.39581,0.27593 l -1.62489,4.40653 c -1.31571,3.56775 -4.12804,6.38008 -7.69579,7.69579 l -4.40689,1.62526 c -0.16556,0.061 -0.27594,0.21892 -0.27594,0.39544 0,0.17653 0.11038,0.33478 0.27594,0.39581 l 4.40725,1.6249 c 3.56739,1.31607 6.37972,4.1284 7.69543,7.69579 l 1.62489,4.40762 c 0.0614,0.16556 0.21929,0.27593 0.39581,0.27593 0.17653,0 0.33441,-0.11037 0.39581,-0.27593 l 1.62526,-4.40762 c 1.31571,-3.56776 4.12767,-6.37972 7.69543,-7.69543 l 4.40725,-1.62526 c 0.16556,-0.061 0.27593,-0.21928 0.27593,-0.39581 0,-0.17652 -0.11037,-0.33441 -0.27593,-0.39544 z"
     id="path6-89-7"
     style="fill:#ffffff;stroke-width:1" /><path
     d="m 306.12357,321.60401 -4.40725,-1.62526 c -3.5674,-1.31571 -6.37972,-4.12804 -7.69543,-7.69543 l -1.62526,-4.40689 c -0.0614,-0.16556 -0.21928,-0.27593 -0.39581,-0.27593 -0.17652,0 -0.33441,0.11037 -0.39581,0.27593 l -1.62489,4.40653 c -1.31571,3.56775 -4.12804,6.38008 -7.69579,7.69579 l -4.40689,1.62526 c -0.16556,0.061 -0.27594,0.21892 -0.27594,0.39544 0,0.17653 0.11038,0.33478 0.27594,0.39581 l 4.40725,1.6249 c 3.56739,1.31607 6.37972,4.1284 7.69543,7.69579 l 1.62489,4.40762 c 0.0614,0.16556 0.21929,0.27593 0.39581,0.27593 0.17653,0 0.33441,-0.11037 0.39581,-0.27593 l 1.62526,-4.40762 c 1.31571,-3.56776 4.12767,-6.37972 7.69543,-7.69543 l 4.40725,-1.62526 c 0.16556,-0.061 0.27593,-0.21928 0.27593,-0.39581 0,-0.17652 -0.11037,-0.33441 -0.27593,-0.39544 z"
     id="path6-89-7-5"
     style="fill:#ffffff;stroke-width:1" /><path
     d="m 634.12357,387.60401 -4.40725,-1.62526 c -3.5674,-1.31571 -6.37972,-4.12804 -7.69543,-7.69543 l -1.62526,-4.40689 c -0.0614,-0.16556 -0.21928,-0.27593 -0.39581,-0.27593 -0.17652,0 -0.33441,0.11037 -0.39581,0.27593 l -1.62489,4.40653 c -1.31571,3.56775 -4.12804,6.38008 -7.69579,7.69579 l -4.40689,1.62526 c -0.16556,0.061 -0.27594,0.21892 -0.27594,0.39544 0,0.17653 0.11038,0.33478 0.27594,0.39581 l 4.40725,1.6249 c 3.56739,1.31607 6.37972,4.1284 7.69543,7.69579 l 1.62489,4.40762 c 0.0614,0.16556 0.21929,0.27593 0.39581,0.27593 0.17653,0 0.33441,-0.11037 0.39581,-0.27593 l 1.62526,-4.40762 c 1.31571,-3.56776 4.12767,-6.37972 7.69543,-7.69543 l 4.40725,-1.62526 c 0.16556,-0.061 0.27593,-0.21928 0.27593,-0.39581 0,-0.17652 -0.11037,-0.33441 -0.27593,-0.39544 z"
     id="path6-89-7-5-7"
     style="fill:#ffffff;stroke-width:1" /><path
     d="m 662.12357,277.60401 -4.40725,-1.62526 c -3.5674,-1.31571 -6.37972,-4.12804 -7.69543,-7.69543 l -1.62526,-4.40689 c -0.0614,-0.16556 -0.21928,-0.27593 -0.39581,-0.27593 -0.17652,0 -0.33441,0.11037 -0.39581,0.27593 l -1.62489,4.40653 c -1.31571,3.56775 -4.12804,6.38008 -7.69579,7.69579 l -4.40689,1.62526 c -0.16556,0.061 -0.27594,0.21892 -0.27594,0.39544 0,0.17653 0.11038,0.33478 0.27594,0.39581 l 4.40725,1.6249 c 3.56739,1.31607 6.37972,4.1284 7.69543,7.69579 l 1.62489,4.40762 c 0.0614,0.16556 0.21929,0.27593 0.39581,0.27593 0.17653,0 0.33441,-0.11037 0.39581,-0.27593 l 1.62526,-4.40762 c 1.31571,-3.56776 4.12767,-6.37972 7.69543,-7.69543 l 4.40725,-1.62526 c 0.16556,-0.061 0.27593,-0.21928 0.27593,-0.39581 0,-0.17652 -0.11037,-0.33441 -0.27593,-0.39544 z"
     id="path6-89-7-5-0"
     style="fill:#ffffff;stroke-width:1" /><path
     d="m 602.12357,85.60401 -4.40725,-1.62526 c -3.5674,-1.31571 -6.37972,-4.12804 -7.69543,-7.69543 l -1.62526,-4.40689 c -0.0614,-0.16556 -0.21928,-0.27593 -0.39581,-0.27593 -0.17652,0 -0.33441,0.11037 -0.39581,0.27593 l -1.62489,4.40653 c -1.31571,3.56775 -4.12804,6.38008 -7.69579,7.69579 l -4.40689,1.62526 c -0.16556,0.061 -0.27594,0.21892 -0.27594,0.39544 0,0.17653 0.11038,0.33478 0.27594,0.39581 l 4.40725,1.6249 c 3.56739,1.31607 6.37972,4.1284 7.69543,7.69579 l 1.62489,4.40762 c 0.0614,0.16556 0.21929,0.27593 0.39581,0.27593 0.17653,0 0.33441,-0.11037 0.39581,-0.27593 l 1.62526,-4.40762 c 1.31571,-3.56776 4.12767,-6.37972 7.69543,-7.69543 l 4.40725,-1.62526 c 0.16556,-0.061 0.27593,-0.21928 0.27593,-0.39581 0,-0.17652 -0.11037,-0.33441 -0.27593,-0.39544 z"
     id="path6-89-7-5-9"
     style="fill:#ffffff;stroke-width:1" /><path
     d="m 488.12357,467.60401 -4.40725,-1.62526 c -3.5674,-1.31571 -6.37972,-4.12804 -7.69543,-7.69543 l -1.62526,-4.40689 c -0.0614,-0.16556 -0.21928,-0.27593 -0.39581,-0.27593 -0.17652,0 -0.33441,0.11037 -0.39581,0.27593 l -1.62489,4.40653 c -1.31571,3.56775 -4.12804,6.38008 -7.69579,7.69579 l -4.40689,1.62526 c -0.16556,0.061 -0.27594,0.21892 -0.27594,0.39544 0,0.17653 0.11038,0.33478 0.27594,0.39581 l 4.40725,1.6249 c 3.56739,1.31607 6.37972,4.1284 7.69543,7.69579 l 1.62489,4.40762 c 0.0614,0.16556 0.21929,0.27593 0.39581,0.27593 0.17653,0 0.33441,-0.11037 0.39581,-0.27593 l 1.62526,-4.40762 c 1.31571,-3.56776 4.12767,-6.37972 7.69543,-7.69543 l 4.40725,-1.62526 c 0.16556,-0.061 0.27593,-0.21928 0.27593,-0.39581 0,-0.17652 -0.11037,-0.33441 -0.27593,-0.39544 z"
     id="path6-89-7-5-6"
     style="fill:#ffffff;stroke-width:1" /><path
     d="m 155.533,190.726 -8.412,-3.102 c -6.809,-2.511 -12.176,-7.878 -14.686,-14.687 l -3.103,-8.41 C 129.216,164.21 128.914,164 128.577,164 c -0.337,0 -0.639,0.21 -0.755,0.526 l -3.102,8.409 c -2.511,6.809 -7.879,12.177 -14.688,14.688 l -8.412,3.102 c -0.316,0.116 -0.526,0.418 -0.526,0.755 0,0.337 0.21,0.639 0.526,0.755 l 8.411,3.103 c 6.81,2.511 12.178,7.879 14.689,14.689 l 3.102,8.41 c 0.116,0.316 0.418,0.526 0.755,0.526 0.337,0 0.639,-0.21 0.755,-0.526 l 3.103,-8.411 c 2.511,-6.81 7.878,-12.177 14.688,-14.687 l 8.411,-3.103 c 0.316,-0.116 0.526,-0.418 0.526,-0.755 0,-0.337 -0.21,-0.639 -0.527,-0.755 z"
     id="path10"
     style="fill:#ffffff" /><path
     d="m 384.956,53.2445 -8.412,-3.102 c -6.809,-2.511 -12.176,-7.878 -14.686,-14.687 l -3.103,-8.41 c -0.116,-0.317 -0.418,-0.527 -0.755,-0.527 -0.337,0 -0.639,0.21 -0.755,0.526 l -3.102,8.409 c -2.511,6.809 -7.879,12.177 -14.688,14.688 l -8.412,3.102 c -0.316,0.116 -0.526,0.418 -0.526,0.755 0,0.337 0.21,0.639 0.526,0.755 l 8.411,3.103 c 6.81,2.511 12.178,7.879 14.689,14.689 l 3.102,8.41 c 0.116,0.316 0.418,0.526 0.755,0.526 0.337,0 0.639,-0.21 0.755,-0.526 l 3.103,-8.411 c 2.511,-6.81 7.878,-12.177 14.688,-14.687 l 8.411,-3.103 c 0.316,-0.116 0.526,-0.418 0.526,-0.755 0,-0.337 -0.21,-0.639 -0.527,-0.755 z"
     id="path10-7"
     style="fill:#ffffff" /><path
     d="m 852.956,409.2445 -8.412,-3.102 c -6.809,-2.511 -12.176,-7.878 -14.686,-14.687 l -3.103,-8.41 c -0.116,-0.317 -0.418,-0.527 -0.755,-0.527 -0.337,0 -0.639,0.21 -0.755,0.526 l -3.102,8.409 c -2.511,6.809 -7.879,12.177 -14.688,14.688 l -8.412,3.102 c -0.316,0.116 -0.526,0.418 -0.526,0.755 0,0.337 0.21,0.639 0.526,0.755 l 8.411,3.103 c 6.81,2.511 12.178,7.879 14.689,14.689 l 3.102,8.41 c 0.116,0.316 0.418,0.526 0.755,0.526 0.337,0 0.639,-0.21 0.755,-0.526 l 3.103,-8.411 c 2.511,-6.81 7.878,-12.177 14.688,-14.687 l 8.411,-3.103 c 0.316,-0.116 0.526,-0.418 0.526,-0.755 0,-0.337 -0.21,-0.639 -0.527,-0.755 z"
     id="path10-7-0"
     style="fill:#ffffff" /><path
     d="m 832.956,311.2445 -8.412,-3.102 c -6.809,-2.511 -12.176,-7.878 -14.686,-14.687 l -3.103,-8.41 c -0.116,-0.317 -0.418,-0.527 -0.755,-0.527 -0.337,0 -0.639,0.21 -0.755,0.526 l -3.102,8.409 c -2.511,6.809 -7.879,12.177 -14.688,14.688 l -8.412,3.102 c -0.316,0.116 -0.526,0.418 -0.526,0.755 0,0.337 0.21,0.639 0.526,0.755 l 8.411,3.103 c 6.81,2.511 12.178,7.879 14.689,14.689 l 3.102,8.41 c 0.116,0.316 0.418,0.526 0.755,0.526 0.337,0 0.639,-0.21 0.755,-0.526 l 3.103,-8.411 c 2.511,-6.81 7.878,-12.177 14.688,-14.687 l 8.411,-3.103 c 0.316,-0.116 0.526,-0.418 0.526,-0.755 0,-0.337 -0.21,-0.639 -0.527,-0.755 z"
     id="path10-7-7"
     style="fill:#ffffff" /><path
     d="m 692.956,175.2445 -8.412,-3.102 c -6.809,-2.511 -12.176,-7.878 -14.686,-14.687 l -3.103,-8.41 c -0.116,-0.317 -0.418,-0.527 -0.755,-0.527 -0.337,0 -0.639,0.21 -0.755,0.526 l -3.102,8.409 c -2.511,6.809 -7.879,12.177 -14.688,14.688 l -8.412,3.102 c -0.316,0.116 -0.526,0.418 -0.526,0.755 0,0.337 0.21,0.639 0.526,0.755 l 8.411,3.103 c 6.81,2.511 12.178,7.879 14.689,14.689 l 3.102,8.41 c 0.116,0.316 0.418,0.526 0.755,0.526 0.337,0 0.639,-0.21 0.755,-0.526 l 3.103,-8.411 c 2.511,-6.81 7.878,-12.177 14.688,-14.687 l 8.411,-3.103 c 0.316,-0.116 0.526,-0.418 0.526,-0.755 0,-0.337 -0.21,-0.639 -0.527,-0.755 z"
     id="path10-7-7-2"
     style="fill:#ffffff" /><path
     d="m 436.956,343.2445 -8.412,-3.102 c -6.809,-2.511 -12.176,-7.878 -14.686,-14.687 l -3.103,-8.41 c -0.116,-0.317 -0.418,-0.527 -0.755,-0.527 -0.337,0 -0.639,0.21 -0.755,0.526 l -3.102,8.409 c -2.511,6.809 -7.879,12.177 -14.688,14.688 l -8.412,3.102 c -0.316,0.116 -0.526,0.418 -0.526,0.755 0,0.337 0.21,0.639 0.526,0.755 l 8.411,3.103 c 6.81,2.511 12.178,7.879 14.689,14.689 l 3.102,8.41 c 0.116,0.316 0.418,0.526 0.755,0.526 0.337,0 0.639,-0.21 0.755,-0.526 l 3.103,-8.411 c 2.511,-6.81 7.878,-12.177 14.688,-14.687 l 8.411,-3.103 c 0.316,-0.116 0.526,-0.418 0.526,-0.755 0,-0.337 -0.21,-0.639 -0.527,-0.755 z"
     id="path10-9"
     style="fill:#ffffff" /><path
     d="m 968.956,99.2445 -8.412,-3.102 c -6.809,-2.511 -12.176,-7.878 -14.686,-14.687 l -3.103,-8.41 c -0.116,-0.317 -0.418,-0.527 -0.755,-0.527 -0.337,0 -0.639,0.21 -0.755,0.526 l -3.102,8.409 c -2.511,6.809 -7.879,12.177 -14.688,14.688 l -8.412,3.102 c -0.316,0.116 -0.526,0.418 -0.526,0.755 0,0.337 0.21,0.639 0.526,0.755 l 8.411,3.103 c 6.81,2.511 12.178,7.879 14.689,14.689 l 3.102,8.41 c 0.116,0.316 0.418,0.526 0.755,0.526 0.337,0 0.639,-0.21 0.755,-0.526 l 3.103,-8.411 c 2.511,-6.81 7.878,-12.177 14.688,-14.687 l 8.411,-3.103 c 0.316,-0.116 0.526,-0.418 0.526,-0.755 0,-0.337 -0.21,-0.639 -0.527,-0.755 z"
     id="path10-9-7"
     style="fill:#ffffff" /></g></svg>
